<svg width="992" height="677" viewBox="0 0 992 677" fill="none" xmlns="http://www.w3.org/2000/svg">
<g clip-path="url(#clip0_5_461)">
<path d="M139.647 274.456L128.825 273.057L121.836 272.154L123.369 270.168L127.562 264.752L122.151 268.95L120.167 270.484L119.265 263.488L117.868 252.656L116.47 263.488L115.568 270.484L113.629 268.995L108.218 264.797L112.412 270.213L113.945 272.199L106.956 273.102L96.1338 274.501L106.956 275.9L113.945 276.803L112.412 278.789L108.218 284.205L113.629 280.007L115.613 278.473L116.515 285.468L117.913 296.3L119.311 285.468L120.212 278.473L122.196 280.007L127.607 284.205L123.414 278.789L121.881 276.803L128.87 275.9L139.647 274.456ZM117.913 274.411V274.501L117.868 274.546L117.823 274.501L117.777 274.456L117.823 274.411H117.913Z" fill="#F1ECD3"/>
<path d="M569.588 311.285L551.281 308.938L539.423 307.448L541.993 304.108L549.072 294.946L539.919 302.032L536.582 304.605L535.094 292.735L532.749 274.411L530.404 292.735L528.916 304.605L525.58 302.032L516.426 294.946L523.505 304.108L526.076 307.448L514.217 308.938L495.91 311.285L514.217 313.632L526.076 315.121L523.505 318.461L516.426 327.623L525.58 320.537L528.916 317.964L530.404 329.834L532.749 348.159L535.094 329.834L536.582 317.964L539.919 320.537L549.072 327.623L541.993 318.461L539.423 315.121L551.281 313.632L569.588 311.285ZM532.839 311.194L532.929 311.285L532.839 311.375L532.749 311.465L532.659 311.375L532.569 311.285L532.659 311.194L532.749 311.104L532.839 311.194Z" fill="#F1ECD3"/>
<path d="M945.241 159.953L932.931 158.373L924.995 157.38L926.708 155.168L931.443 149.03L925.311 153.769L923.101 155.484L922.109 147.541L920.531 135.219L918.953 147.541L917.961 155.484L915.751 153.769L909.619 149.03L914.353 155.168L916.067 157.38L908.131 158.373L895.821 159.953L908.131 161.532L916.067 162.525L914.353 164.737L909.619 170.875L915.751 166.136L917.961 164.421L918.953 172.364L920.531 184.686L922.109 172.364L923.101 164.421L925.311 166.136L931.443 170.875L926.708 164.737L924.995 162.525L932.931 161.532L945.241 159.953ZM920.621 159.907L920.666 159.953L920.621 159.998L920.576 160.043L920.531 159.998L920.486 159.953L920.531 159.907L920.576 159.862L920.621 159.907Z" fill="#F1ECD3"/>
<path d="M579.824 153.544L568.506 151.468L565.17 132.241L562.148 151.468L550.56 153.544L562.148 155.62L565.17 174.801L568.506 155.62L579.824 153.544Z" fill="#F1ECD3"/>
<path d="M976.985 303.522L970.447 302.348L968.508 291.245L966.794 302.348L960.076 303.522L966.794 304.74L968.508 315.843L970.447 304.74L976.985 303.522Z" fill="#F1ECD3"/>
<path d="M103.889 167.715L94.5106 166L91.76 150.068L89.2349 166L79.6306 167.715L89.2349 169.431L91.76 185.408L94.5106 169.431L103.889 167.715Z" fill="#F1ECD3"/>
<path d="M133.379 219.122L133.108 218.761L104.566 184.189L104.34 183.918L104.115 184.189L75.7077 218.626L75.3018 219.122L75.2567 219.167V334.167L75.7077 334.709L104.115 369.145L104.34 369.416L104.566 369.145L133.108 334.573L133.379 334.257L133.424 334.212L133.469 334.167L133.379 219.122ZM104.34 368.694L75.7077 333.987V219.348L104.34 184.64L132.793 219.167L132.973 219.348V333.987L132.793 334.212L104.34 368.694Z" fill="#252827"/>
<path d="M190.87 219.122L190.599 218.761L162.057 184.189L161.831 183.918L161.606 184.189L133.108 218.761L132.838 219.077L132.793 219.122V334.122L132.838 334.167L133.153 334.528L161.696 369.1L161.921 369.371L162.147 369.1L190.689 334.528L190.96 334.212V334.167L191.005 334.122L190.87 219.122ZM161.831 368.694L133.379 334.167L133.199 333.987V219.348L133.379 219.122L161.831 184.64L190.284 219.167L190.464 219.348V333.987L190.284 334.167L161.831 368.694Z" fill="#252827"/>
<path d="M247.955 218.626L219.548 184.189L219.322 183.918L219.097 184.189L190.554 218.761L190.284 219.077L190.239 219.122V334.122L190.284 334.167L190.554 334.528L219.097 369.1L219.322 369.371L219.548 369.1L247.955 334.664L248.361 334.167L248.406 334.122V219.167L247.955 218.626ZM247.955 333.987L219.322 368.694L190.87 334.167L190.735 333.987V219.348L190.915 219.167L219.367 184.64L248 219.348V333.987H247.955Z" fill="#252827"/>
<path d="M104.566 369.055H104.115V441.359H104.566V369.055Z" fill="#252827"/>
<path d="M162.057 369.055H161.606V441.359H162.057V369.055Z" fill="#252827"/>
<path d="M219.548 369.055H219.097V441.359H219.548V369.055Z" fill="#252827"/>
<path d="M104.566 111.976H104.115V184.279H104.566V111.976Z" fill="#252827"/>
<path d="M162.057 111.976H161.606V184.279H162.057V111.976Z" fill="#252827"/>
<path d="M219.548 111.976H219.097V184.279H219.548V111.976Z" fill="#252827"/>
<path d="M75.2567 111.75V441.585H248.406V111.75H75.2567ZM247.955 441.133H75.7077V112.201H247.955V441.133Z" fill="#252827"/>
<path d="M60.6473 92.2976V461.037H263.015V92.2976H60.6473ZM61.0982 460.586V92.7489H262.564V460.586H61.0982Z" fill="#252827"/>
<path d="M262.577 92.4075L247.982 111.859L248.343 112.13L262.937 92.6785L262.577 92.4075Z" fill="#252827"/>
<path d="M61.0634 92.3899L60.7028 92.6609L75.2949 112.115L75.6555 111.844L61.0634 92.3899Z" fill="#252827"/>
<path d="M75.2796 441.233L60.7021 460.697L61.0628 460.968L75.6404 441.504L75.2796 441.233Z" fill="#252827"/>
<path d="M248.365 441.232L248.005 441.503L262.597 460.957L262.957 460.686L248.365 441.232Z" fill="#252827"/>
<path d="M490.138 219.122L489.868 218.761L461.325 184.189L461.1 183.918L460.874 184.189L432.467 218.626L432.061 219.122L432.016 219.167V334.167L432.467 334.709L460.874 369.145L461.1 369.416L461.325 369.145L489.868 334.573L490.138 334.257L490.183 334.212L490.228 334.167L490.138 219.122ZM461.1 368.694L432.467 333.987V219.348L461.1 184.64L489.552 219.167L489.732 219.348V333.987L489.552 334.167L461.1 368.694Z" fill="#252827"/>
<path d="M547.629 219.122L547.359 218.761L518.816 184.189L518.591 183.918L518.365 184.189L489.823 218.761L489.552 219.077L489.507 219.122V334.122L489.552 334.167L489.868 334.528L518.41 369.1L518.636 369.371L518.861 369.1L547.404 334.528L547.674 334.212L547.719 334.167L547.764 334.122L547.629 219.122ZM518.591 368.694L490.138 334.167L489.958 333.987V219.348L490.138 219.167L518.591 184.64L547.043 219.167L547.223 219.348V333.987L547.043 334.167L518.591 368.694Z" fill="#252827"/>
<path d="M604.714 218.626L576.307 184.189L576.081 183.918L575.856 184.189L547.313 218.761L547.043 219.077H546.998L546.953 219.122V334.122L546.998 334.167L547.313 334.528L575.856 369.1L576.081 369.371L576.307 369.1L604.714 334.664L605.12 334.167L605.165 334.122V219.167L604.714 218.626ZM604.714 333.987L576.081 368.694L547.629 334.167L547.449 333.987V219.348L547.629 219.167L576.081 184.64L604.714 219.348V333.987Z" fill="#252827"/>
<path d="M461.325 369.055H460.874V441.359H461.325V369.055Z" fill="#252827"/>
<path d="M518.816 369.055H518.365V441.359H518.816V369.055Z" fill="#252827"/>
<path d="M576.307 369.055H575.856V441.359H576.307V369.055Z" fill="#252827"/>
<path d="M461.325 111.976H460.874V184.279H461.325V111.976Z" fill="#252827"/>
<path d="M518.816 111.976H518.365V184.279H518.816V111.976Z" fill="#252827"/>
<path d="M576.307 111.976H575.856V184.279H576.307V111.976Z" fill="#252827"/>
<path d="M432.016 111.75V441.585H605.165V111.75H432.016ZM604.714 441.133H432.467V112.201H604.714V441.133Z" fill="#252827"/>
<path d="M417.407 92.2976V461.037H619.775V92.2976H417.407ZM417.857 460.586V92.7489H619.324V460.586H417.857Z" fill="#252827"/>
<path d="M619.312 92.3826L604.708 111.827L605.068 112.098L619.672 92.6538L619.312 92.3826Z" fill="#252827"/>
<path d="M417.825 92.3906L417.465 92.6616L432.057 112.116L432.417 111.845L417.825 92.3906Z" fill="#252827"/>
<path d="M432.02 441.233L417.443 460.697L417.803 460.967L432.381 441.504L432.02 441.233Z" fill="#252827"/>
<path d="M605.127 441.237L604.766 441.508L619.358 460.962L619.719 460.691L605.127 441.237Z" fill="#252827"/>
<path d="M934.689 219.122L934.419 218.761L905.876 184.189L905.651 183.918L905.425 184.189L877.018 218.626L876.612 219.122L876.567 219.167V334.167L877.018 334.709L905.425 369.145L905.651 369.416L905.876 369.145L934.419 334.573L934.689 334.257L934.735 334.212L934.78 334.167L934.689 219.122ZM905.651 368.694L877.018 333.987V219.348L905.651 184.64L934.103 219.167L934.284 219.348V333.987L934.103 334.212L905.651 368.694Z" fill="#252827"/>
<path d="M934.509 219.348V333.987L934.689 334.212L963.142 368.694L992 333.716V334.438L963.367 369.145L963.142 369.416L962.916 369.145L934.419 334.528L934.103 334.212L934.058 334.167V219.167L934.103 219.122H934.148L934.419 218.806L962.916 184.189L963.142 183.918L963.322 184.144L963.367 184.189L992 218.897V219.619L963.142 184.64L934.689 219.122L934.509 219.348Z" fill="#252827"/>
<path d="M905.876 369.055H905.425V441.359H905.876V369.055Z" fill="#252827"/>
<path d="M963.367 369.055H962.916V441.359H963.367V369.055Z" fill="#252827"/>
<path d="M905.876 111.976H905.425V184.279H905.876V111.976Z" fill="#252827"/>
<path d="M963.367 111.976H962.916V184.279H963.367V111.976Z" fill="#252827"/>
<path d="M992 441.585H876.567V111.75H992V112.201H877.018V441.133H992V441.585Z" fill="#252827"/>
<path d="M992 461.037H861.958V92.2976H992V92.7489H862.409V460.586H992V461.037Z" fill="#252827"/>
<path d="M862.385 92.4071L862.024 92.6781L876.617 112.132L876.977 111.861L862.385 92.4071Z" fill="#252827"/>
<path d="M876.615 441.226L862.025 460.682L862.386 460.953L876.975 441.496L876.615 441.226Z" fill="#252827"/>
<path d="M208.23 208.787L174.231 143.795L182.438 216.685C184.151 232.03 166.34 246.518 147.222 245.3L119.13 243.539L138.97 256.673C153.985 266.603 148.71 287.409 129.05 295.714L38.8684 333.896L134.912 315.031C155.879 310.924 171.887 325.186 164.988 341.84L155.879 363.82L178.154 346.579C193.305 334.844 216.211 336.875 223.38 350.551L257.379 415.543L249.172 342.652C247.459 327.307 265.27 312.819 284.388 314.038L312.48 315.798L292.64 302.664C292.324 302.438 292.009 302.258 291.738 302.032C274.874 289.711 289.439 264.481 314.058 262.811L416.55 255.906L395.402 186.762L306.618 238.53C285.29 250.986 259.092 238.259 266.172 218.581C266.307 218.22 266.442 217.904 266.577 217.543L275.686 195.563L253.411 212.759C238.26 224.493 215.354 222.507 208.23 208.787ZM215.535 280.052L215.129 279.917L215.399 279.556L215.67 279.195L216.076 279.33L216.481 279.466L216.211 279.827L215.94 280.188L215.535 280.052Z" fill="#D69A66"/>
<path d="M416.574 255.87C421.527 254.351 420.804 237.645 414.959 218.555C409.114 199.465 400.362 185.222 395.409 186.741C390.457 188.26 391.18 204.967 397.025 224.056C402.869 243.146 411.622 257.389 416.574 255.87Z" fill="#252827"/>
<path d="M275.477 195.389L155.703 363.718L156.07 363.98L275.844 195.651L275.477 195.389Z" fill="#252827"/>
<path d="M119.169 243.391L119.012 243.813L312.475 316.043L312.633 315.62L119.169 243.391Z" fill="#252827"/>
<path d="M174.395 143.771L173.964 143.903L257.158 415.631L257.589 415.499L174.395 143.771Z" fill="#252827"/>
<path d="M313.968 263.037C313.833 262.947 300.937 254.281 306.438 238.439L306.844 238.575C301.478 254.055 314.058 262.541 314.193 262.631L313.968 263.037Z" fill="#252827"/>
<path d="M306.096 251.734L38.7618 333.736L38.894 334.168L306.228 252.165L306.096 251.734Z" fill="#252827"/>
<path d="M322.49 265.745C322.4 263.624 319.199 260.555 313.878 257.305C313.878 257.305 321.588 244.668 318.161 242.095C313.652 238.71 310.225 246.112 310.225 246.112C310.225 246.112 314.825 240.831 310.902 238.304C306.979 235.776 304.86 243.269 304.86 243.269C308.557 237.04 303.687 234.693 300.937 236.363C300.937 236.363 289.393 255.409 292.55 258.975C297.51 264.572 303.687 267.37 303.687 267.37C303.687 267.37 268.336 318.37 286.778 340.711C305.265 363.052 342.736 362.601 342.736 362.601L349.951 342.246C349.951 342.246 319.965 344.548 308.151 325.998C296.337 307.448 322.986 275.539 322.49 265.745Z" fill="#E1593F"/>
<path d="M355.271 340.621C355.271 340.621 327.766 343.013 310.631 329.203L290.115 344.232C290.115 344.232 308.602 364.136 343.908 362.601L355.271 340.621Z" fill="#F1ECD3"/>
<path d="M305.446 256.447L305.04 256.267C306.573 252.927 311.623 243.539 311.668 243.449L312.074 243.675C312.029 243.765 306.979 253.108 305.446 256.447Z" fill="#252827"/>
<path d="M300.17 253.063L299.764 252.927C301.252 248.82 305.852 240.425 305.897 240.335L306.303 240.561C306.257 240.606 301.658 249.001 300.17 253.063Z" fill="#252827"/>
<path d="M317.606 333.786L297.716 350.922L298.01 351.265L317.9 334.128L317.606 333.786Z" fill="#252827"/>
<path d="M406.63 261.593C406.765 259.472 410.012 256.493 415.423 253.333C415.423 253.333 407.937 240.561 411.409 238.033C415.964 234.738 419.255 242.185 419.255 242.185C419.255 242.185 414.746 236.815 418.714 234.332C422.682 231.895 424.666 239.387 424.666 239.387C421.104 233.114 426.019 230.812 428.724 232.527C428.724 232.527 439.952 251.799 436.705 255.319C431.565 260.871 425.343 263.579 425.343 263.579C425.343 263.579 459.792 315.211 440.899 337.191C422.006 359.171 384.535 358.088 384.535 358.088L377.727 337.597C377.727 337.597 407.667 340.396 419.796 322.117C431.926 303.838 405.999 271.387 406.63 261.593Z" fill="#E1593F"/>
<path d="M376.96 336.424C376.96 336.424 400.001 338.726 417.361 325.231L437.607 340.621C437.607 340.621 419.345 360.886 382.551 360.615L376.96 336.424Z" fill="#F1ECD3"/>
<path d="M411.152 329.223L410.849 329.557L430.027 347.02L430.33 346.686L411.152 329.223Z" fill="#252827"/>
<path d="M423.809 252.611C422.321 249.226 417.452 239.793 417.407 239.703L417.812 239.477C417.857 239.568 422.727 249.001 424.215 252.386L423.809 252.611Z" fill="#252827"/>
<path d="M429.175 249.316C427.777 245.209 423.313 236.769 423.268 236.679L423.674 236.453C423.719 236.544 428.183 245.029 429.581 249.181L429.175 249.316Z" fill="#252827"/>
<path d="M329.434 406.471L405.232 395.91L379.215 338.996L350.086 343.194C350.086 343.194 334.169 369.732 329.434 406.471Z" fill="#F1ECD3"/>
<path d="M401.026 386.66L330.65 398.026L330.722 398.472L401.098 387.105L401.026 386.66Z" fill="#252827"/>
<path d="M340.887 362.691C340.887 362.691 352.611 362.691 354.911 354.026L383.633 348.61L395.312 374.2L334.079 383.227C334.033 383.227 337.325 369.687 340.887 362.691Z" fill="#D69A66"/>
<path d="M381.469 325.908C379.801 319.093 374.796 313.993 368.844 312.187L347.11 332.317C347.2 332.949 347.335 333.626 347.471 334.258C349.905 344.277 359.51 350.506 368.889 348.204C378.268 345.857 383.904 335.882 381.469 325.908Z" fill="#E1593F"/>
<path d="M350.221 329.383C350.221 329.383 369.069 326.811 368.799 312.187C368.799 312.187 375.743 314.263 378.989 320.086C378.989 320.086 375.382 308.622 367.265 307.9C359.059 307.178 341.473 314.534 347.02 332.272L350.221 329.383Z" fill="#252827"/>
<path d="M352.19 332.731C352.271 330.539 350.178 328.682 347.515 328.583C344.852 328.484 342.628 330.181 342.547 332.373C342.466 334.565 344.558 336.422 347.221 336.521C349.884 336.62 352.108 334.923 352.19 332.731Z" fill="#E1593F"/>
<path d="M345.036 333.851V333.4L349.364 333.219C347.741 331.008 345.396 331.279 345.306 331.324L345.261 330.872C345.306 330.872 348.237 330.466 349.996 333.31L350.221 333.626L345.036 333.851Z" fill="#252827"/>
<path d="M369.357 327.195C369.858 326.972 369.993 326.183 369.659 325.431C369.325 324.679 368.649 324.25 368.148 324.473C367.647 324.696 367.512 325.486 367.846 326.237C368.18 326.989 368.856 327.418 369.357 327.195Z" fill="#252827"/>
<path d="M376.037 324.247C376.537 324.024 376.673 323.234 376.339 322.483C376.005 321.731 375.328 321.302 374.828 321.525C374.327 321.748 374.192 322.538 374.526 323.289C374.86 324.041 375.536 324.47 376.037 324.247Z" fill="#252827"/>
<path d="M373.804 331.82L373.759 331.369C377.997 330.737 378.674 328.751 378.764 328.029C374.931 328.706 371.504 323.425 371.369 323.2L371.73 322.974C371.775 323.019 375.292 328.48 378.944 327.533L379.215 327.487V327.758C379.26 327.894 379.395 331.008 373.804 331.82Z" fill="#252827"/>
<path d="M348.192 336.74L348.147 336.289C348.192 336.289 350.492 336.108 351.303 334.573L351.709 334.799C350.762 336.559 348.282 336.695 348.192 336.74Z" fill="#252827"/>
<path d="M369.971 336.559C367.13 336.559 365.462 334.348 365.462 334.348L365.823 334.077C365.913 334.212 368.032 337.011 371.73 335.837L371.865 336.289C371.188 336.469 370.557 336.559 369.971 336.559Z" fill="#252827"/>
<path d="M364.244 335.341L364.199 334.889C364.244 334.889 365.778 334.619 366.093 333.129L366.544 333.219C366.093 335.025 364.244 335.341 364.244 335.341Z" fill="#252827"/>
<path d="M551.281 589.08C550.154 595.038 542.489 598.649 533.335 602.485C523.325 606.682 511.511 611.105 504.522 619.229C494.241 631.099 481.165 634.484 475.889 624.961C474.176 621.892 472.237 618.146 470.388 614.49C466.511 606.818 463.039 599.551 463.039 599.551L501.366 574.547C503.711 579.377 514.848 577.21 525.715 575.631C530.449 574.954 535.094 574.367 538.972 574.547C549.703 574.954 552.319 583.348 551.281 589.08Z" fill="#F1ECD3"/>
<path d="M504.522 619.229C494.241 631.099 481.165 634.484 475.889 624.961C474.176 621.892 472.237 618.146 470.388 614.49C470.388 614.445 496.316 602.169 504.522 619.229Z" fill="#6876D5"/>
<path d="M551.281 589.08C550.154 595.038 542.489 598.649 533.335 602.485C521.702 591.788 524.543 579.331 525.76 575.631C530.495 574.954 535.139 574.367 539.017 574.547C549.703 574.954 552.319 583.348 551.281 589.08Z" fill="#6876D5"/>
<path d="M192.583 485.319C192.358 479.271 199.031 474.035 207.148 468.258C215.985 461.985 226.492 455.034 231.542 445.556C238.937 431.745 250.976 425.517 258.191 433.641C260.535 436.259 263.241 439.508 265.856 442.668C271.312 449.302 276.317 455.621 276.317 455.621L244.438 488.478C241.056 484.281 230.685 488.839 220.449 492.811C215.985 494.526 211.567 496.106 207.779 496.783C197.228 498.723 192.809 491.096 192.583 485.319Z" fill="#F1ECD3"/>
<path d="M231.542 445.601C238.937 431.791 250.976 425.562 258.191 433.686C260.535 436.304 263.241 439.554 265.856 442.713C265.856 442.713 243.265 460.405 231.542 445.601Z" fill="#6876D5"/>
<path d="M192.583 485.319C192.358 479.271 199.031 474.035 207.148 468.258C220.855 476.112 220.81 488.929 220.495 492.811C216.031 494.526 211.612 496.106 207.824 496.783C197.228 498.723 192.809 491.096 192.583 485.319Z" fill="#6876D5"/>
<path d="M329.434 406.471C329.434 406.471 320.371 462.887 320.416 487.53L276.317 455.621L244.438 488.478C244.438 488.478 326.729 553.064 345.036 538.395C361.764 524.946 369.836 462.842 371.594 447.316C371.82 445.24 373.443 443.615 375.517 443.345C377.366 443.119 379.169 444.022 380.071 445.692L463.039 599.506L501.366 574.502L405.187 395.91L329.434 406.471Z" fill="#252827"/>
<path d="M368.573 433.461L363.974 401.687L364.425 401.596L368.979 432.919L381.785 429.85L375.066 400.152L375.517 400.017L382.326 430.211L368.573 433.461Z" fill="#F1ECD3"/>
<path d="M320.624 487.408L320.219 487.607L329.243 506L329.648 505.801L320.624 487.408Z" fill="#F1ECD3"/>
<path d="M382.981 346.738L382.571 346.926L388.797 360.552L389.207 360.365L382.981 346.738Z" fill="#252827"/>
<path d="M340.887 362.917V362.466C340.978 362.466 348.463 362.421 352.521 358.088C354.415 356.057 355.271 353.349 355.046 350.099L355.497 350.054C355.722 353.439 354.82 356.237 352.836 358.359C348.643 362.872 340.932 362.917 340.887 362.917Z" fill="#252827"/>
<path d="M249.939 554.057L241.642 569.447C241.642 569.447 225.274 583.529 243.852 589.306C250.66 591.427 278.211 615.077 287.996 614.219C297.735 613.362 295.841 600.905 283.532 590.84C275.28 584.115 281.187 567.461 281.187 567.461L249.939 554.057Z" fill="#F1ECD3"/>
<path d="M285.516 614.265L285.29 613.903C287.319 612.595 288.356 611.105 288.311 609.435C288.221 604.832 280.33 600.273 280.24 600.228L280.466 599.822C280.781 600.002 288.627 604.561 288.762 609.39C288.807 611.241 287.725 612.911 285.516 614.265Z" fill="#252827"/>
<path d="M293.497 611.511L293.091 611.286C296.292 605.644 285.831 598.919 285.741 598.874L285.967 598.513C286.463 598.784 296.879 605.509 293.497 611.511Z" fill="#252827"/>
<path d="M211.071 601.04L213.821 618.327C213.821 618.327 206.652 634.259 226.131 634.845C241.507 635.297 273.071 643.06 280.285 636.425C287.5 629.79 283.261 623.652 261.843 617.334C250.931 614.084 244.032 592.781 244.032 592.781L211.071 601.04Z" fill="#F1ECD3"/>
<path d="M277.535 638.23L277.174 638.005C278.436 635.929 278.707 634.168 277.94 632.634C275.866 628.527 266.803 627.85 266.713 627.85L266.758 627.398C267.164 627.443 276.182 628.12 278.391 632.453C279.158 634.078 278.887 636.019 277.535 638.23Z" fill="#252827"/>
<path d="M283.577 631.37L283.126 631.325C283.216 630.061 282.81 628.933 281.953 627.985C278.932 624.6 271.177 624.239 271.087 624.239V623.788C271.402 623.788 279.113 624.194 282.269 627.669C283.216 628.752 283.667 629.971 283.577 631.37Z" fill="#252827"/>
<path d="M154.617 438.696L230.415 428.135L204.397 371.222L175.268 375.419C175.268 375.374 159.306 401.912 154.617 438.696Z" fill="#6876D5"/>
<path d="M176.711 372.892C176.711 372.892 125.984 390.178 121.7 341.253L98.5237 340.892C98.5237 340.892 97.4415 420.417 179.281 390.132L176.711 372.892Z" fill="#6876D5"/>
<path d="M102.492 317.829C108.714 317.919 115.252 318.551 116.785 320.04C119.807 322.974 121.204 336.514 121.655 341.298L98.4786 340.937L98.8393 331.685C98.8393 331.685 92.0757 332.407 84.9513 330.105C80.3971 328.661 80.6677 306.365 80.6677 306.365C82.2008 303.521 87.5666 303.07 87.5666 310.292C87.5666 310.292 85.5826 302.754 90.2269 302.935C94.8713 303.115 93.6088 310.021 93.6088 310.021C93.6088 310.021 92.7971 301.897 98.3884 302.529C102.717 303.025 102.492 317.829 102.492 317.829Z" fill="#F1ECD3"/>
<path d="M94.3302 321.394C93.9695 317.739 93.5637 307.087 93.5637 306.997H94.0146C94.0146 307.087 94.4204 317.693 94.7811 321.394H94.3302Z" fill="#252827"/>
<path d="M88.0626 321.214C87.2509 316.926 86.9804 307.313 86.9353 307.223H87.3862C87.3862 307.313 87.6568 316.881 88.4684 321.124L88.0626 321.214Z" fill="#252827"/>
<path d="M204.397 371.222C204.397 371.222 255.665 388.192 257.74 339.132L280.871 337.733C280.871 337.733 285.561 417.122 202.413 390.584L204.397 371.222Z" fill="#6876D5"/>
<path d="M275.866 314.805C269.644 315.166 263.151 316.114 261.663 317.648C258.777 320.717 257.83 331.82 257.74 339.087L280.871 337.687L280.105 328.48C280.105 328.48 286.868 328.886 293.903 326.269C298.367 324.599 297.104 302.348 297.104 302.348C295.436 299.595 290.025 299.369 290.386 306.591C290.386 306.591 292.009 299.008 287.364 299.369C282.72 299.73 284.298 306.591 284.298 306.591C284.298 306.591 284.749 298.467 279.203 299.324C274.964 300.001 275.866 314.805 275.866 314.805Z" fill="#F1ECD3"/>
<path d="M284.388 318.416H283.938C283.983 314.624 283.892 303.115 283.892 303.025H284.343C284.343 303.115 284.434 314.624 284.388 318.416Z" fill="#252827"/>
<path d="M290.746 318.37C290.611 313.631 290.431 303.612 290.431 303.522H290.881C290.881 303.612 291.107 313.631 291.197 318.37H290.746Z" fill="#252827"/>
<path d="M280.529 347.172L256.494 348.631L256.521 349.082L280.557 347.622L280.529 347.172Z" fill="#252827"/>
<path d="M122.884 348.978L99.2607 350.528L99.2901 350.979L122.913 349.429L122.884 348.978Z" fill="#252827"/>
<path d="M190.735 386.747C178.154 386.747 176.486 373.884 176.486 373.749L176.937 373.704C176.982 374.245 178.74 387.334 192.313 386.206C196.506 385.845 199.617 384.4 201.692 381.783C205.119 377.405 204.217 371.267 204.217 371.221L204.668 371.131C204.668 371.176 205.615 377.495 202.097 382.053C199.978 384.761 196.732 386.296 192.403 386.657C191.772 386.702 191.276 386.747 190.735 386.747Z" fill="#252827"/>
<path d="M182.025 374.495L179.423 380.891L179.841 381.061L182.442 374.666L182.025 374.495Z" fill="#252827"/>
<path d="M187.003 375.707L184.804 385.343L185.244 385.443L187.443 375.807L187.003 375.707Z" fill="#252827"/>
<path d="M192.538 376.141H192.087V386.431H192.538V376.141Z" fill="#252827"/>
<path d="M197.474 374.55L197.042 374.678L199.753 383.853L200.185 383.725L197.474 374.55Z" fill="#252827"/>
<path d="M180.183 409.043C176.26 409.043 172.563 406.606 170.444 402.589L170.849 402.363C173.149 406.741 177.388 409.179 181.626 408.456C185.865 407.779 189.156 404.169 189.968 399.249L190.419 399.34C189.562 404.44 186.18 408.186 181.716 408.908C181.22 408.998 180.724 409.043 180.183 409.043Z" fill="#252827"/>
<path d="M205.073 405.207C201.151 405.207 197.453 402.77 195.334 398.753L195.74 398.527C198.039 402.905 202.278 405.342 206.516 404.62C210.755 403.943 214.047 400.332 214.858 395.413L215.309 395.503C214.452 400.603 211.071 404.349 206.607 405.072C206.111 405.207 205.615 405.207 205.073 405.207Z" fill="#252827"/>
<path d="M209.086 380.887L208.675 381.075L212.707 389.899L213.117 389.711L209.086 380.887Z" fill="#252827"/>
<path d="M227.117 420.863L155.793 430.436L155.853 430.883L227.177 421.31L227.117 420.863Z" fill="#252827"/>
<path d="M162.026 429.808L161.578 429.857L162.419 437.574L162.867 437.525L162.026 429.808Z" fill="#252827"/>
<path d="M171.659 428.514L171.211 428.568L172.139 436.23L172.586 436.176L171.659 428.514Z" fill="#252827"/>
<path d="M182.828 427.008L182.381 427.071L183.449 434.623L183.896 434.56L182.828 427.008Z" fill="#252827"/>
<path d="M194.279 425.477L193.833 425.547L194.997 433.039L195.443 432.969L194.279 425.477Z" fill="#252827"/>
<path d="M204.619 424.093L204.171 424.149L205.108 431.628L205.555 431.571L204.619 424.093Z" fill="#252827"/>
<path d="M214.415 422.817L213.967 422.87L214.845 430.31L215.293 430.257L214.415 422.817Z" fill="#252827"/>
<path d="M223.721 421.519L223.278 421.606L224.711 428.914L225.154 428.827L223.721 421.519Z" fill="#252827"/>
<path d="M206.652 358.088C204.983 351.273 199.978 346.173 194.026 344.367L172.247 364.452C172.337 365.084 172.473 365.761 172.608 366.392C175.043 376.412 184.647 382.64 194.026 380.339C203.45 378.082 209.087 368.107 206.652 358.088Z" fill="#F1ECD3"/>
<path d="M193.981 344.367C193.35 359.848 172.518 364.722 172.518 364.722L172.202 364.452C170.849 355.109 176.351 346.263 185.143 344.096C188.209 343.374 191.185 343.51 193.981 344.367Z" fill="#252827"/>
<path d="M177.944 348.21C180.446 344.731 178.346 338.935 173.253 335.265C168.159 331.596 162.002 331.442 159.5 334.921C156.997 338.401 159.098 344.197 164.191 347.866C169.284 351.536 175.442 351.69 177.944 348.21Z" fill="#252827"/>
<path d="M177.36 364.915C177.441 362.723 175.348 360.866 172.685 360.768C170.023 360.669 167.798 362.366 167.717 364.558C167.636 366.75 169.729 368.607 172.391 368.706C175.054 368.804 177.279 367.107 177.36 364.915Z" fill="#F1ECD3"/>
<path d="M170.218 366.031V365.58L174.547 365.399C172.924 363.188 170.489 363.504 170.489 363.504L170.444 363.052C170.489 363.052 173.42 362.646 175.178 365.49L175.404 365.806L170.218 366.031Z" fill="#252827"/>
<path d="M194.55 359.416C195.051 359.193 195.186 358.403 194.852 357.652C194.518 356.9 193.842 356.471 193.341 356.694C192.841 356.917 192.705 357.707 193.039 358.458C193.373 359.21 194.05 359.639 194.55 359.416Z" fill="#252827"/>
<path d="M201.212 356.426C201.712 356.204 201.848 355.414 201.514 354.662C201.18 353.91 200.504 353.482 200.003 353.704C199.502 353.927 199.367 354.717 199.701 355.469C200.035 356.22 200.711 356.649 201.212 356.426Z" fill="#252827"/>
<path d="M198.986 364L198.941 363.549C203.18 362.917 203.856 360.931 203.946 360.209C200.113 360.886 196.687 355.606 196.551 355.38L196.912 355.154C196.957 355.199 200.474 360.66 204.127 359.713L204.397 359.668V359.938C204.442 360.074 204.577 363.188 198.986 364Z" fill="#252827"/>
<path d="M173.375 368.92L173.329 368.469C173.375 368.469 175.674 368.288 176.486 366.753L176.892 366.979C175.945 368.739 173.465 368.92 173.375 368.92Z" fill="#252827"/>
<path d="M203.27 350.912C196.777 351.047 194.071 344.503 194.026 344.367C197.633 345.451 200.88 347.752 203.27 350.912Z" fill="#252827"/>
<path d="M195.153 368.739C192.313 368.739 190.644 366.528 190.644 366.528L191.005 366.257C191.095 366.392 193.215 369.191 196.912 368.017L197.047 368.468C196.371 368.649 195.74 368.739 195.153 368.739Z" fill="#252827"/>
<path d="M189.382 367.521L189.337 367.069C189.382 367.069 190.915 366.798 191.231 365.309L191.681 365.399C191.276 367.205 189.427 367.521 189.382 367.521Z" fill="#252827"/>
<path d="M154.617 438.696C154.617 438.696 154.301 466.498 173.375 480.083L211.116 601.086L244.122 592.826L216.121 477.781L265.135 507.208L249.984 554.102L281.232 567.597C281.232 567.597 307.881 506.847 302.38 494.977C297.059 483.558 235.735 441.855 235.735 441.855L230.369 428.09L154.617 438.696Z" fill="#D69A66"/>
<path d="M215.895 477.781L214.272 471.056L214.407 470.966C214.497 470.876 224.372 463.655 226.988 456.569L227.393 456.704C224.868 463.474 215.895 470.334 214.768 471.192L216.346 477.601L215.895 477.781Z" fill="#252827"/>
<path d="M767.447 534.965H721.455V622.524H767.447V534.965Z" fill="#D69A66"/>
<path d="M767.402 566.198L721.455 575.36V534.965H767.402V566.198Z" fill="#252827"/>
<path d="M954.214 559.383H537.935L565.215 487.35L565.891 485.544L623.697 332.903L624.644 330.376L643.673 280.097L644.439 278.112L656.343 246.699C601.783 276.487 588.842 246.383 600.16 222.552C605.481 211.359 628.071 166.361 650.572 121.77C650.842 121.228 651.158 120.641 651.428 120.055C676.589 70.2275 701.344 21.3932 701.344 21.3932C701.344 21.3932 743.143 71.3107 782.598 122.537C783.184 123.304 783.77 124.072 784.356 124.839C791.12 133.685 797.839 142.531 804.196 151.106C804.557 151.603 804.918 152.099 805.324 152.596C833.956 191.456 855.871 225.26 850.144 231.083C835.67 245.751 807.308 231.218 806.992 231.083C807.443 231.624 841.036 270.213 869.849 310.021C870.209 310.562 870.615 311.059 870.976 311.601C898.977 350.415 921.974 389.997 905.11 396.271C870.57 409.089 846.492 379.12 846.492 379.12L896.182 462.165L897.129 463.79L954.214 559.383Z" fill="#2E473D"/>
<path d="M656.343 246.789C656.343 246.789 686.329 225.396 694.896 190.914C694.896 190.914 712.031 232.978 732.366 232.753C752.702 232.527 752.703 185.904 752.703 185.904C752.703 185.904 777.683 220.251 806.947 231.218L827.193 255.319C827.193 255.319 782.688 248.73 764.471 224.042C764.471 224.042 756.986 258.388 733.449 258.343C709.911 258.298 697.06 222.146 697.06 222.146C697.06 222.146 686.509 265.565 648.452 267.821L656.343 246.789Z" fill="#252827"/>
<path d="M611.388 365.399C611.388 365.399 622.705 418.025 671.313 323.019C671.313 323.019 688.448 387.56 716.269 379.662C744.09 371.763 751.575 315.076 751.575 315.076C751.575 315.076 768.71 392.931 787.964 383.949C807.217 374.968 802.934 322.974 802.934 322.974C802.934 322.974 828.996 365.264 846.401 379.21L860.154 402.183C860.154 402.183 827.012 390.764 814.748 371.538C814.748 371.538 802.979 421.049 782.643 413.557C762.307 406.065 753.74 359.983 753.74 359.983C753.74 359.983 738.769 406.922 710.948 402.228C683.127 397.489 669.194 352.762 669.194 352.762C669.194 352.762 621.082 453.771 601.783 390.81L611.388 365.399Z" fill="#252827"/>
<path d="M805.233 152.686C796.711 156.703 788.234 159.817 779.757 162.029C779.081 162.209 778.449 162.39 777.773 162.525C768.079 164.917 758.429 166.136 748.825 166.181H748.329C727.677 166.181 707.341 160.765 687.817 150.023C672.215 141.448 659.59 130.796 650.572 121.815C650.842 121.273 651.158 120.687 651.428 120.1C660.401 129.081 673.027 139.823 688.764 148.444C710.407 160.314 741.204 169.747 778.314 160.404C778.945 160.223 779.622 160.088 780.253 159.907C787.964 157.831 795.945 154.988 804.151 151.152C804.512 151.693 804.873 152.19 805.233 152.686Z" fill="#F1ECD3"/>
<path d="M784.311 124.929C784.266 127.096 784.176 129.307 784.041 131.564C783.59 139.823 782.463 149.527 780.208 159.998C780.073 160.675 779.892 161.397 779.757 162.074C775.789 179.134 768.665 197.91 756.084 215.467C732.321 248.594 694.58 270.304 643.718 280.188L644.484 278.202C694.31 268.273 731.329 246.879 754.641 214.429C766.861 197.413 773.895 179.179 777.818 162.57C777.999 161.893 778.134 161.171 778.314 160.494C780.704 149.843 781.831 139.959 782.327 131.519C782.508 128.45 782.598 125.471 782.598 122.627C783.094 123.395 783.725 124.162 784.311 124.929Z" fill="#F1ECD3"/>
<path d="M897.084 463.926C869.533 471.057 843.516 474.667 819.121 474.667C783.229 474.667 750.854 466.904 722.221 451.424C721.545 451.063 720.868 450.701 720.192 450.295C719.696 450.024 719.245 449.754 718.794 449.483C698.909 438.154 680.918 422.944 665.271 404.304C652.781 389.365 641.779 372.215 632.58 353.259C629.108 346.128 626.177 339.312 623.697 332.949L624.644 330.421C627.26 337.236 630.416 344.728 634.249 352.491C648.633 382.009 675.101 422.538 719.696 447.903C720.508 448.355 721.319 448.806 722.176 449.257C722.852 449.618 723.529 449.979 724.205 450.34C771.505 475.525 829.177 479.497 896.137 462.256L897.084 463.926Z" fill="#F1ECD3"/>
<path d="M870.931 311.736C844.959 353.168 814.161 387.876 779.171 415.227C761.856 428.767 743.459 440.546 724.16 450.386C723.529 450.747 722.852 451.063 722.221 451.378C705.898 459.638 688.899 466.543 671.404 472.05C636.774 482.972 606.337 486.312 586.948 487.214C582.169 487.44 577.84 487.53 573.917 487.53C570.671 487.53 567.74 487.485 565.215 487.395L565.891 485.59C585.235 486.176 624.509 484.958 670.953 470.334C686.058 465.55 702.742 459.096 720.237 450.295C720.868 449.979 721.545 449.618 722.176 449.302C770.333 424.705 824.487 382.505 869.804 310.156C870.164 310.653 870.525 311.194 870.931 311.736Z" fill="#F1ECD3"/>
<path d="M858.125 361.021H857.674V374.381H858.125V361.021Z" fill="#252827"/>
<path d="M861.462 370.77H854.337V385.529H861.462V370.77Z" fill="#252827"/>
<path d="M857.9 415.001C869.106 415.001 878.19 405.908 878.19 394.691C878.19 383.474 869.106 374.381 857.9 374.381C846.693 374.381 837.609 383.474 837.609 394.691C837.609 405.908 846.693 415.001 857.9 415.001Z" fill="#E1593F"/>
<path d="M844.372 402.77C840.54 402.77 837.518 395.097 837.383 394.781L837.338 394.691L837.383 394.601C837.518 394.285 840.494 386.612 844.372 386.612C848.205 386.612 851.226 394.285 851.361 394.601L851.406 394.691L851.361 394.781C851.226 395.097 848.205 402.77 844.372 402.77ZM837.834 394.691C838.15 395.503 841.036 402.318 844.372 402.318C847.709 402.318 850.55 395.503 850.91 394.691C850.595 393.879 847.709 387.063 844.372 387.063C841.036 387.063 838.195 393.879 837.834 394.691Z" fill="#F1ECD3"/>
<path d="M857.9 402.77C854.067 402.77 851.046 395.097 850.911 394.781L850.865 394.691L850.911 394.601C851.046 394.285 854.022 386.612 857.9 386.612C861.732 386.612 864.753 394.285 864.889 394.601L864.934 394.691L864.889 394.781C864.753 395.097 861.732 402.77 857.9 402.77ZM851.361 394.691C851.677 395.503 854.563 402.318 857.9 402.318C861.236 402.318 864.077 395.503 864.438 394.691C864.122 393.879 861.236 387.063 857.9 387.063C854.563 387.063 851.722 393.879 851.361 394.691Z" fill="#F1ECD3"/>
<path d="M871.427 402.77C867.594 402.77 864.573 395.097 864.438 394.781L864.393 394.691L864.438 394.601C864.573 394.285 867.549 386.612 871.427 386.612C875.305 386.612 878.281 394.285 878.416 394.601L878.461 394.691L878.416 394.781C878.281 395.097 875.26 402.77 871.427 402.77ZM864.889 394.691C865.204 395.503 868.09 402.318 871.427 402.318C874.764 402.318 877.604 395.503 877.965 394.691C877.649 393.879 874.764 387.063 871.427 387.063C868.09 387.063 865.249 393.879 864.889 394.691Z" fill="#F1ECD3"/>
<path d="M793.871 433.461H793.42V446.82H793.871V433.461Z" fill="#252827"/>
<path d="M797.207 443.209H790.083V457.968H797.207V443.209Z" fill="#252827"/>
<path d="M817.543 480.76C817.273 479.767 816.912 478.774 816.416 477.781C814.748 474.532 811.817 471.688 807.804 470.064C805.549 469.161 803.791 467.491 802.393 465.595C802.077 465.144 801.762 464.693 801.446 464.196C800.86 463.203 800.319 462.211 799.913 461.218C799.687 460.766 799.507 460.27 799.327 459.818C798.786 458.464 798.425 457.201 798.154 456.163C798.109 456.027 798.199 455.937 798.29 455.847C800.183 454.989 801.446 453.59 801.446 452.01C801.446 449.393 798.109 447.271 793.961 447.271C789.812 447.271 786.476 449.393 786.476 452.01C786.476 453.59 787.693 454.989 789.632 455.847C789.767 455.892 789.812 456.027 789.767 456.163C789.497 457.201 789.091 458.51 788.55 459.909C788.37 460.36 788.189 460.856 787.964 461.308C787.513 462.301 786.972 463.339 786.386 464.332C786.07 464.828 785.754 465.28 785.439 465.731C784.041 467.581 782.282 469.161 780.118 470.064C775.699 471.869 772.588 475.119 771.055 478.82C770.739 479.542 770.514 480.309 770.333 481.076C769.161 486.267 771.01 491.818 776.781 495.113C778.765 496.286 780.659 497.821 782.418 499.581C786.791 504.004 790.263 509.646 792.202 513.211C792.969 514.61 794.998 514.61 795.764 513.211C797.658 509.781 800.95 504.365 805.098 500.032C806.947 498.092 809.021 496.331 811.186 495.113C817.047 491.728 818.896 485.996 817.543 480.76Z" fill="#6876D5"/>
<path d="M783.532 471.938L783.201 472.245L789.399 478.927L789.729 478.62L783.532 471.938Z" fill="#252827"/>
<path d="M799.513 485.604L791.238 491.557L791.501 491.923L799.776 485.971L799.513 485.604Z" fill="#252827"/>
<path d="M806.996 478.079L806.771 478.471L813.023 482.075L813.248 481.684L806.996 478.079Z" fill="#252827"/>
<path d="M802.227 470.165L793.61 471.918L793.7 472.36L802.317 470.608L802.227 470.165Z" fill="#252827"/>
<path d="M806.019 493.251L805.821 493.656L810.273 495.844L810.472 495.439L806.019 493.251Z" fill="#252827"/>
<path d="M781.999 484.539L772.986 485.856L773.051 486.302L782.064 484.986L781.999 484.539Z" fill="#252827"/>
<path d="M788.698 499.851L784.901 502.285L785.144 502.665L788.942 500.231L788.698 499.851Z" fill="#252827"/>
<path d="M794.571 505.608L794.354 506.003L798.581 508.33L798.798 507.935L794.571 505.608Z" fill="#252827"/>
<path d="M788.646 459.627L788.465 460.04L792.677 461.89L792.858 461.476L788.646 459.627Z" fill="#252827"/>
<path d="M801.356 451.812L795.457 452.604L795.517 453.051L801.416 452.259L801.356 451.812Z" fill="#252827"/>
<path d="M658.868 166.858H658.417V180.217H658.868V166.858Z" fill="#252827"/>
<path d="M662.16 176.607H655.036V191.365H662.16V176.607Z" fill="#252827"/>
<path d="M667.165 203.958C666.669 203.055 666.173 202.242 665.722 201.43C665.632 201.25 665.542 201.114 665.452 200.934C663.558 197.323 662.431 194.48 661.799 192.403C664.865 191.41 667.075 189.064 667.075 186.31C667.075 182.655 663.287 179.721 658.643 179.721C653.999 179.721 650.211 182.655 650.211 186.31C650.211 189.064 652.375 191.41 655.487 192.403C654.765 194.615 653.503 197.819 651.338 201.836C651.248 201.972 651.203 202.107 651.113 202.242C650.797 202.784 650.481 203.371 650.166 203.912C646.919 209.464 642.906 216.866 645.612 230.406C646.017 232.527 646.784 234.829 647.686 237.085C649.399 241.283 651.699 245.435 653.728 248.865C655.983 252.566 661.348 252.566 663.648 248.865C665.993 244.984 668.653 240.109 670.367 235.325C670.953 233.655 671.449 231.985 671.764 230.406C674.425 216.956 670.412 209.509 667.165 203.958Z" fill="#D69A66"/>
<path d="M658.643 251.934V251.483C660.988 251.483 663.197 246.247 664.956 242.05C665.361 241.057 665.767 240.109 666.128 239.297C667.3 236.769 668.157 234.422 668.698 232.346C672.486 217.768 668.653 209.915 666.128 204.725C665.812 204.138 665.542 203.506 665.271 202.965C665.181 202.829 665.136 202.649 665.091 202.513C663.513 198.993 662.34 195.653 661.619 192.584L661.574 192.448L661.709 192.358C661.754 192.313 665.226 189.695 665.226 186.446C665.226 183.196 662.205 180.082 659.049 180.082V179.631C662.521 179.631 665.677 182.88 665.677 186.446C665.677 189.65 662.746 192.133 662.115 192.629C662.836 195.608 663.964 198.903 665.542 202.333C665.587 202.468 665.677 202.603 665.722 202.784C665.993 203.371 666.263 203.957 666.579 204.544C669.149 209.78 673.027 217.723 669.194 232.482C668.653 234.603 667.751 236.95 666.624 239.523C666.263 240.335 665.857 241.283 665.452 242.276C663.423 246.744 661.258 251.934 658.643 251.934Z" fill="#F1ECD3"/>
<path d="M658.643 251.934C655.983 251.934 653.818 246.789 651.924 242.231C651.519 241.238 651.113 240.29 650.752 239.477C649.58 236.905 648.723 234.558 648.182 232.437C644.349 217.678 648.227 209.735 650.797 204.499C651.113 203.912 651.383 203.326 651.654 202.739C651.744 202.603 651.789 202.468 651.834 202.288C653.412 198.812 654.54 195.563 655.261 192.584C654.63 192.087 651.699 189.56 651.699 186.401C651.699 182.835 654.855 179.585 658.327 179.585V180.037C655.126 180.037 652.15 183.106 652.15 186.401C652.15 189.65 655.622 192.313 655.667 192.313L655.802 192.403L655.757 192.539C655.036 195.608 653.863 198.948 652.285 202.468C652.24 202.603 652.15 202.784 652.105 202.919C651.834 203.506 651.564 204.093 651.248 204.68C648.723 209.87 644.845 217.723 648.678 232.301C649.219 234.377 650.076 236.724 651.248 239.252C651.609 240.064 652.015 241.012 652.42 242.005C654.179 246.202 656.388 251.438 658.733 251.438V251.934H658.643Z" fill="#F1ECD3"/>
<path d="M658.598 251.934C657.516 251.934 656.524 250.851 655.983 249.001C654.72 244.758 653.728 240.786 653.052 237.221C652.556 234.784 652.24 232.527 652.015 230.541C650.662 216.505 652.826 208.967 654.224 203.957C654.404 203.371 654.54 202.829 654.675 202.288C654.72 202.152 654.765 202.017 654.765 201.881C655.622 198.587 656.298 195.472 656.749 192.629C655.216 191.546 654.224 189.109 654.224 186.401C654.224 182.655 656.163 179.585 658.553 179.585C660.943 179.585 662.881 182.655 662.881 186.401C662.881 189.109 661.889 191.501 660.356 192.629C660.762 195.202 661.348 198 662.115 200.979L662.25 201.475C662.476 202.288 662.701 203.145 662.927 204.003C664.369 209.012 666.489 216.55 665.136 230.586C665.001 232.076 664.775 233.745 664.46 235.506C663.738 239.523 662.656 244.081 661.168 249.046C660.672 250.806 659.725 251.934 658.598 251.934ZM658.643 179.992C656.524 179.992 654.765 182.835 654.765 186.355C654.765 188.973 655.712 191.275 657.2 192.268L657.335 192.358V192.494C656.884 195.382 656.208 198.587 655.306 201.926C655.261 202.062 655.216 202.197 655.216 202.333C655.081 202.874 654.9 203.461 654.765 204.003C653.367 208.967 651.203 216.459 652.556 230.406C652.736 232.391 653.097 234.648 653.548 237.04C654.224 240.606 655.216 244.532 656.479 248.775C656.975 250.4 657.786 251.393 658.643 251.393C659.545 251.393 660.356 250.4 660.807 248.775C662.25 243.81 663.377 239.252 664.054 235.28C664.369 233.52 664.595 231.895 664.73 230.406C666.083 216.459 663.964 208.967 662.521 204.003C662.295 203.145 662.025 202.288 661.844 201.475L661.709 200.979C660.943 197.955 660.311 195.066 659.905 192.448V192.313L660.041 192.223C661.529 191.23 662.476 188.928 662.476 186.31C662.476 182.835 660.762 179.992 658.643 179.992Z" fill="#F1ECD3"/>
<path d="M661.799 192.223H655.441V192.674H661.799V192.223Z" fill="#F1ECD3"/>
<path d="M749.636 269.536H749.185V282.896H749.636V269.536Z" fill="#252827"/>
<path d="M752.973 279.285H745.849V294.044H752.973V279.285Z" fill="#252827"/>
<path d="M760.503 310.833C766.185 308.216 769.972 303.612 769.972 298.422C769.972 290.252 760.774 283.663 749.411 283.663C738.048 283.663 728.849 290.252 728.849 298.422C728.849 303.657 732.637 308.216 738.319 310.833C732.637 313.451 728.849 318.055 728.849 323.245C728.849 330.195 739.716 335.521 746.345 348.836C747.607 351.318 751.169 351.318 752.432 348.836C759.105 335.566 769.927 330.195 769.927 323.245C769.972 318.055 766.185 313.496 760.503 310.833Z" fill="#F1ECD3"/>
<path d="M767.988 291.877H730.833V292.329H767.988V291.877Z" fill="#E1593F"/>
<path d="M769.025 302.529H729.751V302.98H769.025V302.529Z" fill="#E1593F"/>
<path d="M764.652 313.18H734.125V313.632H764.652V313.18Z" fill="#E1593F"/>
<path d="M769.927 323.832H728.895V324.283H769.927V323.832Z" fill="#E1593F"/>
<path d="M762.758 334.483H736.064V334.934H762.758V334.483Z" fill="#E1593F"/>
<path d="M754.416 345.18H744.451V345.631H754.416V345.18Z" fill="#E1593F"/>
<path d="M812.223 216.279C816.083 216.279 819.212 213.147 819.212 209.283C819.212 205.42 816.083 202.288 812.223 202.288C808.363 202.288 805.234 205.42 805.234 209.283C805.234 213.147 808.363 216.279 812.223 216.279Z" fill="#F1ECD3"/>
<path d="M806.857 290.659C810.717 290.659 813.846 287.527 813.846 283.663C813.846 279.799 810.717 276.667 806.857 276.667C802.997 276.667 799.868 279.799 799.868 283.663C799.868 287.527 802.997 290.659 806.857 290.659Z" fill="#F1ECD3"/>
<path d="M837.609 442.668C841.469 442.668 844.598 439.536 844.598 435.672C844.598 431.808 841.469 428.676 837.609 428.676C833.749 428.676 830.62 431.808 830.62 435.672C830.62 439.536 833.749 442.668 837.609 442.668Z" fill="#F1ECD3"/>
<path d="M730.969 120.145C734.829 120.145 737.958 117.013 737.958 113.149C737.958 109.286 734.829 106.154 730.969 106.154C727.109 106.154 723.98 109.286 723.98 113.149C723.98 117.013 727.109 120.145 730.969 120.145Z" fill="#F1ECD3"/>
<path d="M638.352 458.464C642.212 458.464 645.341 455.332 645.341 451.469C645.341 447.605 642.212 444.473 638.352 444.473C634.492 444.473 631.363 447.605 631.363 451.469C631.363 455.332 634.492 458.464 638.352 458.464Z" fill="#F1ECD3"/>
<path d="M834.137 541.961C837.997 541.961 841.126 538.829 841.126 534.965C841.126 531.102 837.997 527.97 834.137 527.97C830.277 527.97 827.148 531.102 827.148 534.965C827.148 538.829 830.277 541.961 834.137 541.961Z" fill="#F1ECD3"/>
<path d="M730.969 514.159C734.829 514.159 737.958 511.027 737.958 507.163C737.958 503.3 734.829 500.167 730.969 500.167C727.109 500.167 723.98 503.3 723.98 507.163C723.98 511.027 727.109 514.159 730.969 514.159Z" fill="#F1ECD3"/>
<path d="M613.417 639.088H620.586L725.738 281.632H718.614L613.417 639.088Z" fill="#F1ECD3"/>
<path d="M547.178 639.088H554.303L659.5 281.632H652.375L547.178 639.088Z" fill="#F1ECD3"/>
<path d="M711.715 329.293L713.834 322.162H640.471L638.352 329.293H711.715Z" fill="#F1ECD3"/>
<path d="M687.05 413.15L689.169 406.019H615.761L613.687 413.15H687.05Z" fill="#F1ECD3"/>
<path d="M662.385 497.008L664.46 489.832H591.097L589.023 497.008H662.385Z" fill="#F1ECD3"/>
<path d="M637.721 580.821L639.795 573.69H566.432L564.313 580.821H637.721Z" fill="#F1ECD3"/>
<path d="M378.268 17.2409C383.679 14.8488 388.368 37.5509 383.228 39.8527C377.952 42.1996 363.974 23.6047 370.873 20.5356C373.037 19.5427 376.013 18.2338 378.268 17.2409Z" fill="#E1593F"/>
<path d="M378.268 17.2409L374.48 11.5992L369.25 13.9462L370.873 20.4905L378.268 17.2409Z" fill="#252827"/>
<path d="M289.078 50.0529C294.489 47.6608 299.178 70.3629 294.038 72.6647C288.762 75.0116 274.784 56.4167 281.683 53.3476C283.847 52.3998 286.823 51.0909 289.078 50.0529Z" fill="#E1593F"/>
<path d="M289.078 50.0528L285.29 44.4563L280.06 46.8032L281.683 53.3476L289.078 50.0528Z" fill="#252827"/>
<path d="M199.888 82.9099C205.299 80.5179 209.988 103.22 204.848 105.522C199.572 107.869 185.594 89.2737 192.493 86.2047C194.657 85.2569 197.633 83.948 199.888 82.9099Z" fill="#E1593F"/>
<path d="M199.888 82.9099L196.1 77.3134L190.87 79.6603L192.493 86.2046L199.888 82.9099Z" fill="#252827"/>
<path d="M110.698 115.767C116.109 113.375 120.799 136.077 115.658 138.379C110.383 140.726 96.4044 122.131 103.303 119.062C105.468 118.114 108.444 116.76 110.698 115.767Z" fill="#E1593F"/>
<path d="M110.698 115.767L106.911 110.17L101.635 112.472L103.303 119.062L110.698 115.767Z" fill="#252827"/>
<path d="M21.5084 148.624C26.9193 146.232 31.6087 168.934 26.4684 171.236C21.1927 173.583 7.21456 154.988 14.1135 151.919C16.2778 150.971 19.2538 149.617 21.5084 148.624Z" fill="#E1593F"/>
<path d="M21.5084 148.624L17.7207 143.028L12.4451 145.329L14.1135 151.919L21.5084 148.624Z" fill="#252827"/>
<path d="M409.245 0L0 149.933V147.992L403.969 0H409.245Z" fill="#F1ECD3"/>
<path d="M888.967 111.073C894.468 113.149 881.843 132.647 876.567 130.616C871.156 128.585 874.358 105.522 881.392 108.185C883.601 109.042 886.668 110.216 888.967 111.073Z" fill="#E1593F"/>
<path d="M888.967 111.073L890.23 104.438L884.864 102.407L881.437 108.23L888.967 111.073Z" fill="#252827"/>
<path d="M972.566 127.05C978.473 127.276 972.746 149.752 967.11 149.527C961.338 149.301 956.964 126.464 964.54 126.734C966.839 126.825 970.086 126.96 972.566 127.05Z" fill="#E1593F"/>
<path d="M972.566 127.05L971.619 120.371L965.892 120.145L964.495 126.779L972.566 127.05Z" fill="#252827"/>
<path d="M819.888 73.8382C824.713 77.2232 807.623 92.9296 803.024 89.68C798.29 86.3401 807.127 64.8115 813.305 69.1895C815.199 70.5435 817.859 72.4391 819.888 73.8382Z" fill="#E1593F"/>
<path d="M819.888 73.8381L822.729 67.7L818.084 64.4053L813.305 69.1894L819.888 73.8381Z" fill="#252827"/>
<path d="M761.225 20.5356C765.012 25.0489 744.496 35.8358 740.844 31.503C737.146 27.0799 751.169 8.53014 756.039 14.3072C757.527 16.1125 759.601 18.64 761.225 20.5356Z" fill="#E1593F"/>
<path d="M761.225 20.5356L765.553 15.3453L761.901 10.9222L756.039 14.3072L761.225 20.5356Z" fill="#252827"/>
<path d="M992 121.409V123.214C954.62 121.815 919.359 115 887.073 102.904C857.855 91.9817 830.98 76.7718 807.172 57.6352C778.765 34.8429 761.54 11.8249 753.649 -0.045166H755.814C763.885 11.9603 780.839 34.211 808.345 56.2812C843.651 84.625 903.532 118.069 992 121.409Z" fill="#F1ECD3"/>
</g>
<defs>
<clipPath id="clip0_5_461">
<rect width="992" height="677" fill="white"/>
</clipPath>
</defs>
</svg>
