<svg width="686" height="686" viewBox="0 0 686 686" fill="none" xmlns="http://www.w3.org/2000/svg">
<g clip-path="url(#clip0_5_61)">
<path d="M637.065 391.523L627.964 390.38L622.065 389.648L623.345 388.002L626.867 383.474L622.339 386.996L620.693 388.276L619.961 382.376L618.818 373.276L617.674 382.376L616.943 388.276L615.296 386.996L610.769 383.474L614.29 388.002L615.571 389.648L609.671 390.38L600.57 391.523L609.671 392.666L615.571 393.398L614.29 395.045L610.769 399.572L615.296 396.051L616.943 394.77L617.674 400.67L618.818 409.771L619.961 400.67L620.693 394.77L622.339 396.051L626.867 399.572L623.345 395.045L622.065 393.398L627.964 392.666L637.065 391.523ZM618.818 391.477V391.569L618.772 391.615L618.726 391.569L618.681 391.523L618.726 391.477H618.818Z" fill="#F1ECD3"/>
<path d="M552.047 277.418L537.595 275.589L528.266 274.4L530.278 271.793L535.858 264.567L528.632 270.147L526.025 272.159L524.836 262.829L523.006 248.378L521.177 262.829L519.988 272.159L517.381 270.147L510.155 264.567L515.735 271.793L517.747 274.4L508.418 275.589L493.966 277.418L508.418 279.248L517.747 280.437L515.735 283.044L510.155 290.269L517.381 284.69L519.988 282.678L521.177 292.007L523.006 306.459L524.836 292.007L526.025 282.678L528.632 284.69L535.858 290.269L530.278 283.044L528.266 280.437L537.595 279.248L552.047 277.418ZM523.098 277.373L523.144 277.418L523.098 277.464L523.052 277.51L523.006 277.464L522.961 277.418L523.006 277.373L523.052 277.327L523.098 277.373Z" fill="#F1ECD3"/>
<path d="M169.533 110.263L158.054 108.159L154.67 88.6769L151.606 108.159L139.853 110.263L151.606 112.367L154.67 131.803L158.054 112.367L169.533 110.263Z" fill="#F1ECD3"/>
<path d="M592.567 157.597L583.054 155.859L580.265 139.67L577.703 155.859L567.917 157.597L577.703 159.335L580.265 175.479L583.054 159.335L592.567 157.597Z" fill="#F1ECD3"/>
<path d="M72.3959 209.962L64.2553 208.453L61.8772 194.641L59.682 208.453L51.3585 209.962L59.682 211.425L61.8772 225.237L64.2553 211.425L72.3959 209.962Z" fill="#F1ECD3"/>
<path d="M221.441 434.238H35.7177V166.652C35.7177 115.431 77.3808 73.7679 128.602 73.7679C179.823 73.7679 221.487 115.431 221.487 166.652V434.238H221.441ZM36.175 433.781H220.983V166.652C220.983 115.705 179.549 74.2252 128.556 74.2252C77.5637 74.2252 36.175 115.705 36.175 166.652V433.781Z" fill="#252827"/>
<path d="M177.445 166.652H176.988C176.988 139.944 155.265 118.221 128.556 118.221C101.848 118.221 80.1705 139.944 80.1705 166.652H79.7132C79.7132 139.715 101.619 117.763 128.602 117.763C155.585 117.763 177.445 139.715 177.445 166.652Z" fill="#252827"/>
<path d="M193.912 100.979L162.771 132.12L163.094 132.444L194.236 101.302L193.912 100.979Z" fill="#252827"/>
<path d="M63.2246 101.003L62.9012 101.327L94.0104 132.436L94.3338 132.113L63.2246 101.003Z" fill="#252827"/>
<path d="M128.785 74.0423H128.328V118.038H128.785V74.0423Z" fill="#252827"/>
<path d="M221.212 166.424H35.9464V166.881H221.212V166.424Z" fill="#252827"/>
<path d="M128.785 166.652H128.328V434.009H128.785V166.652Z" fill="#252827"/>
<path d="M221.212 236.67H35.9464V237.127H221.212V236.67Z" fill="#252827"/>
<path d="M221.212 363.534H35.9464V363.992H221.212V363.534Z" fill="#252827"/>
<path d="M177.445 401.676H79.7132V166.652H80.1705V401.219H176.988V166.652H177.445V401.676Z" fill="#252827"/>
<path d="M650.282 434.238H464.559V166.652C464.559 115.431 506.222 73.7679 557.444 73.7679C608.665 73.7679 650.328 115.431 650.328 166.652V434.238H650.282ZM465.017 433.781H649.825V166.652C649.825 115.705 608.391 74.2252 557.398 74.2252C506.451 74.2252 464.971 115.66 464.971 166.652V433.781H465.017Z" fill="#252827"/>
<path d="M606.287 166.652H605.829C605.829 139.944 584.106 118.221 557.398 118.221C530.69 118.221 509.012 139.944 509.012 166.652H508.555C508.555 139.715 530.461 117.763 557.444 117.763C584.426 117.763 606.287 139.715 606.287 166.652Z" fill="#252827"/>
<path d="M622.752 100.983L591.61 132.125L591.933 132.448L623.075 101.307L622.752 100.983Z" fill="#252827"/>
<path d="M492.065 101.009L491.741 101.333L522.851 132.442L523.174 132.119L492.065 101.009Z" fill="#252827"/>
<path d="M557.672 74.0423H557.215V118.038H557.672V74.0423Z" fill="#252827"/>
<path d="M650.054 166.424H464.788V166.881H650.054V166.424Z" fill="#252827"/>
<path d="M557.672 166.652H557.215V434.009H557.672V166.652Z" fill="#252827"/>
<path d="M650.054 236.67H464.788V237.127H650.054V236.67Z" fill="#252827"/>
<path d="M650.054 363.534H464.788V363.992H650.054V363.534Z" fill="#252827"/>
<path d="M606.287 401.676H508.555V166.652H509.012V401.219H605.829V166.652H606.287V401.676Z" fill="#252827"/>
<path d="M563.206 627.827H100.568L144.014 546.468L145.112 544.41L206.303 429.802C206.303 429.802 177.171 456.053 169.625 429.802C163.68 409.13 178.314 368.428 199.397 325.027C199.763 324.341 200.083 323.609 200.404 322.923C209.779 303.715 220.389 284.004 230.999 265.345C231.411 264.613 231.822 263.881 232.234 263.15C262.692 209.642 292.556 165.097 292.556 165.097C292.556 165.097 254.826 180.052 254.826 154.899C254.872 138.938 271.336 111.955 289.126 87.4422C289.584 86.8019 290.041 86.2074 290.452 85.6128C311.078 57.4411 333.03 32.9738 333.03 32.9738C352.33 63.295 371.492 87.4422 387.178 106.604C387.727 107.29 388.322 107.976 388.871 108.662C412.195 137.109 427.195 154.167 421.936 163.68C413.201 179.549 389.419 167.979 389.008 167.796C396.462 183.253 406.204 202.096 416.814 222.447C417.18 223.133 417.5 223.819 417.866 224.459C439.955 266.9 465.428 315.697 481.435 354.205C481.755 354.936 482.029 355.668 482.349 356.446C495.932 389.557 502.198 414.664 492.731 420.975C466.846 438.125 440.183 428.201 439.772 428.064C450.336 445.9 462.959 466.754 476.084 488.158C476.496 488.798 476.907 489.438 477.273 490.124C518.204 556.712 563.206 627.827 563.206 627.827Z" fill="#2E473D"/>
<path d="M388.916 108.617C381.919 109.714 374.876 110.263 367.787 110.263C363.351 110.263 358.915 110.034 354.479 109.623C340.439 108.251 326.353 104.729 312.633 99.1956C303.258 95.3997 295.3 91.1465 289.126 87.3964C289.583 86.7561 290.041 86.1616 290.452 85.5671C296.535 89.2257 304.31 93.3875 313.548 97.0919C331.247 104.226 357.223 110.903 387.178 106.559C387.773 107.245 388.367 107.931 388.916 108.617Z" fill="#F1ECD3"/>
<path d="M417.911 224.414C404.283 231.548 383.84 241.198 359.327 249.475C332.847 258.393 306.916 264.019 282.266 266.168C274.766 266.808 267.357 267.128 260.085 267.128C250.161 267.128 240.466 266.534 231.045 265.345C231.456 264.613 231.868 263.881 232.28 263.15C279.522 268.866 325.53 258.485 358.549 247.326C382.925 239.094 403.322 229.49 416.859 222.401C417.179 223.042 417.545 223.728 417.911 224.414Z" fill="#F1ECD3"/>
<path d="M482.395 356.354C468.035 357.635 452.76 358.275 436.662 358.275C422.85 358.275 408.444 357.818 393.444 356.857C362.071 354.845 328.182 350.775 292.693 344.738C250.939 337.649 216.685 329.417 199.397 324.981C199.763 324.295 200.083 323.563 200.403 322.877C217.828 327.313 251.762 335.454 293.105 342.497C344.235 351.186 416.631 359.83 481.481 354.113C481.801 354.891 482.121 355.622 482.395 356.354Z" fill="#F1ECD3"/>
<path d="M477.319 490.033C460.489 501.375 425.137 522.824 377.574 539.105C337.969 552.687 297.678 560.142 257.936 561.194C254.552 561.285 251.167 561.331 247.829 561.331C212.706 561.331 177.948 556.346 144.014 546.422L145.112 544.364C238.133 571.347 321.231 555.98 376.797 536.955C424.268 520.674 459.437 499.317 476.084 488.066C476.541 488.752 476.907 489.392 477.319 490.033Z" fill="#F1ECD3"/>
<path d="M206.349 429.802C206.349 429.802 224.276 413.429 228.026 396.325C228.026 396.325 274.126 435.427 311.581 435.427C349.037 435.427 336.735 403.642 336.735 403.642C336.735 403.642 373.641 431.494 390.288 429.848C406.935 428.201 396.371 389.099 396.371 389.099C396.371 389.099 416.997 420.61 439.817 428.018L453.355 450.702C453.355 450.702 427.378 443.156 413.429 429.848C413.429 429.848 417.591 455.001 396.325 453.538C375.059 452.074 350.455 429.848 350.455 429.848C350.455 429.848 332.024 456.464 311.581 453.538C291.138 450.611 233.286 413.018 233.286 413.018C233.286 413.018 219.017 445.26 198.62 444.345L206.349 429.802Z" fill="#252827"/>
<path d="M292.556 165.097C292.556 165.097 309.935 157.734 318.624 148.176C318.624 148.176 332.39 175.799 348.305 172.049C364.22 168.299 357.36 151.103 357.36 151.103C357.36 151.103 367.513 160.387 389.054 167.658L396.325 182.43C396.325 182.43 375.425 178.314 367.467 172.003C367.467 172.003 362.3 191.028 344.418 188.513C326.582 185.997 318.258 165.006 318.258 165.006C318.258 165.006 287.16 191.348 287.16 173.192L292.556 165.097Z" fill="#252827"/>
<path d="M320.499 210.739C320.499 222.127 311.261 231.365 299.873 231.365C288.486 231.365 279.248 222.127 279.248 210.739C279.248 199.352 288.486 190.114 299.873 190.114C311.307 190.114 320.499 199.352 320.499 210.739Z" fill="#EEA5AE"/>
<path d="M320.499 210.739C320.499 222.127 311.261 231.365 299.873 231.365C288.486 231.365 279.248 222.127 279.248 210.739C279.293 210.739 300.834 197.934 320.499 210.739Z" fill="#F1ECD3"/>
<path d="M531.696 575.188C531.696 586.576 522.458 595.814 511.07 595.814C499.682 595.814 490.444 586.576 490.444 575.188C490.444 563.801 499.682 554.562 511.07 554.562C522.458 554.608 531.696 563.846 531.696 575.188Z" fill="#E15B40"/>
<path d="M531.696 575.188C531.696 586.576 522.458 595.814 511.07 595.814C499.682 595.814 490.444 586.576 490.444 575.188C490.49 575.188 511.985 562.429 531.696 575.188Z" fill="#F1ECD3"/>
<path d="M340.027 446.906C340.027 458.294 330.789 467.532 319.402 467.532C308.014 467.532 298.776 458.294 298.776 446.906C298.776 435.519 308.014 426.28 319.402 426.28C330.789 426.326 340.027 435.519 340.027 446.906Z" fill="#6876D5"/>
<path d="M340.027 446.906C340.027 458.294 330.789 467.532 319.402 467.532C308.014 467.532 298.776 458.294 298.776 446.906C298.822 446.906 320.316 434.147 340.027 446.906Z" fill="#F1ECD3"/>
<path d="M246.091 354.616C246.091 365.729 237.082 374.693 226.014 374.693C237.127 374.693 246.091 383.703 246.091 394.77C246.091 383.657 255.101 374.693 266.168 374.693C255.055 374.693 246.091 365.684 246.091 354.616Z" fill="#E15B40"/>
<path d="M388.916 463.187C388.916 474.3 379.907 483.264 368.839 483.264C379.953 483.264 388.916 492.274 388.916 503.341C388.916 492.228 397.926 483.264 408.993 483.264C397.88 483.264 388.916 474.255 388.916 463.187Z" fill="#E15B40"/>
<path d="M361.248 267.631C361.248 278.745 352.238 287.708 341.171 287.708C352.284 287.708 361.248 296.718 361.248 307.785C361.248 296.672 370.257 287.708 381.325 287.708C370.257 287.754 361.248 278.745 361.248 267.631Z" fill="#E15B40"/>
<path d="M361.248 126.59C361.248 137.703 352.238 146.667 341.171 146.667C352.284 146.667 361.248 155.676 361.248 166.744C361.248 155.631 370.257 146.667 381.325 146.667C370.257 146.713 361.248 137.703 361.248 126.59Z" fill="#E15B40"/>
<path d="M125.904 193.909C96.9547 194.138 80.5822 232.234 86.8934 272.296L166.972 271.702C167.018 271.702 170.768 193.543 125.904 193.909Z" fill="#D69A66"/>
<path d="M241.198 166.972C241.198 166.972 248.652 233.56 227.752 247.6C210.053 259.491 150.646 247.966 150.646 247.966L147.902 217.096C147.902 217.096 166.058 203.468 182.613 213.849C182.613 213.849 200.952 206.852 208.956 223.407C208.956 223.407 200.129 209.459 213.255 200.998C213.255 200.998 204.748 187.324 218.331 179.686L218.239 168.893L241.198 166.972Z" fill="#6876D5"/>
<path d="M218.468 179.823L218.24 179.412C218.331 179.366 227.066 174.29 242.067 176.897L241.975 177.354C227.112 174.793 218.514 179.778 218.468 179.823Z" fill="#252827"/>
<path d="M221.308 168.616L220.851 168.638L221.307 178.277L221.764 178.255L221.308 168.616Z" fill="#252827"/>
<path d="M226.302 168.203L225.846 168.225L226.279 177.041L226.736 177.019L226.302 168.203Z" fill="#252827"/>
<path d="M231.964 167.707L231.507 167.736L232.065 176.454L232.522 176.424L231.964 167.707Z" fill="#252827"/>
<path d="M237.395 167.251L236.939 167.293L237.792 176.63L238.247 176.588L237.395 167.251Z" fill="#252827"/>
<path d="M187.964 252.54L187.507 252.448C192.766 230.633 182.522 214.169 182.385 213.986L182.75 213.758C182.933 213.895 193.269 230.496 187.964 252.54Z" fill="#252827"/>
<path d="M241.929 206.212C229.81 193.361 213.529 201.089 213.346 201.135L213.163 200.724C213.346 200.632 229.901 192.766 242.249 205.891L241.929 206.212Z" fill="#252827"/>
<path d="M216.41 251.671L215.953 251.625C217.188 231.868 207.401 220.984 207.309 220.892L207.629 220.572C207.767 220.709 217.691 231.731 216.41 251.671Z" fill="#252827"/>
<path d="M119.09 456.053L78.6156 428.841L101.116 390.014C101.116 390.014 71.8471 318.944 96.6803 290.544L171.317 285.239L211.974 455.047L166.286 472.197L138.16 325.896L130.935 325.987C130.935 325.987 142.642 383.931 141.865 396.828C140.904 412.423 119.09 456.053 119.09 456.053Z" fill="#F1ECD3"/>
<path d="M130.66 216.685C106.604 218.88 95.8113 230.313 95.8113 230.313L96.6803 293.791L171.271 285.193C171.271 285.193 177.948 272.525 168.116 262.143C168.161 262.143 173.741 219.383 130.66 216.685Z" fill="#6876D5"/>
<path d="M167.75 250.802C167.338 231.182 149.274 217.508 149.091 217.37L149.365 217.005C149.548 217.142 167.796 230.908 168.207 250.756L167.75 250.802Z" fill="#252827"/>
<path d="M114.654 261.229L114.196 261.183C116.117 238.545 95.9028 230.587 95.7199 230.542L95.9028 230.13C96.0858 230.222 116.62 238.225 114.654 261.229Z" fill="#252827"/>
<path d="M145.432 205.709L126.864 215.633L108.342 216.273C108.342 216.273 108.251 215.495 108.388 214.261C108.525 213.346 108.754 212.248 109.303 211.059C110.172 209.184 111.772 207.126 114.745 205.663C115.66 205.205 116.711 204.794 117.901 204.428C119.227 204.062 120.736 203.742 122.474 203.605L143.283 202.873L145.432 205.709Z" fill="#F1ECD3"/>
<path d="M111.178 214.078C110.263 214.306 109.303 214.398 108.388 214.306C108.525 213.392 108.754 212.294 109.303 211.105C109.669 211.105 110.034 211.059 110.4 210.968C112.916 210.373 114.608 208.178 114.745 205.708C115.66 205.251 116.711 204.84 117.901 204.474C118.404 208.818 115.568 212.98 111.178 214.078Z" fill="#F7ACB2"/>
<path d="M127.999 213.907C136.054 213.242 142.239 208.521 141.813 203.361C141.388 198.2 134.513 194.556 126.458 195.22C118.403 195.884 112.218 200.605 112.644 205.766C113.069 210.926 119.944 214.571 127.999 213.907Z" fill="#E15B40"/>
<path d="M113.602 201.913L141.179 201.044C141.179 201.044 139.441 194.092 126.498 195.19C113.51 196.287 113.602 201.913 113.602 201.913Z" fill="#D69A66"/>
<path d="M131.758 209.779L131.438 209.459C131.986 208.864 131.895 207.584 131.849 207.035C130.935 207.309 130.203 207.218 129.7 206.806C128.282 205.571 129.105 202.004 129.151 201.867L129.608 201.958C129.608 202.004 128.831 205.388 130.02 206.486C130.431 206.852 131.117 206.898 131.986 206.532L132.261 206.44L132.307 206.715C132.261 206.76 132.581 208.864 131.758 209.779Z" fill="#252827"/>
<path d="M126.2 206.178C126.795 206.067 127.143 205.252 126.976 204.359C126.81 203.465 126.191 202.83 125.595 202.942C124.999 203.053 124.652 203.868 124.819 204.761C124.985 205.655 125.604 206.29 126.2 206.178Z" fill="#252827"/>
<path d="M133.336 205.764C133.932 205.653 134.279 204.838 134.113 203.945C133.946 203.051 133.327 202.416 132.731 202.528C132.136 202.639 131.788 203.454 131.955 204.347C132.121 205.241 132.74 205.876 133.336 205.764Z" fill="#252827"/>
<path d="M114.929 204.709C115.261 203.23 114.091 201.709 112.316 201.311C110.542 200.913 108.834 201.789 108.503 203.268C108.171 204.747 109.341 206.268 111.116 206.666C112.89 207.064 114.598 206.188 114.929 204.709Z" fill="#E15B40"/>
<path d="M113.556 205.205L109.943 204.702L109.989 204.245L112.778 204.657C111.955 203.147 110.492 203.056 110.4 203.056V202.599C110.492 202.599 112.504 202.69 113.327 204.885L113.556 205.205Z" fill="#252827"/>
<path d="M144.131 205.55C145.873 205.028 146.932 203.427 146.497 201.976C146.062 200.524 144.297 199.771 142.555 200.293C140.813 200.815 139.753 202.415 140.189 203.867C140.624 205.319 142.389 206.072 144.131 205.55Z" fill="#E15B40"/>
<path d="M141.59 204.199L141.728 203.833C142.414 201.593 144.426 201.364 144.517 201.364L144.563 201.821C144.517 201.821 143.008 202.004 142.322 203.605L145.066 203.01L145.158 203.468L141.59 204.199Z" fill="#252827"/>
<path d="M162.125 244.628L159.655 247.875L157.688 250.436L149.822 260.726C142.597 257.433 136.56 253.729 131.483 249.978C130.523 249.247 129.563 248.515 128.694 247.783C126.178 245.725 123.892 243.667 121.925 241.609C121.056 240.74 120.279 239.871 119.501 239.002C111.086 229.444 108.159 220.572 108.342 216.319L129.151 216.639C133.587 224.185 141.636 231.091 148.679 236.121C149.594 236.761 150.463 237.402 151.332 237.951C157.414 242.112 162.125 244.628 162.125 244.628Z" fill="#F1ECD3"/>
<path d="M151.332 237.951C149.685 240.695 146.575 242.478 143.145 242.249C138.252 241.929 134.502 237.676 134.822 232.783L138.023 232.966C137.84 236.121 140.218 238.819 143.374 239.002C145.661 239.14 147.673 237.951 148.725 236.075C149.594 236.761 150.463 237.356 151.332 237.951Z" fill="#F7ACB2"/>
<path d="M159.655 247.829L157.689 250.39C156.499 249.567 155.036 249.201 153.481 249.475C150.371 249.978 148.267 252.951 148.816 256.061L145.661 256.61C144.837 251.762 148.13 247.143 152.978 246.32C155.448 245.862 157.826 246.503 159.655 247.829Z" fill="#F7ACB2"/>
<path d="M131.483 249.933C130.523 249.201 129.563 248.469 128.694 247.737C128.877 245.862 128.145 243.942 126.544 242.707C125.172 241.655 123.48 241.289 121.925 241.609C121.056 240.74 120.279 239.871 119.501 239.002C122.428 237.768 125.904 238.133 128.511 240.191C131.529 242.57 132.627 246.503 131.483 249.933Z" fill="#F7ACB2"/>
<path d="M149.228 217.188C148.633 221.578 145.661 224.642 142.642 224.779C137.337 224.962 127.55 225.328 123.297 225.465C107.336 226.014 108.342 216.273 108.342 216.273L136.377 208.27L139.898 207.263L145.432 205.663C147.581 208.315 148.725 210.968 149.136 213.392C149.365 214.764 149.365 216.044 149.228 217.188Z" fill="#F1ECD3"/>
<path d="M149.228 217.188C146.575 218.514 143.328 218.468 140.63 216.822C137.612 214.992 136.057 211.608 136.423 208.27L139.944 207.263C139.029 209.779 139.99 212.614 142.322 214.078C144.563 215.45 147.353 215.084 149.182 213.392C149.365 214.764 149.365 216.044 149.228 217.188Z" fill="#F7ACB2"/>
<path d="M128.694 226.471C125.858 230.496 120.279 231.456 116.254 228.621L118.129 226.014C120.69 227.843 124.257 227.203 126.087 224.642C127.916 222.081 127.276 218.514 124.715 216.685L126.59 214.078C130.569 216.867 131.529 222.447 128.694 226.471Z" fill="#F7ACB2"/>
<path d="M121.971 225.74C116.529 225.74 112.595 224.459 110.263 221.99C107.839 219.383 108.114 216.41 108.114 216.319L108.571 216.364C108.571 216.41 108.297 219.246 110.629 221.715C113.053 224.322 117.306 225.511 123.297 225.282L142.642 224.596C144.792 224.505 146.987 222.813 148.13 220.206C150.097 215.953 149.045 210.648 145.341 205.983L113.602 215.038L113.464 214.581L145.478 205.434L145.569 205.571C149.457 210.373 150.554 215.907 148.496 220.389C147.261 223.133 144.929 224.962 142.597 225.008L123.251 225.694C122.84 225.694 122.382 225.74 121.971 225.74Z" fill="#252827"/>
<path d="M162.232 244.413L162.001 244.808L169.693 249.319L169.925 248.925L162.232 244.413Z" fill="#252827"/>
<path d="M149.962 260.531L149.722 260.92L159.379 266.868L159.619 266.479L149.962 260.531Z" fill="#252827"/>
<path d="M153.386 256.072L153.145 256.461L161.774 261.811L162.015 261.423L153.386 256.072Z" fill="#252827"/>
<path d="M156.795 251.599L156.56 251.991L164.914 257.001L165.149 256.608L156.795 251.599Z" fill="#252827"/>
<path d="M158.442 249.362L158.215 249.76L166.555 254.521L166.782 254.124L158.442 249.362Z" fill="#252827"/>
<path d="M160.677 246.515L160.455 246.915L168.741 251.495L168.962 251.095L160.677 246.515Z" fill="#252827"/>
<path d="M155.123 253.783L154.878 254.169L163.453 259.605L163.698 259.219L155.123 253.783Z" fill="#252827"/>
<path d="M151.524 258.433L151.289 258.825L160.391 264.276L160.626 263.884L151.524 258.433Z" fill="#252827"/>
<path d="M120.095 232.173L111.361 234.385L114.663 247.42L123.397 245.207L120.095 232.173Z" fill="#D69A66"/>
<path d="M139.99 251.213C142.414 260.863 136.605 270.604 126.956 273.074C117.306 275.498 107.565 269.689 105.095 260.04C102.671 250.39 108.479 240.649 118.129 238.179C127.779 235.755 137.566 241.563 139.99 251.213Z" fill="#EEA5AE"/>
<path d="M139.99 251.213C142.414 260.863 136.605 270.604 126.956 273.074C117.306 275.498 107.565 269.689 105.095 260.04C105.141 260.04 120.599 244.582 139.99 251.213Z" fill="#F1ECD3"/>
<path d="M115.385 235.115L115.248 235.069C114.882 234.886 106.696 230.542 106.742 227.066C106.742 226.106 107.382 225.328 108.617 224.734C111.681 223.224 114.562 225.145 116.071 227.706C117.489 230.039 117.901 233.331 115.477 235.069L115.385 235.115ZM110.766 224.642C110.126 224.642 109.486 224.779 108.8 225.099C107.748 225.603 107.199 226.288 107.199 227.066C107.153 230.039 114.288 234.017 115.34 234.566C117.352 233.011 116.94 230.039 115.705 227.889C114.608 226.106 112.824 224.642 110.766 224.642Z" fill="#D69A66"/>
<path d="M153.412 229.888L144.473 228.763L142.794 242.103L151.733 243.229L153.412 229.888Z" fill="#252827"/>
<path d="M147.947 230.953L147.856 230.862C147.581 230.542 141.545 223.499 142.825 220.297C143.191 219.429 144.06 218.925 145.432 218.788C148.816 218.514 150.829 221.349 151.332 224.276C151.789 226.975 150.966 230.176 148.085 230.908L147.947 230.953ZM145.844 219.2C145.706 219.2 145.569 219.2 145.432 219.2C144.243 219.291 143.511 219.703 143.237 220.435C142.139 223.179 147.307 229.49 148.085 230.405C150.554 229.673 151.24 226.746 150.829 224.322C150.417 221.715 148.725 219.2 145.844 219.2Z" fill="#252827"/>
<path d="M146.575 261.869C154.127 261.869 160.25 255.747 160.25 248.195C160.25 240.643 154.127 234.521 146.575 234.521C139.023 234.521 132.901 240.643 132.901 248.195C132.901 255.747 139.023 261.869 146.575 261.869Z" fill="#D69A66"/>
<path d="M156.317 249.384L151.149 250.756L152.612 255.924L147.947 253.225L145.341 257.936L143.969 252.722L138.801 254.186L141.545 249.567L136.834 246.96L142.048 245.588L140.539 240.42L145.203 243.118L147.81 238.408L149.182 243.621L154.35 242.158L151.606 246.777L156.317 249.384Z" fill="#F1ECD3"/>
<path d="M181.865 251.05L98.0926 257.956L102.594 312.559L186.367 305.652L181.865 251.05Z" fill="#D69A66"/>
<path d="M186.361 305.653L198.485 304.653L193.983 250.051L181.859 251.05L186.361 305.653Z" fill="#252827"/>
<path d="M200.449 266.122L194.001 250.024L181.881 251.03L188.33 267.128L200.449 266.122Z" fill="#252827"/>
<path d="M143.328 268.5C142.322 265.939 129.059 267.22 129.059 267.22C129.059 267.22 132.947 264.11 131.575 262.784C130.203 261.457 113.144 263.973 113.144 263.973L114.516 284.278C114.516 284.278 139.075 283.227 137.84 276.915C137.84 276.915 141.865 275.589 140.859 273.119C140.859 273.119 144.837 272.296 143.328 268.5Z" fill="#E15B40"/>
<path d="M131.895 278.15L131.849 277.693C135.599 277.235 137.795 276.687 137.795 276.687L137.932 277.144C137.886 277.098 135.691 277.693 131.895 278.15Z" fill="#252827"/>
<path d="M132.215 274.446L132.169 273.988C135.325 273.623 140.767 272.891 140.859 272.891L140.904 273.348C140.859 273.348 135.371 274.08 132.215 274.446Z" fill="#252827"/>
<path d="M95.8114 230.313L98.7383 266.031L113.144 263.927L114.516 284.233L107.519 284.461C101.711 301.063 82.1828 292.876 82.1828 292.876C82.1828 292.876 58.6302 303.441 49.7579 291.87C37.3642 275.726 52.5019 263.744 52.5019 263.744C52.5019 263.744 49.7579 245.496 71.2983 240.923C71.2983 240.923 77.7924 227.523 95.8114 230.313Z" fill="#6876D5"/>
<path d="M113.107 263.724L67.7184 270.357L67.7845 270.809L113.173 264.177L113.107 263.724Z" fill="#252827"/>
<path d="M91.2837 267.128C90.0032 253.911 84.6524 247.555 80.3992 244.536C75.7801 241.289 71.3897 241.152 71.344 241.152V240.695C71.5269 240.695 75.8716 240.832 80.6279 244.17C84.9725 247.234 90.4605 253.683 91.7411 267.128H91.2837Z" fill="#252827"/>
<path d="M74.957 269.598C68.3256 259.857 52.7306 263.927 52.5934 263.973L52.4562 263.515C52.5934 263.47 68.5086 259.354 75.3228 269.324L74.957 269.598Z" fill="#252827"/>
<path d="M82.3657 293.059L81.9999 292.785C82.0913 292.693 90.0489 282.678 82.7316 268.5L83.1432 268.272C90.5977 282.723 82.4572 292.968 82.3657 293.059Z" fill="#252827"/>
<path d="M107.748 284.553L107.29 284.461C107.29 284.324 109.165 272.479 105.278 265.162L105.69 264.933C109.623 272.388 107.748 284.416 107.748 284.553Z" fill="#252827"/>
<path d="M113.365 267.568L106.813 268.236L106.86 268.691L113.411 268.023L113.365 267.568Z" fill="#252827"/>
<path d="M113.711 272.301L107.691 272.743L107.724 273.199L113.745 272.757L113.711 272.301Z" fill="#252827"/>
<path d="M114.036 276.819L107.965 277.181L107.992 277.638L114.063 277.275L114.036 276.819Z" fill="#252827"/>
<path d="M114.361 281.417L107.874 281.715L107.895 282.172L114.382 281.874L114.361 281.417Z" fill="#252827"/>
<path d="M166.286 472.197L177.171 528.632L186.592 527.031L183.391 500.231L204.428 528.632C204.428 528.632 248.789 519.302 267.083 502.701C267.083 502.701 234.978 494.56 226.654 489.895C218.331 485.185 211.974 455.092 211.974 455.092L166.286 472.197Z" fill="#252827"/>
<path d="M78.5699 428.841L40.7484 468.629L45.7791 477.227L65.7188 459.025L54.8343 492.639C54.8343 492.639 88.2196 523.326 112.321 528.54C112.321 528.54 100.293 497.716 99.2413 488.203C98.2352 478.691 119.044 456.007 119.044 456.007L78.5699 428.841Z" fill="#252827"/>
<path d="M98.098 257.936L92.0612 275.04L175.845 268.135L181.881 251.03L98.098 257.936Z" fill="#252827"/>
<path d="M101.117 389.804L101.076 390.259L117.2 391.707L117.241 391.252L101.117 389.804Z" fill="#252827"/>
<path d="M241.198 166.972C241.198 166.972 240.74 146.621 234.703 140.493C228.804 134.547 228.987 142.093 228.987 142.093C228.987 142.093 226.014 137.063 221.99 136.468C217.919 135.874 220.16 142.276 220.16 142.276C220.16 142.276 216.456 136.605 213.255 138.663C210.236 140.584 216.913 144.38 218.697 149.319C218.697 149.319 205.297 140.539 201.867 152.932C201.364 154.762 201.318 157.917 204.108 157.871C206.44 157.826 207.767 152.338 209.733 152.155C215.13 151.652 218.971 157.551 218.971 157.551C218.971 157.551 218.194 165.966 206.623 160.524C199.946 157.414 204.154 173.421 218.194 165.921L218.239 168.847L241.198 166.972Z" fill="#E15B40"/>
<path d="M225.145 150.966C224.093 146.621 220.023 142.459 219.977 142.459L220.297 142.139C220.48 142.322 224.551 146.392 225.603 150.874L225.145 150.966Z" fill="#252827"/>
<path d="M232.142 149.548C231.136 145.752 228.804 142.231 228.758 142.231L229.124 141.956C229.17 142.002 231.548 145.523 232.554 149.411L232.142 149.548Z" fill="#252827"/>
<path d="M235.213 148.711L222.563 151.219L222.652 151.667L235.302 149.16L235.213 148.711Z" fill="#252827"/>
<path d="M204.885 173.512L208.773 181.378L217.462 182.613L211.151 188.741L212.66 197.385L204.885 193.315L197.111 197.385L198.62 188.741L192.309 182.613L200.998 181.378L204.885 173.512Z" fill="#D69A66"/>
<path d="M205.114 157.597H204.657V173.512H205.114V157.597Z" fill="#252827"/>
<path d="M207.035 190.662H204.885H202.736C202.736 190.662 202.05 200.449 200.586 204.108H204.885H209.184C207.721 200.449 207.035 190.662 207.035 190.662Z" fill="#D69A66"/>
<path d="M249.978 528.586H54.88V540.842H249.978V528.586Z" fill="#E15B40"/>
<path d="M197.751 575.28H37.9129V587.536H197.751V575.28Z" fill="#E15B40"/>
<path d="M184.808 621.973H20.9916V634.23H184.808V621.973Z" fill="#E15B40"/>
<path d="M67.8683 653.118H50.5353L77.3351 540.888H94.7137L67.8683 653.118Z" fill="#E15B40"/>
<path d="M184.534 653.118H167.155L194.001 540.888H211.379L184.534 653.118Z" fill="#E15B40"/>
<path d="M236.899 653.118H254.277L227.478 540.888H210.099L236.899 653.118Z" fill="#E15B40"/>
<path d="M77.335 540.888H94.7137L93.4332 546.148H76.1002L77.335 540.888Z" fill="#252827"/>
<path d="M83.5548 587.536H66.1761L64.7584 593.527H82.137L83.5548 587.536Z" fill="#252827"/>
<path d="M72.6245 634.23H55.0172L53.7823 639.352H71.161L72.6245 634.23Z" fill="#252827"/>
<path d="M458.294 422.484L462.181 492.411L588.451 591.972L629.702 539.379L458.294 422.484Z" fill="#D69A66"/>
<path d="M503.981 453.629L493.097 516.787L462.181 492.411L458.294 422.484L503.981 453.629Z" fill="#252827"/>
<path d="M530.598 402.087C530.598 402.087 534.257 437.439 499.682 456.144L455.824 610.86L391.569 592.475L461.815 397.24L530.598 402.087Z" fill="#D69A66"/>
<path d="M484.087 326.719C484.087 326.719 471.008 352.65 434.238 355.988L436.982 373.138C436.982 373.138 478.599 379.038 500.78 342.588L484.087 326.719Z" fill="#E15B40"/>
<path d="M529.683 393.169L530.598 402.087L461.815 397.24L462.501 387.087L529.683 393.169Z" fill="#E15B40"/>
<path d="M504.164 324.661C504.164 324.661 536.178 341.354 529.683 393.215L462.501 387.087C462.501 387.087 478.965 355.942 484.087 326.719L504.164 324.661Z" fill="#E15B40"/>
<path d="M473.431 363.306L473.02 363.077C476.541 356.125 481.526 337.238 481.572 337.055L482.029 337.192C481.984 337.42 476.999 356.354 473.431 363.306Z" fill="#252827"/>
<path d="M462.524 386.842L462.483 387.298L529.663 393.409L529.705 392.954L462.524 386.842Z" fill="#252827"/>
<path d="M485.002 308.517L501.603 295.209L504.576 315.103L485.002 308.517Z" fill="#E15B40"/>
<path d="M501.42 297.45C502.658 297.45 503.661 296.446 503.661 295.209C503.661 293.971 502.658 292.968 501.42 292.968C500.183 292.968 499.179 293.971 499.179 295.209C499.179 296.446 500.183 297.45 501.42 297.45Z" fill="#F1ECD3"/>
<path d="M507.103 319.887C508.896 319.582 510.143 318.124 509.89 316.63C509.636 315.136 507.977 314.172 506.184 314.476C504.391 314.781 503.143 316.239 503.397 317.733C503.651 319.227 505.31 320.192 507.103 319.887Z" fill="#F1ECD3"/>
<path d="M504.713 318.213L504.896 317.847C505.856 315.743 507.823 315.743 507.96 315.743V316.2C507.869 316.2 506.405 316.246 505.536 317.709L508.372 317.481L508.418 317.938L504.713 318.213Z" fill="#252827"/>
<path d="M492.323 332.12C499.672 331.965 505.509 326.128 505.361 319.083C505.213 312.037 499.135 306.451 491.787 306.605C484.438 306.76 478.601 312.597 478.749 319.642C478.898 326.688 484.975 332.274 492.323 332.12Z" fill="#F1ECD3"/>
<path d="M505.353 319.081C505.399 321.048 504.988 322.969 504.164 324.615C497.624 322.466 499.317 313.136 499.317 313.136L481.206 311.993C483.584 308.791 487.426 306.688 491.816 306.596C499.134 306.413 505.17 312.039 505.353 319.081Z" fill="#D69A66"/>
<path d="M489.301 322.1C488.478 321.597 487.975 320.911 487.837 320.042C487.334 317.115 490.581 313.045 490.719 312.907L491.085 313.182C491.039 313.228 487.792 317.252 488.295 319.95C488.432 320.728 488.844 321.277 489.53 321.688L489.301 322.1Z" fill="#252827"/>
<path d="M492.502 324.935C492.274 324.935 492.091 324.935 492.091 324.935L492.136 324.478C492.274 324.478 495.018 324.798 495.475 322.283L495.932 322.374C495.521 324.707 493.417 324.935 492.502 324.935Z" fill="#252827"/>
<path d="M496.288 317.091C496.372 316.185 495.95 315.406 495.346 315.35C494.743 315.294 494.186 315.983 494.102 316.889C494.018 317.794 494.44 318.573 495.044 318.629C495.647 318.685 496.204 317.996 496.288 317.091Z" fill="#252827"/>
<path d="M488.02 317.434C488.103 316.528 487.682 315.749 487.078 315.693C486.475 315.638 485.917 316.326 485.834 317.232C485.75 318.137 486.172 318.917 486.775 318.972C487.379 319.028 487.936 318.339 488.02 317.434Z" fill="#252827"/>
<path d="M479.636 319.039C479.919 317.55 478.7 316.068 476.914 315.728C475.127 315.388 473.449 316.319 473.166 317.808C472.883 319.297 474.101 320.779 475.888 321.119C477.674 321.459 479.352 320.528 479.636 319.039Z" fill="#F1ECD3"/>
<path d="M478.279 319.539L474.666 319.127L474.712 318.67L477.502 318.99C476.633 317.481 475.169 317.435 475.078 317.435V316.978C475.169 316.978 477.182 317.023 478.096 319.173L478.279 319.539Z" fill="#252827"/>
<path d="M422.805 346.608L450.249 356.104L464.396 315.22L436.953 305.724L422.805 346.608Z" fill="#D69A66"/>
<path d="M451.434 315.972L451.342 315.88C444.345 309.935 446.54 299.736 451.525 292.785C456.967 285.193 466.572 279.979 475.627 285.422C479.24 287.571 480.932 290.132 480.749 293.013C479.971 303.761 452.714 315.423 451.571 315.88L451.434 315.972ZM467.761 283.684C461.495 283.684 455.687 287.8 451.845 293.105C446.998 299.828 444.848 309.66 451.48 315.468C453.583 314.554 479.56 303.166 480.246 293.013C480.429 290.315 478.782 287.937 475.352 285.879C472.883 284.324 470.276 283.684 467.761 283.684Z" fill="#D69A66"/>
<path d="M430.671 412.195C454.944 412.195 474.621 392.518 474.621 368.245C474.621 343.972 454.944 324.295 430.671 324.295C406.398 324.295 386.721 343.972 386.721 368.245C386.721 392.518 406.398 412.195 430.671 412.195Z" fill="#6876D5"/>
<path d="M400.761 357.909L413.841 369.251L402.225 382.102L419.466 380.867L420.335 398.154L431.677 385.075L444.482 396.691L443.293 379.449L460.58 378.581L447.501 367.239L459.117 354.433L441.876 355.668L441.007 338.381L429.665 351.415L416.859 339.799L418.048 357.086L400.761 357.909Z" fill="#252827"/>
<path d="M499.362 331.155C489.164 332.39 483.95 380.593 436.982 373.138L435.153 396.417C435.153 396.417 452.486 406.981 467.669 391.523C467.669 391.523 474.758 395.502 487.792 390.563C498.539 386.492 498.813 376.934 498.813 376.934C498.813 376.934 511.07 373.504 513.219 355.531C515.232 339.341 509.79 329.92 499.362 331.155Z" fill="#E15B40"/>
<path d="M475.581 393.261C470.413 393.261 467.623 391.752 467.578 391.706L467.806 391.294C467.898 391.34 474.986 395.182 487.7 390.334C498.173 386.355 498.585 377.026 498.585 376.934V376.751L498.768 376.705C498.905 376.66 510.887 373.093 512.991 355.485C514.18 345.698 512.671 338.152 508.738 334.219C506.36 331.841 503.204 330.835 499.362 331.292C496.39 331.658 493.783 336.323 490.399 342.268C486.603 348.991 481.892 357.315 474.483 363.809L474.163 363.443C481.526 356.994 486.191 348.671 489.987 341.994C493.554 335.728 496.115 331.201 499.271 330.789C503.25 330.332 506.542 331.338 509.012 333.808C513.037 337.832 514.591 345.515 513.402 355.439C511.39 372.224 500.414 376.477 498.996 376.98C498.905 378.26 497.807 386.858 487.837 390.654C482.898 392.666 478.782 393.261 475.581 393.261Z" fill="#252827"/>
<path d="M497.579 377.254C493.554 377.254 481.115 376.157 474.941 363.123L475.352 362.94C482.578 378.26 498.676 376.751 498.813 376.751L498.859 377.209C498.859 377.209 498.356 377.254 497.579 377.254Z" fill="#252827"/>
<path d="M467.578 391.752C467.44 391.706 455.23 384.937 458.614 372.224L459.071 372.361C455.778 384.709 467.715 391.294 467.806 391.34L467.578 391.752Z" fill="#252827"/>
<path d="M428.293 603.04L427.881 602.902L490.856 427.012C478.645 420.609 482.944 404.877 482.99 404.694L483.447 404.831C483.401 404.969 479.148 420.518 491.267 426.692L491.45 426.783L491.405 426.966L428.293 603.04Z" fill="#252827"/>
<path d="M493.547 491.966L493.276 492.334L603.068 573.301L603.34 572.933L493.547 491.966Z" fill="#252827"/>
<path d="M406.341 376.34C403.597 372.818 408.262 372.132 408.262 372.132C406.524 370.76 405.38 367.33 409.451 368.016C413.521 368.702 420.838 370.806 420.838 370.806C418.323 369.388 418.689 365.958 422.622 367.01C426.555 368.062 436.936 373.184 436.936 373.184L435.107 396.462C413.795 397.468 405.335 384.663 403.46 380.684C401.584 376.705 406.341 376.34 406.341 376.34Z" fill="#F1ECD3"/>
<path d="M418.917 376.019C412.652 374.876 408.216 372.361 408.17 372.315L408.399 371.903C408.444 371.949 412.835 374.419 419.009 375.562L418.917 376.019Z" fill="#252827"/>
<path d="M416.311 381.645C410.594 380.318 406.204 376.568 406.158 376.522L406.478 376.157C406.524 376.202 410.823 379.861 416.448 381.187L416.311 381.645Z" fill="#252827"/>
<path d="M391.569 592.475C391.569 592.475 388.962 606.973 354.936 610.494C337.649 612.278 339.021 625.586 339.021 625.586L447.592 652.34C447.592 652.34 454.544 636.928 455.778 610.86L391.569 592.475Z" fill="#252827"/>
<path d="M381.003 603.369L380.765 603.759L396.814 613.545L397.052 613.154L381.003 603.369Z" fill="#F1ECD3"/>
<path d="M370.106 607.68L369.777 607.997L382.534 621.236L382.863 620.919L370.106 607.68Z" fill="#F1ECD3"/>
<path d="M588.451 591.972C588.451 591.972 600.89 599.838 591.332 632.675C586.484 649.368 599.335 653.072 599.335 653.072L665.008 562.566C665.008 562.566 653.346 550.309 629.657 539.333L588.451 591.972Z" fill="#252827"/>
<path d="M609.691 594.677L594.585 605.86L594.857 606.228L609.963 595.044L609.691 594.677Z" fill="#F1ECD3"/>
<path d="M611.508 610.77L594.438 617.599L594.607 618.023L611.678 611.195L611.508 610.77Z" fill="#F1ECD3"/>
</g>
<defs>
<clipPath id="clip0_5_61">
<rect width="686" height="686" fill="white"/>
</clipPath>
</defs>
</svg>
