<svg width="955" height="525" viewBox="0 0 955 525" fill="none" xmlns="http://www.w3.org/2000/svg">
<g clip-path="url(#clip0_5_279)">
<path d="M646.318 471.57H645.884V206.327H309.116V471.57H308.682V205.893H646.318V471.57Z" fill="#252827"/>
<path d="M604.689 471.57H604.255V247.32H350.745V471.57H350.311V246.887H604.689V471.57Z" fill="#252827"/>
<path d="M586.11 205.59H368.89V-125H369.325V205.157H585.675V-125H586.11V205.59Z" fill="#252827"/>
<path d="M530.112 5.00001H503.068V-8.99665H530.112V5.00001ZM503.502 4.56668H529.678V-8.56332H503.502V4.56668Z" fill="#252827"/>
<path d="M564.969 5H529.678V-8.99666H564.969V5ZM530.112 4.56667H564.535V-8.56333H530.112V4.56667Z" fill="#252827"/>
<path d="M463.956 54.7467H428.665V40.75H463.956V54.7467ZM429.099 54.3133H463.522V41.1833H429.099V54.3133Z" fill="#252827"/>
<path d="M485.227 68.31H463.566V54.3133H485.227V68.31ZM463.956 67.8767H484.749V54.7467H463.956V67.8767Z" fill="#252827"/>
<path d="M602.084 313.143H463.218V471.57H602.084V313.143Z" fill="#D69A66"/>
<path d="M654.001 313.143H602.084V471.57H654.001V313.143Z" fill="#252827"/>
<path d="M533.107 312.97H532.239V471.57H533.107V312.97Z" fill="#E15B40"/>
<path d="M551.816 313.577H519.216C514.702 313.577 507.8 309.937 501.245 304.087C494.169 297.803 488.873 290.22 486.616 283.33C483.751 274.533 485.965 267.167 492.954 262.097C505.673 252.91 515.049 255.9 520.692 259.973C527.594 265 532.499 274.36 534.887 283.07C535.929 281.12 537.101 279.127 538.403 277.09C547.128 263.353 560.715 248.923 572.479 249.66C580.553 250.18 585.502 258.977 585.068 272.063C584.547 289.31 573.868 313.577 551.816 313.577ZM509.102 256.897C504.153 256.897 498.901 258.847 493.475 262.747C485.053 268.857 485.531 277.133 487.441 282.983C492.085 297.327 510.057 312.667 519.216 312.667H551.816C573.304 312.667 583.722 288.877 584.243 272.02C584.634 259.41 580.032 250.96 572.479 250.483C572.219 250.483 571.958 250.44 571.654 250.44C560.411 250.44 547.215 264.87 539.184 277.48C537.708 279.777 536.406 282.073 535.234 284.24C536.753 290.35 537.057 296.07 535.885 299.58C534.974 302.353 533.411 302.96 532.239 302.96C531.11 302.96 530.199 302.483 529.721 301.573C528.245 298.93 530.112 292.213 534.279 284.153C532.109 275.53 527.464 265.91 520.171 260.623C516.785 258.153 513.052 256.897 509.102 256.897ZM534.626 285.497C530.937 292.82 529.244 298.887 530.503 301.183C530.85 301.833 531.414 302.137 532.282 302.137C533.541 302.137 534.496 301.227 535.104 299.363C536.059 296.417 535.929 291.26 534.626 285.497Z" fill="#E15B40"/>
<path d="M556.201 414.847L555.463 414.413C574.563 380.96 567.313 355.48 557.85 340.01C548.213 324.28 534.453 315.397 532.673 314.313C530.242 315.397 506.888 326.36 497.121 346.423C499.422 347.983 501.505 349.847 503.415 351.97C508.538 357.733 511.663 365.143 511.576 371.297C511.533 376.843 508.755 380.137 504.24 380.137C501.722 380.137 498.727 377.97 496.47 374.46C494.69 371.687 489.307 361.46 495.819 347.073C495.862 346.943 495.949 346.813 495.992 346.683C491.825 343.953 486.356 341.83 479.497 341.657C464.477 341.31 453.278 360.333 446.506 376.323C439.126 393.743 435.306 411.51 435.263 411.683L434.395 411.51C434.438 411.337 438.258 393.483 445.681 375.977C450.022 365.663 454.754 357.473 459.702 351.623C465.953 344.257 472.595 340.573 479.497 340.747C485.574 340.877 491.348 342.653 496.34 345.86C506.758 324.54 532.196 313.447 532.456 313.36L532.673 313.273L532.847 313.403C532.977 313.49 548.127 322.59 558.545 339.533C564.665 349.5 567.921 360.203 568.312 371.34C568.789 385.293 564.709 399.94 556.201 414.847ZM496.73 347.203C496.687 347.29 496.643 347.377 496.6 347.463C490.262 361.417 495.428 371.297 497.164 374.027C499.248 377.277 501.983 379.313 504.197 379.313C508.234 379.313 510.621 376.41 510.665 371.34C510.751 365.403 507.669 358.21 502.721 352.577C501.158 350.843 499.161 348.937 496.73 347.203Z" fill="#E15B40"/>
<path d="M149.34 80.8879C151.296 80.2356 152.444 78.4005 151.904 76.789C151.365 75.1775 149.342 74.3998 147.387 75.052C145.432 75.7043 144.284 77.5394 144.823 79.1509C145.363 80.7625 147.385 81.5401 149.34 80.8879Z" fill="#E15B40"/>
<path d="M146.506 79.4467L146.592 79.1C147.287 76.5867 149.501 76.24 149.588 76.24L149.631 76.6733C149.544 76.6733 147.808 76.9767 147.07 78.8833L150.239 78.1033L150.326 78.5367L146.506 79.4467Z" fill="#252827"/>
<path d="M149.197 81.8733C149.197 89.1533 140.949 95.0467 130.792 95.0467C124.758 95.0467 119.375 92.9667 116.033 89.7167C113.732 87.5067 112.386 84.7767 112.386 81.83C112.386 74.55 120.634 68.6567 130.792 68.6567C137.65 68.6567 143.641 71.3433 146.81 75.33C148.329 77.3233 149.197 79.5333 149.197 81.8733Z" fill="#E15B40"/>
<path d="M130.194 82.2989C130.849 82.1554 131.202 81.2242 130.981 80.219C130.76 79.2138 130.05 78.5152 129.394 78.6587C128.739 78.8021 128.386 79.7333 128.607 80.7385C128.827 81.7438 129.538 82.4423 130.194 82.2989Z" fill="#252827"/>
<path d="M138.223 81.5648C138.878 81.4213 139.231 80.4901 139.01 79.4849C138.79 78.4797 138.079 77.7811 137.423 77.9246C136.768 78.0681 136.415 78.9992 136.636 80.0045C136.856 81.0097 137.567 81.7083 138.223 81.5648Z" fill="#252827"/>
<path d="M146.81 75.3733C140.255 77.1933 133.266 70.8233 133.266 70.8233C127.796 76.89 116.032 79.0567 116.032 79.0567C118.333 84.56 116.032 89.76 116.032 89.76C113.732 87.55 112.386 84.82 112.386 81.8733C112.386 74.5933 120.634 68.7 130.792 68.7C137.65 68.7 143.641 71.3867 146.81 75.3733Z" fill="#252827"/>
<path d="M117.226 81.6078C117.373 79.9148 115.827 78.3987 113.772 78.2214C111.718 78.044 109.934 79.2726 109.787 80.9655C109.641 82.6584 111.187 84.1746 113.241 84.3519C115.295 84.5293 117.079 83.3007 117.226 81.6078Z" fill="#E15B40"/>
<path d="M115.685 82.2633L111.648 82.22V81.7867H114.947C113.819 80.0967 112.039 80.2267 111.952 80.27L111.909 79.8367C111.995 79.8367 114.253 79.6633 115.512 81.9167L115.685 82.2633Z" fill="#252827"/>
<path d="M134.134 84.6467L133.874 84.3C135.35 83.3033 136.044 81.2667 136.261 80.4L133.266 81.6133L133.092 81.2233L136.825 79.7067L136.739 80.0967C136.782 80.1833 136.174 83.2167 134.134 84.6467Z" fill="#252827"/>
<path d="M130.054 87.55C127.536 87.55 126.538 85.8167 126.538 85.7733L126.928 85.5567C126.972 85.6433 128.274 87.8533 131.877 86.8133L132.007 87.2467C131.269 87.4633 130.618 87.55 130.054 87.55Z" fill="#252827"/>
<path d="M210.621 205.98L99.7107 227.95L83.2152 113.377L120.373 100.723L147.113 98.99C147.113 98.99 182.665 92.62 196.035 127.2L210.621 205.98Z" fill="#D69A66"/>
<path d="M156.967 216.64L96.672 206.673L90.4211 163.297L156.967 216.64Z" fill="#252827"/>
<path d="M119.332 92.23L120.373 100.767L144.422 154.673L147.157 99.0333L145.551 89.76L119.332 92.23Z" fill="#F1ECD3"/>
<path d="M147.155 98.8149L120.385 100.541L120.413 100.973L147.183 99.2473L147.155 98.8149Z" fill="#252827"/>
<path d="M675.966 208.363L594.835 369.953L647.23 396.56L728.405 224.137L675.966 208.363Z" fill="#6876D5"/>
<path d="M686.515 259.757V313.143L710.26 262.747L686.515 259.757Z" fill="#252827"/>
<path d="M683.129 240.3C683.129 240.3 702.533 361.417 721.937 375.413C747.027 393.483 833.541 349.717 833.541 349.717L815.613 293.817L766.778 313.013L756.534 277.437C756.534 277.437 763.219 246.757 756.534 225.393L683.129 240.3Z" fill="#6876D5"/>
<path d="M594.835 369.953L574.042 407.307C574.042 407.307 546.043 411.12 530.633 415.93L615.628 471.57L647.23 396.56L594.835 369.953Z" fill="#F1ECD3"/>
<path d="M574.042 407.48V407.047C574.085 407.047 579.468 406.917 586.37 403.147C592.751 399.68 601.824 392.313 608.682 376.973L609.073 377.147C602.171 392.617 593.012 400.027 586.544 403.537C579.555 407.35 574.085 407.48 574.042 407.48Z" fill="#252827"/>
<path d="M833.541 349.673L874.737 338.147C874.737 338.147 897.136 355.307 911.461 362.847L891.232 263.397L815.613 293.773L833.541 349.673Z" fill="#F1ECD3"/>
<path d="M874.606 338.32C874.563 338.277 870.7 334.593 863.146 332.297C856.201 330.217 844.567 328.96 828.81 334.897L828.636 334.507C844.524 328.527 856.244 329.783 863.277 331.907C870.917 334.203 874.867 337.973 874.867 338.017L874.606 338.32Z" fill="#252827"/>
<path d="M757.402 331.95L757.315 331.777L731.183 277.003C720.244 275.53 715.425 267.513 713.298 261.013C710.997 253.993 711.258 247.19 711.258 247.147H711.692C711.692 247.233 711.432 253.95 713.689 260.883C716.771 270.157 722.675 275.443 731.356 276.57H731.487L757.619 331.387L820.475 309.113L820.605 309.503L757.402 331.95Z" fill="#252827"/>
<path d="M766.585 312.84L750.363 345.585L750.753 345.777L766.975 313.032L766.585 312.84Z" fill="#252827"/>
<path d="M692.679 126.81C647.837 156.147 600 139.593 585.155 135.563C585.155 135.563 575.518 130.927 568.616 123.213C561.714 115.5 560.194 123.863 560.194 123.863C560.194 123.863 551.165 121.697 544.35 115.803C538.36 110.603 533.932 118.88 537.535 122.303C537.535 122.303 530.199 123.733 534.019 131.317C534.019 131.317 528.376 131.23 531.675 140.633C535.408 151.337 635.726 216.25 724.498 156.45L692.679 126.81Z" fill="#F1ECD3"/>
<path d="M552.12 131.187C543.656 128.327 537.448 122.563 537.405 122.52L537.708 122.217C537.752 122.26 543.916 127.937 552.294 130.797L552.12 131.187Z" fill="#252827"/>
<path d="M545.956 141.283C538.62 137.253 533.888 131.533 533.845 131.49L534.192 131.23C534.236 131.273 538.924 136.907 546.173 140.937L545.956 141.283Z" fill="#252827"/>
<path d="M704.703 94.0933C706.657 79.4467 678.007 85.6867 675.055 97.2567C675.055 97.2567 657.214 94.7 656.128 113.853C656.128 113.853 640.241 132.487 652.135 136.083C660.252 138.553 661.034 116.843 661.034 116.843C661.034 116.843 681.175 113.55 679.396 103.453C679.396 103.497 703.531 102.717 704.703 94.0933Z" fill="#252827"/>
<path d="M702.625 84.9932C703.149 83.4271 702.026 81.641 700.116 81.004C698.206 80.3669 696.232 81.1201 695.708 82.6862C695.184 84.2523 696.307 86.0383 698.217 86.6754C700.127 87.3124 702.1 86.5593 702.625 84.9932Z" fill="#F1ECD3"/>
<path d="M701.057 85.2533L697.237 84.3L697.324 83.8667L700.406 84.6467C699.711 82.8267 698.018 82.5233 697.931 82.5233L697.975 82.09C698.062 82.09 700.232 82.4367 700.927 84.8633L701.057 85.2533Z" fill="#252827"/>
<path d="M698.409 87.6367C698.409 94.7433 706.44 100.463 716.293 100.463C722.154 100.463 727.406 98.4267 730.662 95.3067C732.876 93.1833 734.221 90.4967 734.221 87.6367C734.221 80.53 726.191 74.81 716.337 74.81C709.652 74.81 703.835 77.4533 700.753 81.31C699.234 83.1733 698.409 85.34 698.409 87.6367Z" fill="#F1ECD3"/>
<path d="M718.465 86.5283C718.676 85.5699 718.315 84.6766 717.659 84.5331C717.003 84.3896 716.301 85.0503 716.091 86.0088C715.88 86.9672 716.241 87.8605 716.897 88.004C717.553 88.1475 718.255 87.4868 718.465 86.5283Z" fill="#252827"/>
<path d="M710.659 85.8133C710.869 84.8548 710.508 83.9615 709.852 83.818C709.197 83.6746 708.495 84.3352 708.284 85.2937C708.074 86.2522 708.435 87.1454 709.09 87.2889C709.746 87.4324 710.448 86.7717 710.659 85.8133Z" fill="#252827"/>
<path d="M700.71 81.31C707.091 83.0867 713.906 76.89 713.906 76.89C719.245 82.7833 730.662 84.9067 730.662 84.9067C728.405 90.2367 730.662 95.3067 730.662 95.3067C732.876 93.1833 734.221 90.4967 734.221 87.6367C734.221 80.53 726.191 74.81 716.337 74.81C709.608 74.81 703.792 77.41 700.71 81.31Z" fill="#252827"/>
<path d="M730.271 92.3167C733.006 77.8 758.053 91.97 757.228 103.843C757.228 103.843 774.983 107.007 769.99 125.51C769.99 125.51 781.798 148.173 769.426 147.87C760.961 147.697 764.391 126.81 764.391 126.81C764.391 126.81 746.289 117.407 751.151 108.393C751.151 108.35 728.665 100.81 730.271 92.3167Z" fill="#252827"/>
<path d="M712.604 89.8033C711.432 89.8033 710.216 89.1967 710.129 89.1967L709.999 89.11L711.258 81.0067L711.692 81.0933L710.477 88.8933C710.997 89.11 712.647 89.76 713.559 89.1967C713.949 88.9367 714.123 88.5033 714.123 87.81H714.557C714.557 88.6333 714.297 89.1967 713.776 89.5433C713.472 89.76 713.038 89.8033 712.604 89.8033Z" fill="#252827"/>
<path d="M717.031 93.14C716.467 93.14 715.859 93.0533 715.165 92.8367L715.295 92.4033C718.811 93.4 720.07 91.2767 720.113 91.19L720.504 91.4067C720.461 91.45 719.462 93.14 717.031 93.14Z" fill="#252827"/>
<path d="M733.363 90.0136C735.37 89.8404 736.881 88.3663 736.738 86.7211C736.596 85.0758 734.854 83.8825 732.847 84.0558C730.841 84.229 729.33 85.7031 729.472 87.3483C729.615 88.9936 731.357 90.1869 733.363 90.0136Z" fill="#F1ECD3"/>
<path d="M730.966 88.0267L731.139 87.7233C732.355 85.5133 734.569 85.6867 734.655 85.6867L734.612 86.12C734.525 86.12 732.832 85.99 731.704 87.5933H734.873V88.0267H730.966Z" fill="#252827"/>
<path d="M771.249 252.433L647.707 234.277L703.661 110.127L701.968 95.2633H730.705C740.429 102.153 747.982 111.6 753.799 122.477C759.138 132.443 763.045 143.667 765.91 155.15C777.153 201.213 771.249 252.433 771.249 252.433Z" fill="#E15B40"/>
<path d="M729.229 230.68L728.795 230.637L731.096 208.58C715.599 206.587 710.52 187.13 710.042 185.18L671.452 181.713L671.495 181.28L710.39 184.79L710.433 184.963C710.477 185.18 715.208 206.327 731.356 208.19L731.573 208.233L729.229 230.68Z" fill="#252827"/>
<path d="M654.121 219.984L654.061 220.413L772.032 236.858L772.092 236.428L654.121 219.984Z" fill="#252827"/>
<path d="M765.867 155.193C761.786 164.293 750.543 173.827 750.543 173.827L739.951 124.297L753.755 122.52C759.138 132.487 763.045 143.71 765.867 155.193Z" fill="#252827"/>
<path d="M738.274 108.659L703.615 109.944L703.631 110.377L738.291 109.092L738.274 108.659Z" fill="#252827"/>
<path d="M99.7541 227.993C99.7541 227.993 210.057 281.163 259.369 308.983L204.283 423.557L269.267 444.313C269.267 444.313 330.69 329.177 320.359 305.04C300.912 259.627 210.621 206.023 210.621 206.023L99.7541 227.993Z" fill="#252827"/>
<path d="M259.404 308.765L259.312 309.188L281.886 314.048L281.978 313.624L259.404 308.765Z" fill="#F1ECD3"/>
<path d="M204.283 423.557L180.538 471.57H307.901C307.901 471.57 313.197 449.34 269.223 444.313C269.223 444.313 274.519 434.477 277.818 428.107C281.074 421.737 243.829 410.817 239.618 411.727C235.407 412.637 231.37 432.223 231.37 432.223L204.283 423.557Z" fill="#F1ECD3"/>
<path d="M247.692 451.68C237.491 444.097 231.24 432.397 231.197 432.31L231.588 432.093C231.631 432.223 237.838 443.793 247.953 451.333L247.692 451.68Z" fill="#252827"/>
<path d="M239.748 457.443L239.445 457.097C239.575 456.967 252.25 446.003 269.223 444.053L269.267 444.487C252.467 446.437 239.879 457.313 239.748 457.443Z" fill="#252827"/>
<path d="M163.632 112.685L163.215 112.807L180.371 171.1L180.788 170.978L163.632 112.685Z" fill="#252827"/>
<path d="M750.456 98.21C750.456 98.21 643.409 195.97 570.482 208.883C498.119 221.667 554.855 179.157 555.723 178.507C555.463 178.593 546.564 180.977 532.109 184.443C490.87 194.367 404.399 213.043 345.493 211.31C309.767 210.227 325.264 183.62 325.959 182.407V182.363C325.785 182.407 321.488 183.533 311.113 185.05C286.587 188.647 228.158 194.41 110.129 192.98L174.895 21.38C174.895 21.38 240.313 62.1567 306.034 78.3633C318.623 81.4833 331.255 83.6933 343.409 84.5167C343.409 84.5167 336.03 72.5567 345.276 58.2567C352.655 46.8167 470.381 79.23 517.263 92.6633C528.809 95.9567 536.059 98.1233 536.319 98.21C536.276 98.1233 535.798 97.6033 535.147 96.65C532.456 92.75 526.769 82.1333 536.319 72.9033C542.31 67.1833 662.77 105.663 750.456 98.21Z" fill="#2E473D"/>
<path d="M342.802 159.57C332.036 169.277 325.959 182.32 325.959 182.32C325.785 182.363 321.488 183.49 311.113 185.007C313.197 170.577 323.354 160.09 323.354 160.09C293.966 108.393 299.002 86.9867 306.077 78.32C318.666 81.44 331.298 83.65 343.453 84.4733C346.057 92.9667 355.781 100.507 356.085 100.767C355.52 100.55 326.35 88.2433 320.272 104.19C314.152 120.31 342.802 159.57 342.802 159.57Z" fill="#252827"/>
<path d="M580.727 151.943C580.727 151.943 569.093 166.72 555.723 178.463C555.463 178.55 546.564 180.933 532.109 184.4L538.62 165.55C538.62 165.55 517.784 159.397 513.703 145.703C509.623 132.01 538.62 116.367 538.62 116.367C538.62 116.367 521.907 105.923 517.306 92.6633C528.853 95.9567 536.102 98.1233 536.363 98.21C536.363 98.21 550.123 109.65 569.006 114.2C569.006 114.2 540.009 132.053 538.663 144.273C537.231 156.537 580.727 151.943 580.727 151.943Z" fill="#252827"/>
<path d="M291.535 194.887C297.309 188.3 290.363 185.007 290.363 185.007C294.878 182.537 292.577 173.047 285.285 176.773C276.993 181.02 269.788 181.843 269.788 181.843C269.788 181.843 268.095 171.963 259.239 177.813C250.384 183.663 239.575 185.787 239.575 185.787V220.02C258.892 220.627 287.412 210.487 291.449 204.723C297.309 196.36 291.535 194.887 291.535 194.887Z" fill="#E15B40"/>
<path d="M257.199 184.313V183.88C261.54 183.88 269.701 181.713 269.744 181.67L269.874 182.103C269.788 182.103 261.583 184.313 257.199 184.313Z" fill="#252827"/>
<path d="M273.564 189.99L273.521 189.557C282.593 188.907 290.19 184.833 290.233 184.79L290.45 185.18C290.407 185.267 282.723 189.34 273.564 189.99Z" fill="#252827"/>
<path d="M277.08 201.69L276.993 201.257C285.285 199.133 291.362 194.757 291.449 194.713L291.709 195.06C291.579 195.103 285.415 199.567 277.08 201.69Z" fill="#252827"/>
<path d="M83.2586 113.42C60.0782 121.307 68.1089 236.573 239.575 220.107V185.873C239.575 185.873 175.503 188.95 149.197 169.927C105.745 138.467 103.965 106.357 83.2586 113.42Z" fill="#D69A66"/>
<path d="M126.234 150.123C119.115 142.627 113.732 135.52 109.391 129.8C99.9712 117.407 94.2846 109.91 83.3455 113.637L83.2152 113.247C94.4582 109.433 100.232 117.017 109.738 129.583C114.079 135.303 119.462 142.41 126.538 149.863L126.234 150.123Z" fill="#252827"/>
<path d="M223.948 186.133H223.513V221.233H223.948V186.133Z" fill="#252827"/>
<path d="M99.7541 227.993C99.7541 227.993 111.692 283.46 163.392 308.983L107.003 423.557L171.987 444.313C171.987 444.313 231.197 336.153 223.774 310.977C210.664 266.517 156.967 216.683 156.967 216.683L99.7541 227.993Z" fill="#252827"/>
<path d="M211.229 283.547C204.066 269.723 180.625 241.817 180.408 241.557L180.755 241.297C180.972 241.557 204.457 269.507 211.619 283.373L211.229 283.547Z" fill="#F1ECD3"/>
<path d="M163.447 308.733L163.35 309.155L184.501 314.017L184.598 313.595L163.447 308.733Z" fill="#F1ECD3"/>
<path d="M107.003 423.557L83.2586 471.57H210.621C210.621 471.57 215.917 449.34 171.943 444.313C171.943 444.313 177.239 434.477 180.538 428.107C183.794 421.737 146.549 410.817 142.338 411.727C138.128 412.637 134.091 432.223 134.091 432.223L107.003 423.557Z" fill="#F1ECD3"/>
<path d="M150.369 451.68C140.168 444.097 133.917 432.397 133.874 432.31L134.264 432.093C134.308 432.223 140.515 443.793 150.63 451.333L150.369 451.68Z" fill="#252827"/>
<path d="M210.838 471.57L210.404 471.527C210.795 465.85 208.667 460.693 204.066 456.187C195.211 447.563 179.497 443.793 171.987 444.487C155.144 446.047 142.599 457.27 142.469 457.4L142.165 457.097C142.295 456.967 154.927 445.613 171.943 444.053C179.54 443.36 195.428 447.173 204.37 455.883C209.058 460.477 211.229 465.763 210.838 471.57Z" fill="#252827"/>
<path d="M740.516 108.437C731.834 107.83 726.798 132.963 712.3 153.157L750.543 173.87C767.95 143.277 758.748 109.693 740.516 108.437Z" fill="#E15B40"/>
<path d="M712.473 153.287L712.126 153.027C718.334 144.403 722.718 135.043 726.581 126.767C731.617 116.02 735.263 108.177 740.212 108.177C740.299 108.177 740.429 108.177 740.516 108.177C742.252 108.307 743.945 108.697 745.551 109.433L745.378 109.823C743.815 109.13 742.165 108.74 740.472 108.61C735.654 108.263 731.79 116.497 726.929 126.94C723.282 134.827 718.724 144.62 712.473 153.287Z" fill="#252827"/>
<path d="M712.3 153.157C676.314 192.85 625.872 188.907 610.462 188.777C610.462 188.777 599.957 186.74 591.319 181.02C582.68 175.3 583.331 183.793 583.331 183.793C583.331 183.793 574.042 184.01 565.968 180.023C558.849 176.513 556.678 185.613 561.019 187.997C561.019 187.997 554.247 191.203 559.891 197.617C559.891 197.617 554.421 198.96 559.977 207.237C566.315 216.64 679.786 254.167 750.543 173.913L712.3 153.157Z" fill="#F1ECD3"/>
<path d="M577.384 192.807C568.442 192.157 561.019 188.17 560.932 188.127L561.149 187.737C561.236 187.78 568.616 191.723 577.428 192.373L577.384 192.807Z" fill="#252827"/>
<path d="M573.998 204.203C565.881 202.123 559.847 197.79 559.804 197.747L560.064 197.4C560.108 197.443 566.055 201.733 574.129 203.77L573.998 204.203Z" fill="#252827"/>
<path d="M527.29 106.833L528.419 108.35C528.332 108.263 527.898 107.743 527.29 106.833Z" fill="#252827"/>
<path d="M411.822 178.073H404.356V188.083H411.822V178.073Z" fill="#252827"/>
<path d="M408.089 223.963C419.572 223.963 428.882 214.67 428.882 203.207C428.882 191.743 419.572 182.45 408.089 182.45C396.605 182.45 387.296 191.743 387.296 203.207C387.296 214.67 396.605 223.963 408.089 223.963Z" fill="#6876D5"/>
<path d="M419.713 203.234L408.079 191.621L396.446 203.234L408.079 214.847L419.713 203.234Z" fill="#F1ECD3"/>
<path d="M408.089 178.507L407.915 178.16C407.655 177.727 401.968 167.023 404.529 162.733C405.224 161.607 406.439 161 408.132 161C409.825 161 411.041 161.563 411.735 162.733C414.296 166.98 408.566 177.683 408.349 178.16L408.089 178.507ZM408.089 161.477C406.57 161.477 405.484 161.997 404.877 162.993C402.706 166.633 407.09 175.69 408.089 177.597C409.087 175.647 413.472 166.59 411.301 162.993C410.693 161.953 409.608 161.477 408.089 161.477Z" fill="#252827"/>
<path d="M246.39 86.2067H238.924V96.2167H246.39V86.2067Z" fill="#252827"/>
<path d="M242.7 132.097C254.184 132.097 263.493 122.804 263.493 111.34C263.493 99.8764 254.184 90.5833 242.7 90.5833C231.217 90.5833 221.907 99.8764 221.907 111.34C221.907 122.804 231.217 132.097 242.7 132.097Z" fill="#F7ACB2"/>
<path d="M242.7 95.7833C242.7 103.41 250.123 108.783 257.416 106.443C250.167 108.783 247.302 117.537 251.816 123.69C247.345 117.537 238.142 117.537 233.628 123.69C238.099 117.537 235.277 108.783 228.028 106.443C235.234 108.783 242.7 103.41 242.7 95.7833Z" fill="#F1ECD3"/>
<path d="M242.7 86.6833L242.527 86.3367C242.266 85.9033 236.58 75.2 239.141 70.91C239.835 69.7833 241.051 69.1767 242.744 69.1767C244.437 69.1767 245.652 69.74 246.347 70.91C248.908 75.1567 243.178 85.86 242.961 86.3367L242.7 86.6833ZM242.7 69.61C241.181 69.61 240.096 70.13 239.488 71.1267C237.318 74.7667 241.702 83.8233 242.7 85.73C243.699 83.78 248.083 74.7233 245.913 71.1267C245.305 70.13 244.22 69.61 242.7 69.61Z" fill="#252827"/>
<path d="M500.377 107.96H492.91V117.97H500.377V107.96Z" fill="#252827"/>
<path d="M496.643 153.85C508.127 153.85 517.436 144.557 517.436 133.093C517.436 121.63 508.127 112.337 496.643 112.337C485.16 112.337 475.85 121.63 475.85 133.093C475.85 144.557 485.16 153.85 496.643 153.85Z" fill="#E15B40"/>
<path d="M507.496 122.26C506.454 121.22 501.809 124.123 496.643 128.933C491.434 124.123 486.833 121.22 485.791 122.26C484.749 123.3 487.658 127.937 492.476 133.093C487.658 138.293 484.749 142.887 485.791 143.927C486.833 144.967 491.478 142.063 496.643 137.253C501.853 142.063 506.497 144.967 507.496 143.927C508.494 142.887 505.629 138.25 500.811 133.093C505.629 127.937 508.538 123.3 507.496 122.26Z" fill="#F1ECD3"/>
<path d="M496.643 108.437L496.47 108.09C496.209 107.657 490.523 96.9533 493.084 92.6633C493.778 91.5367 494.994 90.93 496.687 90.93C498.38 90.93 499.595 91.4933 500.29 92.6633C502.851 96.91 497.121 107.613 496.904 108.09L496.643 108.437ZM496.643 91.3633C495.124 91.3633 494.039 91.8833 493.431 92.88C491.261 96.52 495.645 105.577 496.643 107.483C497.642 105.533 502.026 96.4767 499.856 92.88C499.248 91.8833 498.163 91.3633 496.643 91.3633Z" fill="#252827"/>
<path d="M624.57 110.777H617.104V120.787H624.57V110.777Z" fill="#252827"/>
<path d="M620.837 156.667C632.32 156.667 641.63 147.374 641.63 135.91C641.63 124.446 632.32 115.153 620.837 115.153C609.353 115.153 600.044 124.446 600.044 135.91C600.044 147.374 609.353 156.667 620.837 156.667Z" fill="#D69A66"/>
<path d="M610.462 117.883L615.628 126.897L620.837 135.91H610.462H600.044L605.253 126.897L610.462 117.883Z" fill="#F1ECD3"/>
<path d="M631.255 117.883L636.464 126.897L641.673 135.91H631.255H620.837L626.046 126.897L631.255 117.883Z" fill="#F1ECD3"/>
<path d="M631.255 153.893L626.046 144.88L620.837 135.91H631.255H641.673L636.464 144.88L631.255 153.893Z" fill="#F1ECD3"/>
<path d="M610.462 153.893L605.253 144.88L600.044 135.91H610.462H620.837L615.628 144.88L610.462 153.893Z" fill="#F1ECD3"/>
<path d="M620.837 111.21L620.663 110.863C620.403 110.43 614.716 99.7267 617.277 95.4367C617.972 94.31 619.187 93.7033 620.88 93.7033C622.573 93.7033 623.789 94.2667 624.483 95.4367C627.044 99.6833 621.314 110.387 621.097 110.863L620.837 111.21ZM620.837 94.1367C619.317 94.1367 618.232 94.6567 617.625 95.6533C615.454 99.2933 619.838 108.35 620.837 110.257C621.835 108.307 626.22 99.25 624.049 95.6533C623.485 94.6567 622.4 94.1367 620.837 94.1367Z" fill="#252827"/>
<path d="M840.226 -20.7833L823.036 -22.95L811.924 -24.38L814.355 -27.5L820.996 -36.08L812.401 -29.45L809.276 -27.0233L807.843 -38.1167L805.673 -55.2767L803.502 -38.1167L802.07 -27.0233L798.944 -29.45L790.349 -36.08L796.991 -27.5L799.422 -24.38L788.309 -22.95L771.119 -20.7833L788.309 -18.6167L799.422 -17.1867L796.991 -14.0667L790.349 -5.48667L798.944 -12.1167L802.07 -14.5433L803.502 -3.45L805.673 13.71L807.843 -3.45L809.276 -14.5433L812.401 -12.1167L820.996 -5.48667L814.355 -14.0667L811.924 -17.1867L823.036 -18.6167L840.226 -20.7833ZM805.76 -20.8267L805.846 -20.74L805.76 -20.6533L805.673 -20.5667L805.586 -20.6533L805.499 -20.74L805.586 -20.8267L805.673 -20.9133L805.76 -20.8267Z" fill="#F1ECD3"/>
<path d="M314.933 -6.35335L304.515 -7.69667L297.786 -8.56333L299.262 -10.47L303.299 -15.67L298.09 -11.64L296.18 -10.1667L295.312 -16.8833L293.966 -27.2833L292.621 -16.8833L291.752 -10.1667L289.843 -11.64L284.633 -15.67L288.67 -10.47L290.146 -8.56333L283.418 -7.69667L273 -6.35335L283.418 -5.01001L290.146 -4.14334L288.67 -2.23668L284.633 2.96332L289.843 -1.06667L291.752 -2.54L292.621 4.17666L293.966 14.5767L295.312 4.17666L296.18 -2.54L298.09 -1.06667L303.299 2.96332L299.262 -2.23668L297.786 -4.14334L304.515 -5.01001L314.933 -6.35335ZM294.01 -6.39667V-6.31001L293.966 -6.26667L293.923 -6.31001L293.88 -6.35335L293.923 -6.39667H294.01Z" fill="#F1ECD3"/>
<path d="M896.354 84.6467L885.459 82.6533L882.29 64.2367L879.338 82.6533L868.182 84.6467L879.338 86.64L882.29 105.057L885.459 86.64L896.354 84.6467Z" fill="#F1ECD3"/>
<path d="M463.566 392.183H384.04V471.57H463.566V392.183Z" fill="#6876D5"/>
<path d="M494.994 392.183H463.609V471.57H494.994V392.183Z" fill="#252827"/>
<path d="M415.15 391.539L383.719 422.915L384.333 423.528L415.764 392.152L415.15 391.539Z" fill="#F1ECD3"/>
<path d="M464.109 446.551L439.369 471.247L439.983 471.86L464.723 447.163L464.109 446.551Z" fill="#F1ECD3"/>
<path d="M374.143 414.5C366.807 414.5 359.558 413.33 356.041 409.473C353.697 406.873 353.263 403.233 354.739 398.77C355.303 397.037 356.562 395.737 358.385 395C367.588 391.23 389.944 401.63 394.676 403.927C393.373 398.9 387.991 375.977 397.584 372.467C400.188 371.513 402.489 372.423 404.226 375.153C408.697 382.13 408.48 399.42 403.878 404.057L395.804 412.117L395.674 412.16C394.979 412.247 384.474 414.5 374.143 414.5ZM363.378 395C361.598 395 360.035 395.217 358.733 395.78C357.127 396.43 356.085 397.513 355.607 399.03C354.218 403.19 354.565 406.527 356.736 408.91C364.55 417.577 393.33 411.727 395.457 411.293L403.357 403.407C407.698 399.073 407.828 382.173 403.618 375.587C402.098 373.203 400.188 372.423 397.975 373.247C388.164 376.843 395.761 404.317 395.848 404.62L396.108 405.573L395.24 405.14C394.936 404.967 375.011 395 363.378 395Z" fill="#F1ECD3"/>
<path d="M796.036 431.877H676.227V471.57H796.036V431.877Z" fill="#E15B40"/>
<path d="M831.588 431.877H796.036V471.57H831.588V431.877Z" fill="#252827"/>
<path d="M796.166 471.743L795.906 471.397L820.909 451.723L795.906 432.05L796.166 431.703L821.604 451.723L796.166 471.743Z" fill="#F1ECD3"/>
<path d="M817.064 455.056L816.741 455.345L831.436 471.758L831.76 471.469L817.064 455.056Z" fill="#F1ECD3"/>
<path d="M831.385 431.696L816.7 448.118L817.024 448.407L831.708 431.985L831.385 431.696Z" fill="#F1ECD3"/>
<path d="M687.86 471.57H676.227L687.34 431.877H698.973L687.86 471.57Z" fill="#F1ECD3"/>
<path d="M720.244 471.57H708.61L719.679 431.877H731.313L720.244 471.57Z" fill="#F1ECD3"/>
<path d="M752.583 471.57H740.95L752.063 431.877H763.696L752.583 471.57Z" fill="#F1ECD3"/>
<path d="M784.967 471.57H773.333L784.402 431.877H796.036L784.967 471.57Z" fill="#F1ECD3"/>
<path d="M736.131 431.877C751.331 431.877 763.653 423.961 763.653 414.197C763.653 404.432 751.331 396.517 736.131 396.517C720.932 396.517 708.61 404.432 708.61 414.197C708.61 423.961 720.932 431.877 736.131 431.877Z" fill="#D69A66"/>
<path d="M708.61 414.197L697.237 420.35L685.907 426.503V414.197V401.89L697.237 408.043L708.61 414.197Z" fill="#D69A66"/>
<path d="M763.696 414.197L775.026 408.043L786.399 401.89V414.197V426.503L775.026 420.35L763.696 414.197Z" fill="#D69A66"/>
<path d="M717.769 423.73C712.604 423.73 708.567 414.673 708.393 414.327L708.35 414.24L708.393 414.153C708.567 413.763 712.604 404.75 717.769 404.75C722.935 404.75 726.972 413.807 727.146 414.153L727.189 414.24L727.146 414.327C726.972 414.673 722.935 423.73 717.769 423.73ZM708.827 414.197C709.261 415.15 713.168 423.253 717.769 423.253C722.371 423.253 726.277 415.107 726.712 414.197C726.277 413.243 722.371 405.14 717.769 405.14C713.168 405.14 709.261 413.287 708.827 414.197Z" fill="#F1ECD3"/>
<path d="M736.131 423.73C730.966 423.73 726.929 414.673 726.755 414.327L726.712 414.24L726.755 414.153C726.929 413.763 730.966 404.75 736.131 404.75C741.297 404.75 745.334 413.807 745.508 414.153L745.551 414.24L745.508 414.327C745.334 414.673 741.297 423.73 736.131 423.73ZM727.189 414.197C727.623 415.15 731.53 423.253 736.131 423.253C740.733 423.253 744.64 415.107 745.074 414.197C744.64 413.243 740.733 405.14 736.131 405.14C731.53 405.14 727.623 413.287 727.189 414.197Z" fill="#F1ECD3"/>
<path d="M754.493 423.73C749.328 423.73 745.291 414.673 745.117 414.327L745.074 414.24L745.117 414.153C745.291 413.763 749.328 404.75 754.493 404.75C759.659 404.75 763.696 413.807 763.87 414.153L763.913 414.24L763.87 414.327C763.696 414.673 759.659 423.73 754.493 423.73ZM745.551 414.197C745.985 415.15 749.892 423.253 754.493 423.253C759.095 423.253 763.002 415.107 763.436 414.197C763.002 413.243 759.095 405.14 754.493 405.14C749.892 405.14 745.985 413.287 745.551 414.197Z" fill="#F1ECD3"/>
</g>
<defs>
<clipPath id="clip0_5_279">
<rect width="955" height="650" fill="white" transform="translate(0 -125)"/>
</clipPath>
</defs>
</svg>
