<svg width="955" height="650" viewBox="0 0 955 650" fill="none" xmlns="http://www.w3.org/2000/svg">
<g clip-path="url(#clip0_5_279)">
<path d="M646.318 596.57H645.884V331.327H309.116V596.57H308.682V330.893H646.318V596.57Z" fill="#252827"/>
<path d="M604.689 596.57H604.255V372.32H350.745V596.57H350.311V371.887H604.689V596.57Z" fill="#252827"/>
<path d="M586.109 330.59H368.89V0H369.325V330.157H585.675V0H586.109V330.59Z" fill="#252827"/>
<path d="M530.112 130H503.068V116.003H530.112V130ZM503.502 129.567H529.678V116.437H503.502V129.567Z" fill="#252827"/>
<path d="M564.969 130H529.678V116.003H564.969V130ZM530.112 129.567H564.535V116.437H530.112V129.567Z" fill="#252827"/>
<path d="M463.956 179.747H428.665V165.75H463.956V179.747ZM429.099 179.313H463.522V166.183H429.099V179.313Z" fill="#252827"/>
<path d="M485.227 193.31H463.566V179.313H485.227V193.31ZM463.956 192.877H484.749V179.747H463.956V192.877Z" fill="#252827"/>
<path d="M450.196 63.1367H396.542V49.14H450.196V63.1367ZM396.976 62.7033H449.762V49.5733H396.976V62.7033Z" fill="#252827"/>
<path d="M468.775 76.7867H433.657V62.79H468.775V76.7867ZM434.091 76.3533H468.341V63.2233H434.091V76.3533Z" fill="#252827"/>
<path d="M602.084 438.143H463.218V596.57H602.084V438.143Z" fill="#D69A66"/>
<path d="M654.001 438.143H602.084V596.57H654.001V438.143Z" fill="#252827"/>
<path d="M533.107 437.97H532.239V596.57H533.107V437.97Z" fill="#E15B40"/>
<path d="M551.816 438.577H519.216C514.702 438.577 507.8 434.937 501.245 429.087C494.169 422.803 488.873 415.22 486.616 408.33C483.751 399.533 485.965 392.167 492.954 387.097C505.673 377.91 515.049 380.9 520.692 384.973C527.594 390 532.499 399.36 534.887 408.07C535.929 406.12 537.101 404.127 538.403 402.09C547.128 388.353 560.715 373.923 572.479 374.66C580.553 375.18 585.502 383.977 585.068 397.063C584.547 414.31 573.868 438.577 551.816 438.577ZM509.102 381.897C504.153 381.897 498.901 383.847 493.475 387.747C485.053 393.857 485.531 402.133 487.441 407.983C492.085 422.327 510.057 437.667 519.216 437.667H551.816C573.304 437.667 583.722 413.877 584.243 397.02C584.634 384.41 580.032 375.96 572.479 375.483C572.219 375.483 571.958 375.44 571.654 375.44C560.411 375.44 547.215 389.87 539.184 402.48C537.708 404.777 536.406 407.073 535.234 409.24C536.753 415.35 537.057 421.07 535.885 424.58C534.974 427.353 533.411 427.96 532.239 427.96C531.11 427.96 530.199 427.483 529.721 426.573C528.245 423.93 530.112 417.213 534.279 409.153C532.109 400.53 527.464 390.91 520.171 385.623C516.785 383.153 513.052 381.897 509.102 381.897ZM534.626 410.497C530.937 417.82 529.244 423.887 530.503 426.183C530.85 426.833 531.414 427.137 532.282 427.137C533.541 427.137 534.496 426.227 535.104 424.363C536.059 421.417 535.929 416.26 534.626 410.497Z" fill="#E15B40"/>
<path d="M556.201 539.847L555.463 539.413C574.563 505.96 567.313 480.48 557.85 465.01C548.213 449.28 534.453 440.397 532.673 439.313C530.242 440.397 506.888 451.36 497.121 471.423C499.422 472.983 501.505 474.847 503.415 476.97C508.538 482.733 511.663 490.143 511.576 496.297C511.533 501.843 508.755 505.137 504.24 505.137C501.722 505.137 498.727 502.97 496.47 499.46C494.69 496.687 489.307 486.46 495.819 472.073C495.862 471.943 495.949 471.813 495.992 471.683C491.825 468.953 486.356 466.83 479.497 466.657C464.477 466.31 453.278 485.333 446.506 501.323C439.126 518.743 435.306 536.51 435.263 536.683L434.395 536.51C434.438 536.337 438.258 518.483 445.681 500.977C450.022 490.663 454.754 482.473 459.702 476.623C465.953 469.257 472.595 465.573 479.497 465.747C485.574 465.877 491.348 467.653 496.34 470.86C506.758 449.54 532.196 438.447 532.456 438.36L532.673 438.273L532.847 438.403C532.977 438.49 548.127 447.59 558.545 464.533C564.665 474.5 567.921 485.203 568.312 496.34C568.789 510.293 564.709 524.94 556.201 539.847ZM496.73 472.203C496.687 472.29 496.643 472.377 496.6 472.463C490.262 486.417 495.428 496.297 497.164 499.027C499.248 502.277 501.983 504.313 504.197 504.313C508.234 504.313 510.621 501.41 510.665 496.34C510.751 490.403 507.669 483.21 502.721 477.577C501.158 475.843 499.161 473.937 496.73 472.203Z" fill="#E15B40"/>
<path d="M149.34 205.888C151.296 205.236 152.444 203.401 151.904 201.789C151.365 200.177 149.342 199.4 147.387 200.052C145.432 200.704 144.284 202.539 144.823 204.151C145.363 205.762 147.385 206.54 149.34 205.888Z" fill="#E15B40"/>
<path d="M146.506 204.447L146.592 204.1C147.287 201.587 149.501 201.24 149.588 201.24L149.631 201.673C149.544 201.673 147.808 201.977 147.07 203.883L150.239 203.103L150.326 203.537L146.506 204.447Z" fill="#252827"/>
<path d="M149.197 206.873C149.197 214.153 140.949 220.047 130.792 220.047C124.758 220.047 119.375 217.967 116.033 214.717C113.732 212.507 112.386 209.777 112.386 206.83C112.386 199.55 120.634 193.657 130.792 193.657C137.65 193.657 143.641 196.343 146.81 200.33C148.329 202.323 149.197 204.533 149.197 206.873Z" fill="#E15B40"/>
<path d="M130.194 207.299C130.849 207.155 131.202 206.224 130.981 205.219C130.76 204.214 130.05 203.515 129.394 203.659C128.739 203.802 128.386 204.733 128.607 205.739C128.827 206.744 129.538 207.442 130.194 207.299Z" fill="#252827"/>
<path d="M138.223 206.565C138.878 206.421 139.231 205.49 139.01 204.485C138.79 203.48 138.079 202.781 137.423 202.925C136.768 203.068 136.415 203.999 136.636 205.004C136.856 206.01 137.567 206.708 138.223 206.565Z" fill="#252827"/>
<path d="M146.81 200.373C140.255 202.193 133.266 195.823 133.266 195.823C127.796 201.89 116.032 204.057 116.032 204.057C118.333 209.56 116.032 214.76 116.032 214.76C113.732 212.55 112.386 209.82 112.386 206.873C112.386 199.593 120.634 193.7 130.792 193.7C137.65 193.7 143.641 196.387 146.81 200.373Z" fill="#252827"/>
<path d="M117.226 206.608C117.373 204.915 115.827 203.399 113.772 203.221C111.718 203.044 109.934 204.273 109.787 205.966C109.641 207.658 111.187 209.175 113.241 209.352C115.295 209.529 117.079 208.301 117.226 206.608Z" fill="#E15B40"/>
<path d="M115.685 207.263L111.648 207.22V206.787H114.947C113.819 205.097 112.039 205.227 111.952 205.27L111.909 204.837C111.995 204.837 114.253 204.663 115.512 206.917L115.685 207.263Z" fill="#252827"/>
<path d="M134.134 209.647L133.874 209.3C135.35 208.303 136.044 206.267 136.261 205.4L133.266 206.613L133.092 206.223L136.825 204.707L136.739 205.097C136.782 205.183 136.174 208.217 134.134 209.647Z" fill="#252827"/>
<path d="M130.054 212.55C127.536 212.55 126.538 210.817 126.538 210.773L126.928 210.557C126.972 210.643 128.274 212.853 131.877 211.813L132.007 212.247C131.269 212.463 130.618 212.55 130.054 212.55Z" fill="#252827"/>
<path d="M210.621 330.98L99.7107 352.95L83.2152 238.377L120.373 225.723L147.113 223.99C147.113 223.99 182.665 217.62 196.035 252.2L210.621 330.98Z" fill="#D69A66"/>
<path d="M156.967 341.64L96.672 331.673L90.4211 288.297L156.967 341.64Z" fill="#252827"/>
<path d="M119.332 217.23L120.373 225.767L144.422 279.673L147.157 224.033L145.551 214.76L119.332 217.23Z" fill="#F1ECD3"/>
<path d="M147.155 223.815L120.385 225.541L120.413 225.973L147.183 224.247L147.155 223.815Z" fill="#252827"/>
<path d="M675.966 333.363L594.835 494.953L647.23 521.56L728.405 349.137L675.966 333.363Z" fill="#6876D5"/>
<path d="M686.515 384.757V438.143L710.26 387.747L686.515 384.757Z" fill="#252827"/>
<path d="M683.129 365.3C683.129 365.3 702.533 486.417 721.937 500.413C747.027 518.483 833.541 474.717 833.541 474.717L815.613 418.817L766.778 438.013L756.534 402.437C756.534 402.437 763.219 371.757 756.534 350.393L683.129 365.3Z" fill="#6876D5"/>
<path d="M594.835 494.953L574.042 532.307C574.042 532.307 546.043 536.12 530.633 540.93L615.628 596.57L647.23 521.56L594.835 494.953Z" fill="#F1ECD3"/>
<path d="M574.042 532.48V532.047C574.085 532.047 579.468 531.917 586.37 528.147C592.751 524.68 601.824 517.313 608.682 501.973L609.073 502.147C602.171 517.617 593.012 525.027 586.544 528.537C579.555 532.35 574.085 532.48 574.042 532.48Z" fill="#252827"/>
<path d="M833.541 474.673L874.737 463.147C874.737 463.147 897.136 480.307 911.461 487.847L891.232 388.397L815.613 418.773L833.541 474.673Z" fill="#F1ECD3"/>
<path d="M874.606 463.32C874.563 463.277 870.7 459.593 863.146 457.297C856.201 455.217 844.567 453.96 828.81 459.897L828.636 459.507C844.524 453.527 856.244 454.783 863.277 456.907C870.917 459.203 874.867 462.973 874.867 463.017L874.606 463.32Z" fill="#252827"/>
<path d="M757.402 456.95L757.315 456.777L731.183 402.003C720.244 400.53 715.425 392.513 713.298 386.013C710.997 378.993 711.258 372.19 711.258 372.147H711.692C711.692 372.233 711.432 378.95 713.689 385.883C716.771 395.157 722.675 400.443 731.356 401.57H731.487L757.619 456.387L820.475 434.113L820.605 434.503L757.402 456.95Z" fill="#252827"/>
<path d="M766.585 437.84L750.363 470.585L750.753 470.777L766.975 438.032L766.585 437.84Z" fill="#252827"/>
<path d="M692.679 251.81C647.837 281.147 600 264.593 585.155 260.563C585.155 260.563 575.518 255.927 568.616 248.213C561.714 240.5 560.194 248.863 560.194 248.863C560.194 248.863 551.165 246.697 544.35 240.803C538.36 235.603 533.932 243.88 537.535 247.303C537.535 247.303 530.199 248.733 534.019 256.317C534.019 256.317 528.376 256.23 531.675 265.633C535.408 276.337 635.726 341.25 724.498 281.45L692.679 251.81Z" fill="#F1ECD3"/>
<path d="M552.12 256.187C543.656 253.327 537.448 247.563 537.405 247.52L537.708 247.217C537.752 247.26 543.916 252.937 552.294 255.797L552.12 256.187Z" fill="#252827"/>
<path d="M545.956 266.283C538.62 262.253 533.888 256.533 533.845 256.49L534.192 256.23C534.236 256.273 538.924 261.907 546.173 265.937L545.956 266.283Z" fill="#252827"/>
<path d="M704.703 219.093C706.657 204.447 678.007 210.687 675.055 222.257C675.055 222.257 657.214 219.7 656.128 238.853C656.128 238.853 640.241 257.487 652.135 261.083C660.252 263.553 661.034 241.843 661.034 241.843C661.034 241.843 681.175 238.55 679.396 228.453C679.396 228.497 703.531 227.717 704.703 219.093Z" fill="#252827"/>
<path d="M702.625 209.993C703.149 208.427 702.026 206.641 700.116 206.004C698.206 205.367 696.232 206.12 695.708 207.686C695.184 209.252 696.307 211.038 698.217 211.675C700.127 212.312 702.1 211.559 702.625 209.993Z" fill="#F1ECD3"/>
<path d="M701.057 210.253L697.237 209.3L697.324 208.867L700.406 209.647C699.711 207.827 698.018 207.523 697.931 207.523L697.975 207.09C698.062 207.09 700.232 207.437 700.927 209.863L701.057 210.253Z" fill="#252827"/>
<path d="M698.409 212.637C698.409 219.743 706.44 225.463 716.293 225.463C722.154 225.463 727.406 223.427 730.662 220.307C732.876 218.183 734.221 215.497 734.221 212.637C734.221 205.53 726.191 199.81 716.337 199.81C709.652 199.81 703.835 202.453 700.753 206.31C699.234 208.173 698.409 210.34 698.409 212.637Z" fill="#F1ECD3"/>
<path d="M718.465 211.528C718.676 210.57 718.315 209.677 717.659 209.533C717.003 209.39 716.301 210.05 716.091 211.009C715.88 211.967 716.241 212.861 716.897 213.004C717.553 213.147 718.255 212.487 718.465 211.528Z" fill="#252827"/>
<path d="M710.659 210.813C710.869 209.855 710.508 208.962 709.852 208.818C709.197 208.675 708.495 209.335 708.284 210.294C708.074 211.252 708.435 212.145 709.09 212.289C709.746 212.432 710.448 211.772 710.659 210.813Z" fill="#252827"/>
<path d="M700.71 206.31C707.091 208.087 713.906 201.89 713.906 201.89C719.245 207.783 730.662 209.907 730.662 209.907C728.405 215.237 730.662 220.307 730.662 220.307C732.876 218.183 734.221 215.497 734.221 212.637C734.221 205.53 726.191 199.81 716.337 199.81C709.608 199.81 703.792 202.41 700.71 206.31Z" fill="#252827"/>
<path d="M730.271 217.317C733.006 202.8 758.053 216.97 757.228 228.843C757.228 228.843 774.983 232.007 769.99 250.51C769.99 250.51 781.798 273.173 769.426 272.87C760.961 272.697 764.391 251.81 764.391 251.81C764.391 251.81 746.289 242.407 751.151 233.393C751.151 233.35 728.665 225.81 730.271 217.317Z" fill="#252827"/>
<path d="M712.604 214.803C711.432 214.803 710.216 214.197 710.129 214.197L709.999 214.11L711.258 206.007L711.692 206.093L710.477 213.893C710.997 214.11 712.647 214.76 713.559 214.197C713.949 213.937 714.123 213.503 714.123 212.81H714.557C714.557 213.633 714.297 214.197 713.776 214.543C713.472 214.76 713.038 214.803 712.604 214.803Z" fill="#252827"/>
<path d="M717.031 218.14C716.467 218.14 715.859 218.053 715.165 217.837L715.295 217.403C718.811 218.4 720.07 216.277 720.113 216.19L720.504 216.407C720.461 216.45 719.462 218.14 717.031 218.14Z" fill="#252827"/>
<path d="M733.363 215.014C735.37 214.84 736.881 213.366 736.738 211.721C736.596 210.076 734.854 208.883 732.847 209.056C730.841 209.229 729.33 210.703 729.472 212.348C729.615 213.994 731.357 215.187 733.363 215.014Z" fill="#F1ECD3"/>
<path d="M730.966 213.027L731.139 212.723C732.355 210.513 734.569 210.687 734.655 210.687L734.612 211.12C734.525 211.12 732.832 210.99 731.704 212.593H734.873V213.027H730.966Z" fill="#252827"/>
<path d="M771.249 377.433L647.707 359.277L703.661 235.127L701.968 220.263H730.705C740.429 227.153 747.982 236.6 753.799 247.477C759.138 257.443 763.045 268.667 765.91 280.15C777.153 326.213 771.249 377.433 771.249 377.433Z" fill="#E15B40"/>
<path d="M729.229 355.68L728.795 355.637L731.096 333.58C715.599 331.587 710.52 312.13 710.042 310.18L671.452 306.713L671.495 306.28L710.39 309.79L710.433 309.963C710.477 310.18 715.208 331.327 731.356 333.19L731.573 333.233L729.229 355.68Z" fill="#252827"/>
<path d="M654.121 344.984L654.061 345.413L772.032 361.858L772.092 361.428L654.121 344.984Z" fill="#252827"/>
<path d="M765.867 280.193C761.786 289.293 750.543 298.827 750.543 298.827L739.951 249.297L753.755 247.52C759.138 257.487 763.045 268.71 765.867 280.193Z" fill="#252827"/>
<path d="M738.274 233.659L703.615 234.944L703.631 235.377L738.291 234.092L738.274 233.659Z" fill="#252827"/>
<path d="M99.7541 352.993C99.7541 352.993 210.057 406.163 259.369 433.983L204.283 548.557L269.267 569.313C269.267 569.313 330.69 454.177 320.359 430.04C300.912 384.627 210.621 331.023 210.621 331.023L99.7541 352.993Z" fill="#252827"/>
<path d="M259.404 433.765L259.312 434.188L281.886 439.048L281.978 438.624L259.404 433.765Z" fill="#F1ECD3"/>
<path d="M204.283 548.557L180.538 596.57H307.901C307.901 596.57 313.197 574.34 269.223 569.313C269.223 569.313 274.519 559.477 277.818 553.107C281.074 546.737 243.829 535.817 239.618 536.727C235.407 537.637 231.37 557.223 231.37 557.223L204.283 548.557Z" fill="#F1ECD3"/>
<path d="M247.692 576.68C237.491 569.097 231.24 557.397 231.197 557.31L231.588 557.093C231.631 557.223 237.838 568.793 247.953 576.333L247.692 576.68Z" fill="#252827"/>
<path d="M239.748 582.443L239.445 582.097C239.575 581.967 252.25 571.003 269.223 569.053L269.267 569.487C252.467 571.437 239.879 582.313 239.748 582.443Z" fill="#252827"/>
<path d="M163.632 237.685L163.215 237.807L180.371 296.1L180.788 295.978L163.632 237.685Z" fill="#252827"/>
<path d="M750.456 223.21C750.456 223.21 643.409 320.97 570.482 333.883C498.119 346.667 554.855 304.157 555.723 303.507C555.463 303.593 546.564 305.977 532.109 309.443C490.87 319.367 404.399 338.043 345.493 336.31C309.767 335.227 325.264 308.62 325.959 307.407V307.363C325.785 307.407 321.488 308.533 311.113 310.05C286.587 313.647 228.158 319.41 110.129 317.98L174.895 146.38C174.895 146.38 240.313 187.157 306.034 203.363C318.623 206.483 331.255 208.693 343.409 209.517C343.409 209.517 336.03 197.557 345.276 183.257C352.655 171.817 470.381 204.23 517.263 217.663C528.809 220.957 536.059 223.123 536.319 223.21C536.276 223.123 535.798 222.603 535.147 221.65C532.456 217.75 526.769 207.133 536.319 197.903C542.31 192.183 662.77 230.663 750.456 223.21Z" fill="#2E473D"/>
<path d="M342.802 284.57C332.036 294.277 325.959 307.32 325.959 307.32C325.785 307.363 321.488 308.49 311.113 310.007C313.197 295.577 323.354 285.09 323.354 285.09C293.966 233.393 299.002 211.987 306.077 203.32C318.666 206.44 331.298 208.65 343.453 209.473C346.057 217.967 355.781 225.507 356.085 225.767C355.52 225.55 326.35 213.243 320.272 229.19C314.152 245.31 342.802 284.57 342.802 284.57Z" fill="#252827"/>
<path d="M580.727 276.943C580.727 276.943 569.093 291.72 555.723 303.463C555.463 303.55 546.564 305.933 532.109 309.4L538.62 290.55C538.62 290.55 517.784 284.397 513.703 270.703C509.623 257.01 538.62 241.367 538.62 241.367C538.62 241.367 521.907 230.923 517.306 217.663C528.853 220.957 536.102 223.123 536.363 223.21C536.363 223.21 550.123 234.65 569.006 239.2C569.006 239.2 540.009 257.053 538.663 269.273C537.231 281.537 580.727 276.943 580.727 276.943Z" fill="#252827"/>
<path d="M291.535 319.887C297.309 313.3 290.363 310.007 290.363 310.007C294.878 307.537 292.577 298.047 285.285 301.773C276.993 306.02 269.788 306.843 269.788 306.843C269.788 306.843 268.095 296.963 259.239 302.813C250.384 308.663 239.575 310.787 239.575 310.787V345.02C258.892 345.627 287.412 335.487 291.449 329.723C297.309 321.36 291.535 319.887 291.535 319.887Z" fill="#E15B40"/>
<path d="M257.199 309.313V308.88C261.54 308.88 269.701 306.713 269.744 306.67L269.874 307.103C269.788 307.103 261.583 309.313 257.199 309.313Z" fill="#252827"/>
<path d="M273.564 314.99L273.521 314.557C282.593 313.907 290.19 309.833 290.233 309.79L290.45 310.18C290.407 310.267 282.723 314.34 273.564 314.99Z" fill="#252827"/>
<path d="M277.08 326.69L276.993 326.257C285.285 324.133 291.362 319.757 291.449 319.713L291.709 320.06C291.579 320.103 285.415 324.567 277.08 326.69Z" fill="#252827"/>
<path d="M83.2586 238.42C60.0782 246.307 68.1089 361.573 239.575 345.107V310.873C239.575 310.873 175.503 313.95 149.197 294.927C105.745 263.467 103.965 231.357 83.2586 238.42Z" fill="#D69A66"/>
<path d="M126.234 275.123C119.115 267.627 113.732 260.52 109.391 254.8C99.9712 242.407 94.2846 234.91 83.3455 238.637L83.2152 238.247C94.4582 234.433 100.232 242.017 109.738 254.583C114.079 260.303 119.462 267.41 126.538 274.863L126.234 275.123Z" fill="#252827"/>
<path d="M223.948 311.133H223.513V346.233H223.948V311.133Z" fill="#252827"/>
<path d="M99.7541 352.993C99.7541 352.993 111.692 408.46 163.392 433.983L107.003 548.557L171.987 569.313C171.987 569.313 231.197 461.153 223.774 435.977C210.664 391.517 156.967 341.683 156.967 341.683L99.7541 352.993Z" fill="#252827"/>
<path d="M211.229 408.547C204.066 394.723 180.625 366.817 180.408 366.557L180.755 366.297C180.972 366.557 204.457 394.507 211.619 408.373L211.229 408.547Z" fill="#F1ECD3"/>
<path d="M163.447 433.733L163.35 434.155L184.501 439.017L184.598 438.595L163.447 433.733Z" fill="#F1ECD3"/>
<path d="M107.003 548.557L83.2586 596.57H210.621C210.621 596.57 215.917 574.34 171.943 569.313C171.943 569.313 177.239 559.477 180.538 553.107C183.794 546.737 146.549 535.817 142.338 536.727C138.128 537.637 134.091 557.223 134.091 557.223L107.003 548.557Z" fill="#F1ECD3"/>
<path d="M150.369 576.68C140.168 569.097 133.917 557.397 133.874 557.31L134.264 557.093C134.308 557.223 140.515 568.793 150.63 576.333L150.369 576.68Z" fill="#252827"/>
<path d="M210.838 596.57L210.404 596.527C210.795 590.85 208.668 585.693 204.066 581.187C195.211 572.563 179.497 568.793 171.987 569.487C155.144 571.047 142.599 582.27 142.469 582.4L142.165 582.097C142.295 581.967 154.927 570.613 171.943 569.053C179.54 568.36 195.428 572.173 204.37 580.883C209.058 585.477 211.229 590.763 210.838 596.57Z" fill="#252827"/>
<path d="M740.516 233.437C731.834 232.83 726.798 257.963 712.3 278.157L750.543 298.87C767.95 268.277 758.748 234.693 740.516 233.437Z" fill="#E15B40"/>
<path d="M712.473 278.287L712.126 278.027C718.334 269.403 722.718 260.043 726.581 251.767C731.617 241.02 735.263 233.177 740.212 233.177C740.299 233.177 740.429 233.177 740.516 233.177C742.252 233.307 743.945 233.697 745.551 234.433L745.378 234.823C743.815 234.13 742.165 233.74 740.472 233.61C735.654 233.263 731.79 241.497 726.929 251.94C723.282 259.827 718.724 269.62 712.473 278.287Z" fill="#252827"/>
<path d="M712.3 278.157C676.314 317.85 625.872 313.907 610.462 313.777C610.462 313.777 599.957 311.74 591.319 306.02C582.68 300.3 583.331 308.793 583.331 308.793C583.331 308.793 574.042 309.01 565.968 305.023C558.849 301.513 556.678 310.613 561.019 312.997C561.019 312.997 554.247 316.203 559.891 322.617C559.891 322.617 554.421 323.96 559.977 332.237C566.315 341.64 679.786 379.167 750.543 298.913L712.3 278.157Z" fill="#F1ECD3"/>
<path d="M577.384 317.807C568.442 317.157 561.019 313.17 560.932 313.127L561.149 312.737C561.236 312.78 568.616 316.723 577.428 317.373L577.384 317.807Z" fill="#252827"/>
<path d="M573.998 329.203C565.881 327.123 559.847 322.79 559.804 322.747L560.064 322.4C560.108 322.443 566.055 326.733 574.129 328.77L573.998 329.203Z" fill="#252827"/>
<path d="M527.29 231.833L528.419 233.35C528.332 233.263 527.898 232.743 527.29 231.833Z" fill="#252827"/>
<path d="M411.822 303.073H404.356V313.083H411.822V303.073Z" fill="#252827"/>
<path d="M408.089 348.963C419.572 348.963 428.882 339.67 428.882 328.207C428.882 316.743 419.572 307.45 408.089 307.45C396.605 307.45 387.296 316.743 387.296 328.207C387.296 339.67 396.605 348.963 408.089 348.963Z" fill="#6876D5"/>
<path d="M419.713 328.234L408.079 316.621L396.446 328.234L408.079 339.847L419.713 328.234Z" fill="#F1ECD3"/>
<path d="M408.089 303.507L407.915 303.16C407.655 302.727 401.968 292.023 404.529 287.733C405.224 286.607 406.439 286 408.132 286C409.825 286 411.041 286.563 411.735 287.733C414.296 291.98 408.566 302.683 408.349 303.16L408.089 303.507ZM408.089 286.477C406.57 286.477 405.484 286.997 404.877 287.993C402.706 291.633 407.09 300.69 408.089 302.597C409.087 300.647 413.472 291.59 411.301 287.993C410.693 286.953 409.608 286.477 408.089 286.477Z" fill="#252827"/>
<path d="M246.39 211.207H238.924V221.217H246.39V211.207Z" fill="#252827"/>
<path d="M242.7 257.097C254.184 257.097 263.493 247.804 263.493 236.34C263.493 224.876 254.184 215.583 242.7 215.583C231.217 215.583 221.907 224.876 221.907 236.34C221.907 247.804 231.217 257.097 242.7 257.097Z" fill="#F7ACB2"/>
<path d="M242.7 220.783C242.7 228.41 250.123 233.783 257.416 231.443C250.167 233.783 247.302 242.537 251.816 248.69C247.345 242.537 238.142 242.537 233.628 248.69C238.099 242.537 235.277 233.783 228.028 231.443C235.234 233.783 242.7 228.41 242.7 220.783Z" fill="#F1ECD3"/>
<path d="M242.7 211.683L242.527 211.337C242.266 210.903 236.58 200.2 239.141 195.91C239.835 194.783 241.051 194.177 242.744 194.177C244.437 194.177 245.652 194.74 246.347 195.91C248.908 200.157 243.178 210.86 242.961 211.337L242.7 211.683ZM242.7 194.61C241.181 194.61 240.096 195.13 239.488 196.127C237.318 199.767 241.702 208.823 242.7 210.73C243.699 208.78 248.083 199.723 245.913 196.127C245.305 195.13 244.22 194.61 242.7 194.61Z" fill="#252827"/>
<path d="M500.377 232.96H492.91V242.97H500.377V232.96Z" fill="#252827"/>
<path d="M496.643 278.85C508.127 278.85 517.436 269.557 517.436 258.093C517.436 246.63 508.127 237.337 496.643 237.337C485.16 237.337 475.85 246.63 475.85 258.093C475.85 269.557 485.16 278.85 496.643 278.85Z" fill="#E15B40"/>
<path d="M507.496 247.26C506.454 246.22 501.809 249.123 496.643 253.933C491.434 249.123 486.833 246.22 485.791 247.26C484.749 248.3 487.658 252.937 492.476 258.093C487.658 263.293 484.749 267.887 485.791 268.927C486.833 269.967 491.478 267.063 496.643 262.253C501.853 267.063 506.497 269.967 507.496 268.927C508.494 267.887 505.629 263.25 500.811 258.093C505.629 252.937 508.538 248.3 507.496 247.26Z" fill="#F1ECD3"/>
<path d="M496.643 233.437L496.47 233.09C496.209 232.657 490.523 221.953 493.084 217.663C493.778 216.537 494.994 215.93 496.687 215.93C498.38 215.93 499.595 216.493 500.29 217.663C502.851 221.91 497.121 232.613 496.904 233.09L496.643 233.437ZM496.643 216.363C495.124 216.363 494.039 216.883 493.431 217.88C491.261 221.52 495.645 230.577 496.643 232.483C497.642 230.533 502.026 221.477 499.856 217.88C499.248 216.883 498.163 216.363 496.643 216.363Z" fill="#252827"/>
<path d="M624.57 235.777H617.104V245.787H624.57V235.777Z" fill="#252827"/>
<path d="M620.837 281.667C632.32 281.667 641.63 272.374 641.63 260.91C641.63 249.446 632.32 240.153 620.837 240.153C609.353 240.153 600.044 249.446 600.044 260.91C600.044 272.374 609.353 281.667 620.837 281.667Z" fill="#D69A66"/>
<path d="M610.462 242.883L615.628 251.897L620.837 260.91H610.462H600.044L605.253 251.897L610.462 242.883Z" fill="#F1ECD3"/>
<path d="M631.255 242.883L636.464 251.897L641.673 260.91H631.255H620.837L626.046 251.897L631.255 242.883Z" fill="#F1ECD3"/>
<path d="M631.255 278.893L626.046 269.88L620.837 260.91H631.255H641.673L636.464 269.88L631.255 278.893Z" fill="#F1ECD3"/>
<path d="M610.462 278.893L605.253 269.88L600.044 260.91H610.462H620.837L615.628 269.88L610.462 278.893Z" fill="#F1ECD3"/>
<path d="M620.837 236.21L620.663 235.863C620.403 235.43 614.716 224.727 617.277 220.437C617.972 219.31 619.187 218.703 620.88 218.703C622.573 218.703 623.789 219.267 624.483 220.437C627.044 224.683 621.314 235.387 621.097 235.863L620.837 236.21ZM620.837 219.137C619.317 219.137 618.232 219.657 617.625 220.653C615.454 224.293 619.838 233.35 620.837 235.257C621.835 233.307 626.22 224.25 624.049 220.653C623.485 219.657 622.4 219.137 620.837 219.137Z" fill="#252827"/>
<path d="M840.226 104.217L823.036 102.05L811.924 100.62L814.355 97.5L820.996 88.92L812.401 95.55L809.276 97.9767L807.843 86.8833L805.673 69.7233L803.502 86.8833L802.07 97.9767L798.944 95.55L790.349 88.92L796.991 97.5L799.422 100.62L788.309 102.05L771.119 104.217L788.309 106.383L799.422 107.813L796.991 110.933L790.349 119.513L798.944 112.883L802.07 110.457L803.502 121.55L805.673 138.71L807.843 121.55L809.276 110.457L812.401 112.883L820.996 119.513L814.355 110.933L811.924 107.813L823.036 106.383L840.226 104.217ZM805.76 104.173L805.846 104.26L805.76 104.347L805.673 104.433L805.586 104.347L805.499 104.26L805.586 104.173L805.673 104.087L805.76 104.173Z" fill="#F1ECD3"/>
<path d="M314.933 118.647L304.515 117.303L297.786 116.437L299.262 114.53L303.299 109.33L298.09 113.36L296.18 114.833L295.312 108.117L293.966 97.7167L292.621 108.117L291.752 114.833L289.843 113.36L284.633 109.33L288.67 114.53L290.146 116.437L283.418 117.303L273 118.647L283.418 119.99L290.146 120.857L288.67 122.763L284.633 127.963L289.843 123.933L291.752 122.46L292.621 129.177L293.966 139.577L295.312 129.177L296.18 122.46L298.09 123.933L303.299 127.963L299.262 122.763L297.786 120.857L304.515 119.99L314.933 118.647ZM294.01 118.603V118.69L293.966 118.733L293.923 118.69L293.88 118.647L293.923 118.603H294.01Z" fill="#F1ECD3"/>
<path d="M896.354 209.647L885.459 207.653L882.29 189.237L879.338 207.653L868.182 209.647L879.338 211.64L882.29 230.057L885.459 211.64L896.354 209.647Z" fill="#F1ECD3"/>
<path d="M665.722 62.92L656.649 61.2733L654.001 45.9333L651.614 61.2733L642.324 62.92L651.614 64.5667L654.001 79.8633L656.649 64.5667L665.722 62.92Z" fill="#F1ECD3"/>
<path d="M101.751 56.16L90.8552 54.1667L87.6864 35.75L84.7345 54.1667L73.5784 56.16L84.7345 58.1533L87.6864 76.57L90.8552 58.1533L101.751 56.16Z" fill="#F1ECD3"/>
<path d="M463.566 517.183H384.04V596.57H463.566V517.183Z" fill="#6876D5"/>
<path d="M494.994 517.183H463.609V596.57H494.994V517.183Z" fill="#252827"/>
<path d="M415.15 516.539L383.719 547.915L384.333 548.528L415.764 517.152L415.15 516.539Z" fill="#F1ECD3"/>
<path d="M464.109 571.551L439.369 596.247L439.983 596.86L464.723 572.163L464.109 571.551Z" fill="#F1ECD3"/>
<path d="M374.143 539.5C366.807 539.5 359.558 538.33 356.041 534.473C353.697 531.873 353.263 528.233 354.739 523.77C355.303 522.037 356.562 520.737 358.385 520C367.588 516.23 389.944 526.63 394.676 528.927C393.373 523.9 387.991 500.977 397.584 497.467C400.188 496.513 402.489 497.423 404.226 500.153C408.697 507.13 408.48 524.42 403.878 529.057L395.804 537.117L395.674 537.16C394.979 537.247 384.474 539.5 374.143 539.5ZM363.378 520C361.598 520 360.035 520.217 358.733 520.78C357.127 521.43 356.085 522.513 355.607 524.03C354.218 528.19 354.565 531.527 356.736 533.91C364.55 542.577 393.33 536.727 395.457 536.293L403.357 528.407C407.698 524.073 407.828 507.173 403.618 500.587C402.098 498.203 400.188 497.423 397.975 498.247C388.164 501.843 395.761 529.317 395.848 529.62L396.108 530.573L395.24 530.14C394.936 529.967 375.011 520 363.378 520Z" fill="#F1ECD3"/>
<path d="M796.036 556.877H676.227V596.57H796.036V556.877Z" fill="#E15B40"/>
<path d="M831.588 556.877H796.036V596.57H831.588V556.877Z" fill="#252827"/>
<path d="M796.166 596.743L795.906 596.397L820.909 576.723L795.906 557.05L796.166 556.703L821.604 576.723L796.166 596.743Z" fill="#F1ECD3"/>
<path d="M817.064 580.056L816.741 580.345L831.436 596.758L831.76 596.469L817.064 580.056Z" fill="#F1ECD3"/>
<path d="M831.385 556.696L816.7 573.118L817.024 573.407L831.708 556.985L831.385 556.696Z" fill="#F1ECD3"/>
<path d="M687.86 596.57H676.227L687.34 556.877H698.973L687.86 596.57Z" fill="#F1ECD3"/>
<path d="M720.244 596.57H708.61L719.679 556.877H731.313L720.244 596.57Z" fill="#F1ECD3"/>
<path d="M752.583 596.57H740.95L752.063 556.877H763.696L752.583 596.57Z" fill="#F1ECD3"/>
<path d="M784.967 596.57H773.333L784.402 556.877H796.036L784.967 596.57Z" fill="#F1ECD3"/>
<path d="M736.131 556.877C751.331 556.877 763.653 548.961 763.653 539.197C763.653 529.432 751.331 521.517 736.131 521.517C720.932 521.517 708.61 529.432 708.61 539.197C708.61 548.961 720.932 556.877 736.131 556.877Z" fill="#D69A66"/>
<path d="M708.61 539.197L697.237 545.35L685.907 551.503V539.197V526.89L697.237 533.043L708.61 539.197Z" fill="#D69A66"/>
<path d="M763.696 539.197L775.026 533.043L786.399 526.89V539.197V551.503L775.026 545.35L763.696 539.197Z" fill="#D69A66"/>
<path d="M717.769 548.73C712.604 548.73 708.567 539.673 708.393 539.327L708.35 539.24L708.393 539.153C708.567 538.763 712.604 529.75 717.769 529.75C722.935 529.75 726.972 538.807 727.146 539.153L727.189 539.24L727.146 539.327C726.972 539.673 722.935 548.73 717.769 548.73ZM708.827 539.197C709.261 540.15 713.168 548.253 717.769 548.253C722.371 548.253 726.277 540.107 726.712 539.197C726.277 538.243 722.371 530.14 717.769 530.14C713.168 530.14 709.261 538.287 708.827 539.197Z" fill="#F1ECD3"/>
<path d="M736.131 548.73C730.966 548.73 726.929 539.673 726.755 539.327L726.712 539.24L726.755 539.153C726.929 538.763 730.966 529.75 736.131 529.75C741.297 529.75 745.334 538.807 745.508 539.153L745.551 539.24L745.508 539.327C745.334 539.673 741.297 548.73 736.131 548.73ZM727.189 539.197C727.623 540.15 731.53 548.253 736.131 548.253C740.733 548.253 744.64 540.107 745.074 539.197C744.64 538.243 740.733 530.14 736.131 530.14C731.53 530.14 727.623 538.287 727.189 539.197Z" fill="#F1ECD3"/>
<path d="M754.493 548.73C749.328 548.73 745.291 539.673 745.117 539.327L745.074 539.24L745.117 539.153C745.291 538.763 749.328 529.75 754.493 529.75C759.659 529.75 763.696 538.807 763.87 539.153L763.913 539.24L763.87 539.327C763.696 539.673 759.659 548.73 754.493 548.73ZM745.551 539.197C745.985 540.15 749.892 548.253 754.493 548.253C759.095 548.253 763.002 540.107 763.436 539.197C763.002 538.243 759.095 530.14 754.493 530.14C749.892 530.14 745.985 538.287 745.551 539.197Z" fill="#F1ECD3"/>
</g>
<defs>
<clipPath id="clip0_5_279">
<rect width="955" height="650" fill="white"/>
</clipPath>
</defs>
</svg>
