<svg width="539" height="805" viewBox="0 0 539 805" fill="none" xmlns="http://www.w3.org/2000/svg">
<g clip-path="url(#clip0_5_724)">
<path d="M59.2541 317.78L50.6301 316.564L45.0604 315.78L46.2821 314.054L49.6239 309.346L45.3119 312.995L43.7309 314.328L43.0122 308.248L41.8983 298.833L40.7843 308.248L40.0657 314.328L38.4846 312.995L34.1726 309.346L37.5144 314.054L38.7361 315.78L33.1665 316.564L24.5425 317.78L33.1665 318.996L38.7361 319.781L37.5144 321.507L34.1726 326.214L38.4846 322.566L40.0657 321.232L40.7843 327.313L41.8983 336.727L43.0122 327.313L43.7309 321.232L45.3119 322.566L49.6239 326.214L46.2821 321.507L45.0604 319.781L50.6301 318.996L59.2541 317.78ZM41.9342 317.741V317.82L41.8983 317.859L41.8623 317.82L41.8264 317.78L41.8623 317.741H41.9342Z" fill="#F1ECD3"/>
<path d="M514.35 384.231L499.761 382.191L490.31 380.897L492.358 377.994L498 370.031L490.706 376.19L488.046 378.426L486.861 368.109L484.992 352.183L483.124 368.109L481.938 378.426L479.279 376.19L471.984 370.031L477.626 377.994L479.674 380.897L470.224 382.191L455.635 384.231L470.224 386.271L479.674 387.566L477.626 390.468L471.984 398.432L479.279 392.273L481.938 390.037L483.124 400.354L484.992 416.28L486.861 400.354L488.046 390.037L490.706 392.273L498 398.432L492.358 390.468L490.31 387.566L499.761 386.271L514.35 384.231ZM485.064 384.153L485.136 384.231L485.064 384.31L484.992 384.388L484.92 384.31L484.848 384.231L484.92 384.153L484.992 384.074L485.064 384.153Z" fill="#F1ECD3"/>
<path d="M445.43 131.647L435.62 130.274L429.295 129.411L430.661 127.489L434.434 122.154L429.547 126.273L427.786 127.763L426.996 120.859L425.738 110.15L424.48 120.859L423.69 127.763L421.929 126.273L417.042 122.154L420.815 127.489L422.181 129.411L415.856 130.274L406.047 131.647L415.856 133.02L422.181 133.883L420.815 135.805L417.042 141.14L421.929 137.021L423.69 135.53L424.48 142.434L425.738 153.143L426.996 142.434L427.786 135.53L429.547 137.021L434.434 141.14L430.661 135.805L429.295 133.883L435.62 133.02L445.43 131.647ZM425.774 131.607L425.81 131.647L425.774 131.686L425.738 131.725L425.702 131.686L425.666 131.647L425.702 131.607L425.738 131.568L425.774 131.607Z" fill="#F1ECD3"/>
<path d="M67.9859 56.6443L58.9666 54.8398L56.3435 38.1682L53.9359 54.8398L44.701 56.6443L53.9359 58.4487L56.3435 75.1595L58.9666 58.4487L67.9859 56.6443Z" fill="#F1ECD3"/>
<path d="M514.458 205.237L509.247 204.178L507.702 194.528L506.301 204.178L500.983 205.237L506.301 206.257L507.702 215.907L509.247 206.257L514.458 205.237Z" fill="#F1ECD3"/>
<path d="M346.361 54.4084L338.887 52.9178L336.695 39.0706L334.683 52.9178L326.993 54.4084L334.683 55.8991L336.695 69.7855L338.887 55.8991L346.361 54.4084Z" fill="#F1ECD3"/>
<path d="M291.347 125.488L186.889 323.743C186.889 323.743 202.844 337.825 237.268 321.193L133.564 597.51C133.564 597.51 150.201 618.889 182.649 597.51L109.345 782.78H473.314L406.909 599.903C406.909 599.903 425.882 618.889 444.855 601.08L347.116 329.666C347.116 329.666 377.408 340.179 383.732 318.8L291.347 125.488Z" fill="#2E473D"/>
<path d="M182.685 597.471C182.685 597.471 200.436 584.486 208.701 574.248C208.701 574.248 203.49 600.53 226.739 607.552C249.988 614.574 262.601 590.88 262.601 590.88C262.601 590.88 268.278 622.851 283.586 621.713C298.929 620.575 297.133 597.981 297.133 597.981C297.133 597.981 306.188 617.437 319.483 617.437C332.779 617.437 339.462 589.39 339.462 589.39C339.462 589.39 355.596 621.988 371.91 621.713C388.224 621.438 393.29 589.39 393.29 589.39C393.29 589.39 400.8 595.313 406.873 599.863L409.676 607.552L395.195 603.08C395.195 603.08 387.038 635.678 370.724 638.385C354.41 641.052 339.642 608.023 339.642 608.023C339.642 608.023 334.036 632.54 322.178 633.677C310.356 634.815 299.935 614.809 299.935 614.809C299.935 614.809 292.964 636.933 279.238 638.542C265.475 640.15 259.151 611.671 259.151 611.671C259.151 611.671 249.413 626.852 234.752 629.951C220.092 633.05 202.664 594.097 202.664 594.097C202.664 594.097 187.464 607.591 177.942 609.435L182.685 597.471Z" fill="#252827"/>
<path d="M237.268 321.193C237.268 321.193 252.036 310.641 258.181 303.07C258.181 303.07 263.068 336.021 272.878 334.256C282.652 332.49 291.347 305.973 291.347 305.973C291.347 305.973 294.474 328.489 306.332 326.685C318.154 324.919 316.537 303.07 316.537 303.07C316.537 303.07 334.827 327.273 347.152 329.705L352.65 344.965C352.65 344.965 327.676 330.921 321.424 324.017C321.424 324.017 316.537 340.924 305.505 339.59C294.474 338.257 291.347 324.017 291.347 324.017C291.347 324.017 280.747 345.004 270.291 344.965C259.834 344.925 254.911 317.231 254.911 317.231C254.911 317.231 243.197 332.765 232.74 333.275L237.268 321.193Z" fill="#252827"/>
<path d="M128.821 741.827C128.749 741.788 122.03 739.081 116.244 731.589C110.926 724.685 105.321 712.171 108.914 691.891C114.484 660.509 184.985 641.797 259.618 621.988C302.235 610.69 346.289 599 380.929 584.329C420.061 567.776 441.153 549.77 445.465 529.254C448.232 515.956 446.579 504.698 440.471 495.794C427.714 477.161 399.579 475.003 399.291 475.003L399.327 474.219C399.615 474.219 428.074 476.415 441.046 495.323C447.262 504.423 448.987 515.878 446.148 529.411C443.813 540.591 436.841 550.751 424.84 560.479C414.239 569.07 399.974 577.112 381.181 585.036C346.469 599.707 302.415 611.396 259.762 622.733C185.344 642.503 115.059 661.136 109.597 692.008C106.075 711.975 111.537 724.253 116.747 731.039C122.389 738.375 128.965 741.042 129.037 741.082L128.821 741.827Z" fill="#252827"/>
<path d="M242.873 556.282C242.622 556.203 216.929 550.241 192.459 538.747C178.086 532 166.946 524.665 159.328 516.976C149.77 507.326 145.817 497.049 147.542 486.457C148.584 480.103 150.561 471.904 156.669 464.922C163.784 456.802 175.139 452.016 190.447 450.682C256.959 444.916 310.644 430.48 345.679 408.944C374.389 391.331 384.846 372.463 385.062 361.715C385.385 347.279 383.732 331.588 369.574 314.603C355.129 297.264 328.538 280.004 288.257 261.842C267.847 252.624 251.929 240.189 242.262 225.831C233.746 213.2 230.333 199.392 232.596 186.918C236.19 167.108 253.186 154.32 275.896 154.32V155.105C253.546 155.105 236.837 167.657 233.315 187.075C231.087 199.353 234.465 212.926 242.837 225.4C252.432 239.639 268.206 251.996 288.509 261.136C328.862 279.337 355.56 296.676 370.077 314.093C384.379 331.274 386.068 347.161 385.744 361.754C385.493 372.738 374.928 391.88 345.966 409.65C329.796 419.575 309.709 428.048 286.245 434.795C258.756 442.719 226.524 448.328 190.447 451.467C157.604 454.33 150.597 471.747 148.153 486.575C146.464 496.892 150.345 506.895 159.724 516.349C167.27 523.959 178.337 531.255 192.639 537.963C217.037 549.417 242.658 555.38 242.909 555.458L242.873 556.282Z" fill="#252827"/>
<path d="M204.389 408.356C191.561 393.842 182.541 379.955 177.583 367.128C172.983 355.242 171.654 343.827 173.702 333.197C177.151 315.309 190.015 299.03 213.049 283.496C233.135 269.923 257.462 259.057 280.999 248.505C312.261 234.501 339.283 222.419 347.296 207.865C349.739 203.433 350.242 198.686 348.769 193.822C342.84 173.973 306.511 157.262 306.152 157.105L306.439 156.399C306.547 156.438 315.782 160.675 325.628 167.304C338.923 176.248 346.936 185.074 349.488 193.587C351.033 198.686 350.494 203.629 347.942 208.297C339.786 223.046 312.692 235.207 281.286 249.25C257.786 259.763 233.495 270.668 213.444 284.162C190.59 299.579 177.834 315.662 174.42 333.353C170.18 355.399 180.134 379.759 204.928 407.807L204.389 408.356Z" fill="#252827"/>
<path d="M330.73 300.991C330.73 308.091 325.484 313.818 318.98 313.818C312.476 313.818 307.23 308.091 307.23 300.991C307.23 293.891 312.476 288.164 318.98 288.164C325.484 288.164 330.73 293.93 330.73 300.991Z" fill="#EEA5AE"/>
<path d="M330.73 300.991C330.73 308.091 325.484 313.818 318.98 313.818C312.476 313.818 307.23 308.091 307.23 300.991C307.23 300.991 319.519 293.067 330.73 300.991Z" fill="#F1ECD3"/>
<path d="M450.496 586.997C450.496 594.097 445.25 599.824 438.746 599.824C432.242 599.824 426.996 594.097 426.996 586.997C426.996 579.897 432.242 574.169 438.746 574.169C445.214 574.169 450.496 579.936 450.496 586.997Z" fill="#E15B40"/>
<path d="M450.496 586.997C450.496 594.097 445.25 599.824 438.746 599.824C432.242 599.824 426.996 594.097 426.996 586.997C426.996 586.997 439.249 579.034 450.496 586.997Z" fill="#F1ECD3"/>
<path d="M237.411 244.425C237.411 251.525 232.165 257.253 225.661 257.253C219.157 257.253 213.911 251.525 213.911 244.425C213.911 237.325 219.157 231.598 225.661 231.598C232.165 231.598 237.411 237.325 237.411 244.425Z" fill="#E15B40"/>
<path d="M237.411 244.425C237.411 251.525 232.165 257.252 225.661 257.252C219.157 257.252 213.911 251.525 213.911 244.425C213.911 244.425 226.164 236.462 237.411 244.425Z" fill="#F1ECD3"/>
<path d="M195.98 674.513C195.98 681.613 190.734 687.34 184.23 687.34C177.726 687.34 172.48 681.613 172.48 674.513C172.48 667.413 177.726 661.686 184.23 661.686C190.734 661.686 195.98 667.413 195.98 674.513Z" fill="#EEA5AE"/>
<path d="M195.98 674.513C195.98 681.613 190.734 687.34 184.23 687.34C177.726 687.34 172.48 681.613 172.48 674.513C172.48 674.513 184.769 666.55 195.98 674.513Z" fill="#F1ECD3"/>
<path d="M364.364 431.657C364.364 438.757 359.118 444.484 352.614 444.484C346.11 444.484 340.864 438.757 340.864 431.657C340.864 424.557 346.11 418.83 352.614 418.83C359.118 418.83 364.364 424.557 364.364 431.657Z" fill="#E15B40"/>
<path d="M364.364 431.657C364.364 438.757 359.118 444.484 352.614 444.484C346.11 444.484 340.864 438.757 340.864 431.657C340.864 431.657 353.153 423.694 364.364 431.657Z" fill="#F1ECD3"/>
<path d="M208.449 472.453C208.449 479.553 203.203 485.281 196.699 485.281C190.195 485.281 184.949 479.553 184.949 472.453C184.949 465.353 190.195 459.626 196.699 459.626C203.203 459.626 208.449 465.392 208.449 472.453Z" fill="#D69A66"/>
<path d="M208.449 472.453C208.449 479.553 203.203 485.281 196.699 485.281C190.195 485.281 184.949 479.553 184.949 472.453C184.949 472.453 197.202 464.49 208.449 472.453Z" fill="#F1ECD3"/>
<path d="M282.041 408.081C282.041 415.181 276.794 420.909 270.29 420.909C263.787 420.909 258.54 415.181 258.54 408.081C258.54 400.981 263.787 395.254 270.29 395.254C276.794 395.254 282.041 401.02 282.041 408.081Z" fill="#6876D5"/>
<path d="M282.041 408.081C282.041 415.181 276.794 420.908 270.29 420.908C263.787 420.908 258.54 415.181 258.54 408.081C258.54 408.081 270.794 400.118 282.041 408.081Z" fill="#F1ECD3"/>
<path d="M412.982 505.129C412.982 512.23 407.736 517.957 401.232 517.957C394.728 517.957 389.481 512.23 389.481 505.129C389.481 498.029 394.728 492.302 401.232 492.302C407.736 492.263 412.982 498.029 412.982 505.129Z" fill="#6876D5"/>
<path d="M412.982 505.13C412.982 512.23 407.736 517.957 401.232 517.957C394.728 517.957 389.481 512.23 389.481 505.13C389.481 505.13 401.735 497.166 412.982 505.13Z" fill="#F1ECD3"/>
<path d="M353.62 244.425C353.62 251.525 348.374 257.253 341.87 257.253C335.366 257.253 330.12 251.525 330.12 244.425C330.12 237.325 335.366 231.598 341.87 231.598C348.374 231.598 353.62 237.325 353.62 244.425Z" fill="#6876D5"/>
<path d="M353.62 244.425C353.62 251.525 348.374 257.252 341.87 257.252C335.366 257.252 330.12 251.525 330.12 244.425C330.12 244.425 342.409 236.462 353.62 244.425Z" fill="#F1ECD3"/>
<path d="M279.058 184.917C279.058 192.018 273.812 197.745 267.308 197.745C260.804 197.745 255.558 192.018 255.558 184.917C255.558 177.817 260.804 172.09 267.308 172.09C273.812 172.09 279.058 177.817 279.058 184.917Z" fill="#D69A66"/>
<path d="M279.058 184.917C279.058 192.017 273.812 197.745 267.308 197.745C260.804 197.745 255.558 192.017 255.558 184.917C255.558 184.917 267.847 176.954 279.058 184.917Z" fill="#F1ECD3"/>
<path d="M186.997 267.138H169.605L49.3005 782.741H66.6922L186.997 267.138Z" fill="#E15B40"/>
<path d="M230.548 317.192H164.79L167.413 305.934H230.548V317.192Z" fill="#252827"/>
<path d="M213.66 389.801H147.902L150.525 378.504H213.66V389.801Z" fill="#252827"/>
<path d="M196.699 462.372H130.941L133.564 451.114H196.699V462.372Z" fill="#252827"/>
<path d="M179.774 534.982H114.016L116.675 523.684H179.774V534.982Z" fill="#252827"/>
<path d="M162.85 607.552H97.0559L99.715 596.294H162.85V607.552Z" fill="#252827"/>
<path d="M145.925 680.162H80.1672L82.7904 668.864H145.925V680.162Z" fill="#252827"/>
<path d="M128.929 752.732H63.1707L65.7938 741.435H128.929V752.732Z" fill="#252827"/>
<path d="M169.138 99.5979C169.138 99.5979 161.808 91.5956 157.029 88.8104C152.249 86.0253 154.765 96.6951 154.765 96.6951C154.765 96.6951 165.293 100.539 169.138 99.5979Z" fill="#E1593F"/>
<path d="M103.668 97.5973C103.668 97.5973 111.968 90.811 117.071 88.7712C122.137 86.7706 118.293 96.9305 118.293 96.9305C118.293 96.9305 107.333 99.088 103.668 97.5973Z" fill="#E1593F"/>
<path d="M142.08 106.031H136.403H130.725L127.923 142.552H136.403H144.883L142.08 106.031Z" fill="#D69A66"/>
<path d="M129.935 116.152L142.907 117.133L142.08 106.031H130.725L129.935 116.152Z" fill="#252827"/>
<path d="M95.6187 79.9059L124.976 78.1014L136.259 46.0527L143.877 78.1014H173.271L151.747 100.814L156.382 130.941L136.259 108.15L113.442 130.941L117.035 99.598L95.6187 79.9059Z" fill="#D69A66"/>
<path d="M113.585 131.058L113.262 130.862L136.008 93.2824L95.5826 80.0628L95.6904 79.7097L136.547 93.0862L113.585 131.058Z" fill="#252827"/>
<path d="M156.238 131.058L136.008 93.0863L136.223 93.0079L173.199 77.9446L173.306 78.2976L136.547 93.2824L156.562 130.862L156.238 131.058Z" fill="#252827"/>
<path d="M136.08 93.9492V46.0527H136.439V92.4194L143.733 78.023L144.057 78.2191L136.08 93.9492Z" fill="#252827"/>
<path d="M136.364 92.9951L136.216 93.3525L151.672 100.975L151.82 100.618L136.364 92.9951Z" fill="#252827"/>
<path d="M117.107 99.794L116.999 99.4017L135.972 93.0861L124.868 78.219L125.12 77.9836L136.583 93.2823L117.107 99.794Z" fill="#252827"/>
<path d="M136.078 93.1834L136.051 108.168L136.41 108.169L136.437 93.1842L136.078 93.1834Z" fill="#252827"/>
<path d="M136.008 182.838C136.008 182.838 180.206 195.116 185.739 166.402C190.231 142.983 161.987 120.859 161.987 120.859L169.138 99.5979C169.138 99.5979 218.762 130.901 209.707 171.972C200.975 211.631 146.177 209.787 146.177 209.787C146.177 209.787 129.324 201.04 136.008 182.838Z" fill="#6876D5"/>
<path d="M176.127 104.671L168.126 126.527L168.46 126.672L176.461 104.816L176.127 104.671Z" fill="#252827"/>
<path d="M169.138 99.598C169.138 99.598 144.704 86.9668 141.146 92.6548C141.146 92.6548 137.984 92.1448 137.086 93.8708C135.253 97.4797 138.846 99.2842 138.846 99.2842C138.846 99.2842 136.87 103.678 144.272 107.169C148.009 108.895 150.309 116.662 161.952 120.859L169.138 99.598Z" fill="#E1593F"/>
<path d="M153.363 106.463C153.256 106.384 143.59 97.9113 139.996 98.6566C139.529 98.7351 139.206 99.0097 138.99 99.4019L138.667 99.2058C138.918 98.6958 139.349 98.382 139.924 98.2643C143.697 97.4798 153.184 105.796 153.579 106.149L153.363 106.463Z" fill="#252827"/>
<path d="M155.663 98.8528C155.591 98.8136 147.686 94.8124 141.11 92.851L141.218 92.4587C147.866 94.4201 155.771 98.4605 155.843 98.4997L155.663 98.8528Z" fill="#252827"/>
<path d="M163.748 97.2444C163.676 97.2051 158.179 94.5769 154.154 93.4001L154.262 93.0078C158.358 94.2239 163.856 96.8521 163.928 96.8913L163.748 97.2444Z" fill="#252827"/>
<path d="M137.732 181.465L108.626 188.173C108.626 188.173 81.6046 226.655 86.5993 281.73L163.03 261.411C162.886 260.979 142.404 194.293 137.732 181.465Z" fill="#6876D5"/>
<path d="M112.543 188.369C112.543 188.369 116.388 199.627 127.527 196.293C139.421 192.723 136.008 179.857 136.008 179.857L112.543 188.369Z" fill="#F1ECD3"/>
<path d="M108.626 188.173C108.626 188.173 71.148 189.507 73.7711 160.283C76.3942 131.058 107.98 119.722 107.98 119.722L103.668 97.5581C103.668 97.5581 55.6966 111.288 47.8632 156.713C39.6344 204.492 95.1514 215.868 95.1514 215.868C95.1514 215.868 112.867 207.238 108.626 188.173Z" fill="#6876D5"/>
<path d="M94.0849 101.335L93.7426 101.454L100.166 123.468L100.508 123.349L94.0849 101.335Z" fill="#252827"/>
<path d="M103.668 97.5974C103.668 97.5974 129.504 88.8497 132.271 95.0869C132.271 95.0869 135.469 95.0869 136.115 96.9306C137.445 100.775 133.672 101.991 133.672 101.991C133.672 101.991 135.073 106.659 127.276 108.934C123.359 110.072 120.053 117.407 108.016 119.761L103.668 97.5974Z" fill="#E1593F"/>
<path d="M118.364 106.816L118.185 106.463C118.616 106.188 129.108 99.4412 132.702 100.775C133.241 100.971 133.6 101.363 133.816 101.913L133.492 102.069C133.349 101.638 133.061 101.363 132.594 101.167C129.144 99.8727 118.472 106.737 118.364 106.816Z" fill="#252827"/>
<path d="M117.107 98.9312L116.999 98.5389C117.071 98.4997 125.443 95.7538 132.271 94.8516L132.307 95.2438C125.515 96.1853 117.179 98.9312 117.107 98.9312Z" fill="#252827"/>
<path d="M109.273 96.0674L109.165 95.6752C109.237 95.6752 115.023 93.9099 119.227 93.3215L119.263 93.7138C115.13 94.3022 109.345 96.0674 109.273 96.0674Z" fill="#252827"/>
<path d="M209.276 361.754C197.022 385.094 164.826 421.575 164.826 421.575L130.977 397.215L178.014 344.965L137.984 303.776C135.864 301.579 132.702 301.069 130.079 302.481C127.671 303.776 126.126 306.443 126.126 309.346C126.126 309.464 126.126 309.542 126.126 309.66L132.738 489.321L92.2768 486.536L86.5634 281.73L162.994 261.41C162.994 261.41 197.669 313.426 209.815 337.354C211.719 341.081 213.049 344.141 213.624 346.181C214.594 349.515 212.725 355.085 209.276 361.754Z" fill="#D69A66"/>
<path d="M178.053 344.798L177.866 345.133L190.396 353.442L190.582 353.107L178.053 344.798Z" fill="#252827"/>
<path d="M90.4801 301.187L90.3723 300.834C90.4801 300.795 102.949 295.617 104.458 280.946L104.818 280.985C103.272 295.891 90.5879 301.148 90.4801 301.187Z" fill="#252827"/>
<path d="M170.036 278.788C157.316 278.788 152.717 267.334 152.681 267.216L153.004 267.059C153.04 267.177 158.502 280.749 174.025 278.043L174.097 278.435C172.66 278.71 171.33 278.788 170.036 278.788Z" fill="#252827"/>
<path d="M126.162 296.205L121.167 272.512L121.491 272.433L126.449 295.695L134.247 292.871L129.504 270.276L129.863 270.197L134.642 293.106L126.162 296.205Z" fill="#252827"/>
<path d="M209.168 361.911C205.682 359.4 203.886 353.673 204.676 347.632C205.251 343.278 207.084 339.473 209.707 337.158L209.922 337.472C207.371 339.708 205.575 343.474 205 347.71C204.209 353.594 205.934 359.165 209.312 361.597L209.168 361.911Z" fill="#252827"/>
<path d="M130.941 397.215L112.543 418.045L133.6 451.114H176.936C176.936 451.114 180.817 434.638 160.083 427.499L164.862 421.575L130.941 397.215Z" fill="#F1ECD3"/>
<path d="M92.2768 486.536L90.4083 523.684H164.79C164.79 523.684 167.773 489.282 135.002 497.245L132.738 489.282L92.2768 486.536Z" fill="#F1ECD3"/>
<path d="M126.952 320.604L132.774 489.321L92.2768 486.536L87.6773 321.664L126.952 320.604Z" fill="#D69A66"/>
<path d="M111.501 400.354C106.363 400.354 102.194 393.999 102.194 386.193C102.194 378.386 106.363 372.031 111.501 372.031C116.64 372.031 120.808 378.386 120.808 386.193C120.808 393.999 116.64 400.354 111.501 400.354ZM111.501 372.463C106.542 372.463 102.554 378.622 102.554 386.232C102.554 393.842 106.578 400.001 111.501 400.001C116.424 400.001 120.449 393.842 120.449 386.232C120.449 378.622 116.46 372.463 111.501 372.463Z" fill="#252827"/>
<path d="M136.583 435.305L136.259 435.109C136.295 435.031 141.613 425.538 160.011 427.303L159.975 427.695C141.865 425.93 136.654 435.187 136.583 435.305Z" fill="#252827"/>
<path d="M114.196 515.407L113.837 515.289C113.873 515.172 117.107 503.835 134.93 497.049L135.037 497.402C117.43 504.149 114.232 515.289 114.196 515.407Z" fill="#252827"/>
<path d="M143.194 211.866L140.607 208.061L138.882 212.455L137.157 216.809L139.745 220.614L142.368 224.419L144.093 220.065L145.781 215.671L143.194 211.866Z" fill="#F1ECD3"/>
<path d="M130.618 213.514L128.03 209.709L126.306 214.063L124.581 218.417L127.168 222.222L129.791 226.027L131.516 221.673L133.205 217.319L130.618 213.514Z" fill="#F1ECD3"/>
<path d="M118.041 215.122L115.454 211.317L113.729 215.671L112.004 220.026L114.591 223.831L117.214 227.636L118.939 223.281L120.628 218.927L118.041 215.122Z" fill="#F1ECD3"/>
<path d="M105.464 216.731L102.877 212.926L101.152 217.28L99.4275 221.673L102.015 225.478L104.638 229.283L106.363 224.929L108.051 220.536L105.464 216.731Z" fill="#F1ECD3"/>
<path d="M141.669 192.571L141.329 192.7L146.821 209.886L147.161 209.757L141.669 192.571Z" fill="#252827"/>
<path d="M128.183 192.236C138.597 188.596 144.734 177.784 141.89 168.087C139.046 158.389 128.298 153.478 117.884 157.118C107.47 160.757 101.332 171.569 104.176 181.267C107.02 190.965 117.768 195.876 128.183 192.236Z" fill="#E1593F"/>
<path d="M138.056 161.42C133.313 156.399 125.515 154.477 117.897 157.144C107.692 160.714 101.619 171.188 104.063 180.72L108.123 178.052C108.123 178.052 112.579 174.718 111.717 165.931C111.645 165.931 130.474 168.363 138.056 161.42Z" fill="#252827"/>
<path d="M110.792 181.151C111.363 178.427 109.363 175.604 106.326 174.846C103.289 174.087 100.364 175.681 99.7935 178.406C99.2228 181.13 101.222 183.953 104.26 184.711C107.297 185.469 110.222 183.875 110.792 181.151Z" fill="#E1593F"/>
<path d="M108.087 181.662L102.302 180.759L102.338 180.367L107.477 181.191C106.111 177.856 103.236 177.66 103.093 177.66V177.268C103.129 177.268 106.506 177.464 107.908 181.387L108.087 181.662Z" fill="#252827"/>
<path d="M105.967 185.113C105.572 185.113 105.321 185.074 105.285 185.074L105.321 184.682C105.357 184.682 108.087 185.035 109.381 183.27L109.669 183.505C108.662 184.878 106.938 185.113 105.967 185.113Z" fill="#252827"/>
<path d="M122.993 174.2C123.612 174.043 123.939 173.095 123.724 172.082C123.509 171.069 122.834 170.375 122.215 170.531C121.596 170.687 121.269 171.635 121.484 172.649C121.699 173.662 122.375 174.356 122.993 174.2Z" fill="#252827"/>
<path d="M132.873 171.691C133.491 171.535 133.819 170.587 133.604 169.574C133.389 168.561 132.713 167.866 132.094 168.022C131.476 168.179 131.148 169.127 131.363 170.14C131.578 171.153 132.254 171.848 132.873 171.691Z" fill="#252827"/>
<path d="M133.492 179.19C132.881 179.19 132.199 179.073 131.372 178.719L131.516 178.366C133.349 179.151 135.037 178.876 136.115 177.621C136.87 176.719 137.158 175.464 136.798 174.679C136.583 174.248 136.223 174.051 135.684 174.13C130.654 174.758 129.288 168.128 129.252 168.05L129.612 167.971C129.647 168.246 130.941 174.326 135.648 173.738C136.331 173.659 136.87 173.934 137.122 174.522C137.553 175.424 137.229 176.876 136.367 177.896C135.972 178.327 135.037 179.19 133.492 179.19Z" fill="#252827"/>
<path d="M123.862 183.623C123.683 183.623 123.467 183.623 123.287 183.583C121.958 183.309 121.275 182.25 121.275 182.171L121.562 181.975C121.562 181.975 122.173 182.995 123.359 183.191C124.401 183.387 125.551 182.956 126.845 181.897L127.06 182.211C125.91 183.152 124.868 183.623 123.862 183.623Z" fill="#252827"/>
<path d="M242.945 267.138H225.518L105.213 782.741H122.64L242.945 267.138Z" fill="#E15B40"/>
<path d="M255.235 734.374C255.235 734.374 205.323 802.629 257.462 802.629C309.602 802.629 419.27 802.629 448.628 802.629C477.985 802.629 449.095 787.252 441.944 783.682C434.757 780.113 427.319 764.343 410.97 763.48C394.584 762.578 393.326 769.443 393.326 769.443L325.808 744.847L255.235 734.374Z" fill="#F1ECD3"/>
<path d="M312.656 641.837L255.234 734.374L376.366 752.379C376.366 752.379 409.101 685.222 383.732 644.151L312.656 641.837Z" fill="#D69A66"/>
<path d="M262.623 722.223L262.576 722.612L381.681 739.621L381.727 739.232L262.623 722.223Z" fill="#252827"/>
<path d="M306.116 741.945C306.116 741.945 254.911 802.629 307.05 802.629C359.19 802.629 468.858 802.629 498.216 802.629C527.573 802.629 498.683 787.252 491.532 783.682C484.345 780.113 477.949 756.969 461.564 756.066C445.178 755.164 442.914 769.443 442.914 769.443L376.366 752.379L306.116 741.945Z" fill="#F1ECD3"/>
<path d="M307.05 802.825C294.797 802.825 287.251 799.452 284.556 792.783C280.963 783.8 286.964 770.424 292.677 760.774C298.822 750.339 305.9 741.905 305.972 741.827L306.224 742.102C305.936 742.455 278.088 775.758 284.879 792.665C287.503 799.177 294.941 802.472 307.05 802.472V802.825Z" fill="#252827"/>
<path d="M275.249 554.674L265.332 550.359C259.618 547.887 253.114 550.947 250.851 557.184C248.587 563.421 251.39 570.521 257.103 572.993L267.021 577.308L275.249 554.674Z" fill="#252827"/>
<path d="M358.794 667.099C327.712 679.024 314.489 631.284 314.489 631.284C314.489 631.284 308.847 637.639 299.971 644.19C284.951 655.252 260.589 666.903 238.454 649.447C212.186 628.735 224.44 572.561 224.44 572.561L247.509 578.759C247.509 578.759 239.675 626.302 265.583 623.674C293.575 620.811 311.578 562.44 331.665 560.636H354.59C374.102 573.463 381.864 593.155 384.63 600.766C392.32 621.556 389.877 655.174 358.794 667.099Z" fill="#E1593F"/>
<path d="M332.815 572.169C330.479 572.169 328.682 571.502 327.425 570.247C325.7 568.482 325.7 566.128 325.7 566.049H326.059C326.059 566.089 326.059 568.325 327.676 569.972C329.042 571.345 331.09 571.973 333.785 571.777C337.809 571.502 340.935 569.972 343.091 567.266C346.649 562.794 346.325 556.596 346.29 556.517L346.649 556.478C346.649 556.556 347.008 562.911 343.343 567.501C341.115 570.286 337.917 571.816 333.785 572.13C333.461 572.13 333.102 572.169 332.815 572.169Z" fill="#252827"/>
<path d="M222.969 581.815L222.901 582.2L246.644 587.216L246.712 586.831L222.969 581.815Z" fill="#252827"/>
<path d="M318.657 614.809L314.524 631.285C314.524 631.285 308.883 637.639 300.007 644.19L305.397 621.752L318.657 614.809Z" fill="#252827"/>
<path d="M539 817.339H412.658C366.879 817.339 338.636 808.16 326.311 789.253C311.111 765.991 322.106 731.196 332.707 697.539C335.833 687.615 339.067 677.377 341.546 667.687C350.638 631.951 340.181 610.572 329.832 598.961C318.585 586.369 305.038 582.172 304.93 582.093L305.11 581.348C305.254 581.387 318.98 585.663 330.335 598.412C337.019 605.904 341.582 614.809 343.954 624.93C346.865 637.522 346.326 651.996 342.265 667.923C339.786 677.612 336.552 687.889 333.425 697.814C322.861 731.275 311.937 765.873 326.922 788.821C339.103 807.493 367.167 816.555 412.694 816.555H539V817.339Z" fill="#252827"/>
<path d="M267.344 549.731C263.535 539.493 245.029 540.042 238.022 547.103C231.015 554.124 224.476 572.561 224.476 572.561L247.545 578.759C253.977 573.816 253.078 566.01 253.078 566.01C253.078 566.01 259.043 569.031 261.99 567.462C264.901 565.853 259.223 560.754 259.223 560.754C259.223 560.754 265.475 561.068 265.332 557.419C265.188 553.771 259.798 551.849 259.798 551.849C259.798 551.849 268.961 554.046 267.344 549.731Z" fill="#F1ECD3"/>
<path d="M260.948 552.555C254.767 549.299 250.096 549.731 250.06 549.731L250.024 549.339C250.06 549.339 254.839 548.907 261.092 552.202L260.948 552.555Z" fill="#252827"/>
<path d="M259.115 560.911C254.336 558.086 250.06 556.713 250.024 556.674L250.132 556.282C250.168 556.282 254.48 557.694 259.295 560.558L259.115 560.911Z" fill="#252827"/>
<path d="M274.355 567.398C276.634 561.136 277.046 555.437 275.275 554.669C273.504 553.902 270.222 558.355 267.943 564.617C265.664 570.879 265.253 576.578 267.023 577.346C268.794 578.114 272.077 573.66 274.355 567.398Z" fill="#252827"/>
<path d="M267.416 577.621C267.236 577.621 267.092 577.582 266.913 577.504C265.979 577.111 265.547 575.503 265.727 572.993C265.907 570.561 266.589 567.579 267.703 564.52C270.039 558.086 273.381 553.654 275.249 554.477C277.154 555.301 276.794 560.989 274.423 567.422C273.309 570.482 271.943 573.189 270.542 575.072C269.392 576.758 268.314 577.621 267.416 577.621ZM274.818 554.791C273.093 554.791 270.147 559.067 268.099 564.676C267.021 567.697 266.302 570.639 266.122 573.032C265.943 575.307 266.302 576.798 267.057 577.151C267.811 577.465 268.997 576.641 270.326 574.876C271.692 573.032 273.057 570.325 274.135 567.344C276.327 561.303 276.794 555.615 275.142 554.909C275.07 554.83 274.926 554.791 274.818 554.791Z" fill="#F1ECD3"/>
<path d="M290.844 587.664L300.762 591.979C306.475 594.45 312.979 591.39 315.243 585.153C317.507 578.916 314.704 571.816 308.991 569.345L299.073 565.03L290.844 587.664Z" fill="#252827"/>
<path d="M298.223 577.742C300.501 571.48 300.913 565.781 299.142 565.014C297.372 564.246 294.089 568.7 291.81 574.962C289.532 581.224 289.12 586.923 290.891 587.69C292.661 588.458 295.944 584.004 298.223 577.742Z" fill="#252827"/>
<path d="M291.276 587.938C291.096 587.938 290.952 587.899 290.808 587.86C289.874 587.467 289.443 585.859 289.623 583.349C289.802 580.916 290.485 577.935 291.599 574.875C293.935 568.442 297.276 564.01 299.145 564.833C301.049 565.657 300.69 571.345 298.319 577.778C296.198 583.741 293.216 587.938 291.276 587.938ZM298.642 565.147C296.917 565.147 293.971 569.423 291.922 575.032C290.844 578.053 290.126 580.995 289.946 583.388C289.766 585.663 290.126 587.154 290.88 587.507C292.533 588.213 295.767 583.741 297.959 577.7C300.151 571.659 300.618 565.971 298.965 565.265C298.929 565.147 298.786 565.147 298.642 565.147Z" fill="#F1ECD3"/>
<path d="M296.198 573.542L287.79 569.894C286.892 569.501 286.461 568.403 286.82 567.422C287.179 566.442 288.185 565.971 289.084 566.363L297.492 570.011L296.198 573.542Z" fill="#F1ECD3"/>
<path d="M292.821 582.878L284.412 579.23C283.514 578.837 283.083 577.739 283.442 576.758C283.801 575.778 284.808 575.307 285.706 575.699L294.114 579.347L292.821 582.878Z" fill="#F1ECD3"/>
<path d="M305.362 621.713C305.362 621.713 307.589 692.008 356.602 691.93C402.382 691.851 397.782 632.501 380.893 591.743L358.327 603.08C358.327 603.08 368.64 646.622 354.375 649.878C335.617 654.193 328.179 619.869 328.179 619.869L305.362 621.713Z" fill="#E1593F"/>
<path d="M331.299 629.685L306.603 633.461L306.653 633.85L331.349 630.074L331.299 629.685Z" fill="#252827"/>
<path d="M351.284 650.467C344.78 650.467 338.923 645.759 334.144 636.619C329.976 628.656 328.071 620.026 328.071 619.948L328.431 619.869C328.467 619.948 330.335 628.539 334.468 636.463C338.276 643.759 344.816 651.957 354.411 649.761C356.387 649.29 357.968 648.035 359.154 645.956C365.55 634.697 358.291 603.512 358.219 603.198L358.579 603.119C358.651 603.433 365.945 634.776 359.477 646.191C358.255 648.348 356.567 649.721 354.482 650.192C353.368 650.349 352.326 650.467 351.284 650.467Z" fill="#252827"/>
<path d="M307.733 579.936C316.824 575.072 330.263 588.958 331.198 599.314C332.096 609.67 328.215 619.909 328.215 619.909L305.362 621.752C303.421 615.084 308.416 602.492 308.416 602.492C308.416 602.492 302.128 600.373 300.906 597.078C299.72 593.783 307.05 594.097 307.05 594.097C307.05 594.097 302.199 589.782 304.535 587.154C306.871 584.526 312.081 587.036 312.081 587.036C312.081 587.036 303.888 581.976 307.733 579.936Z" fill="#F1ECD3"/>
<path d="M315.962 599.589C312.943 596.294 307.122 594.293 307.05 594.254L307.158 593.862C307.23 593.901 313.123 595.902 316.213 599.275L315.962 599.589Z" fill="#252827"/>
<path d="M319.411 591.9C316.393 589.233 312.081 587.193 312.045 587.193L312.189 586.84C312.225 586.879 316.573 588.919 319.663 591.626L319.411 591.9Z" fill="#252827"/>
<path d="M348.5 553.088C349.189 544.02 342.227 535.988 332.951 535.149C323.676 534.31 315.598 540.981 314.91 550.049C314.221 559.117 321.183 567.149 330.458 567.988C339.734 568.827 347.812 562.156 348.5 553.088Z" fill="#F1ECD3"/>
<path d="M323.315 545.625C323.612 544.637 323.365 543.661 322.761 543.444C322.158 543.228 321.428 543.853 321.13 544.841C320.833 545.829 321.081 546.805 321.684 547.022C322.288 547.238 323.018 546.613 323.315 545.625Z" fill="#252827"/>
<path d="M319.914 557.733C319.34 557.733 318.98 557.655 318.944 557.655L319.016 557.263C319.196 557.302 323.113 558.086 324.909 554.085L325.233 554.242C323.867 557.302 321.316 557.733 319.914 557.733Z" fill="#252827"/>
<path d="M318.657 542.592L310.356 548.476L317.902 551.575L318.657 542.592Z" fill="#F1ECD3"/>
<path d="M335.006 551.575C326.957 549.731 325.808 536.198 325.843 536.001C327.999 535.178 330.443 534.903 332.922 535.138C342.193 535.962 349.164 544.004 348.446 553.065C348.23 555.85 347.332 558.361 345.93 560.558C345.966 560.597 338.133 559.852 335.006 551.575Z" fill="#252827"/>
<path d="M325.843 536.001C354.446 528.666 363.358 556.478 368.604 569.58C376.186 588.605 398.608 591.979 401.232 612.965L348.553 628.695C348.553 628.695 342.804 622.929 345.499 602.413C347.403 587.938 338.169 578.916 345.571 560.558L325.843 536.001Z" fill="#252827"/>
<path d="M340.368 556.215C342.805 555.606 344.408 553.332 343.948 551.136C343.488 548.94 341.139 547.652 338.702 548.261C336.264 548.869 334.661 551.143 335.121 553.339C335.581 555.536 337.93 556.823 340.368 556.215Z" fill="#F1ECD3"/>
<path d="M337.198 553.85L337.306 553.536C338.42 550.398 341.187 550.202 341.223 550.202V550.594C341.115 550.594 338.851 550.751 337.773 553.34L341.87 552.673L341.906 553.066L337.198 553.85Z" fill="#252827"/>
</g>
<defs>
<clipPath id="clip0_5_724">
<rect width="539" height="863" fill="white"/>
</clipPath>
</defs>
</svg>
